<svg width="160" height="193" viewBox="0 0 160 193" fill="none" xmlns="http://www.w3.org/2000/svg">
<g clip-path="url(#clip0_367_34809)">
<path d="M78.2963 192.713C121.537 192.713 156.591 182.031 156.591 168.854C156.591 155.676 121.537 144.994 78.2963 144.994C35.0551 144.994 0.0012207 155.676 0.0012207 168.854C0.0012207 182.031 35.0551 192.713 78.2963 192.713Z" fill="#D6D6E3"/>
<path d="M46.0054 55.9132C46.1427 56.8756 46.2291 57.8059 46.2638 58.7007C46.3286 60.4302 46.2108 62.0324 45.9067 63.504C44.5915 69.951 39.8324 73.9329 32.3054 75.007C26.3461 75.8574 21.1819 74.5235 17.6212 71.0645C16.2997 69.7857 15.2007 68.2144 14.3606 66.3562L14.3601 66.3526C13.6081 64.6854 13.066 62.7881 12.7619 60.6571C12.6081 59.5793 12.4952 58.4635 12.4265 57.3307C12.3262 55.7276 12.3135 54.0869 12.3977 52.4504C12.5401 49.7199 12.9494 47.0086 13.6701 44.5277C15.3107 38.9092 18.5526 34.4797 23.9136 33.7147C28.0323 33.1269 32.1916 34.8757 35.7819 37.8911C37.9076 39.6765 39.8359 41.9043 41.4352 44.354C42.4202 45.8524 43.2788 47.4402 43.9879 49.0565C44.9863 51.3242 45.6833 53.6561 46.0054 55.9132Z" fill="#D6D6E3"/>
<path d="M41.4354 44.3526C35.5337 47.1087 20.6115 53.5584 12.3979 52.449C12.5403 49.7185 12.9497 47.0072 13.6704 44.5263C17.8939 44.7985 27.1335 44.4654 35.7821 37.8896C37.9079 39.6751 39.8361 41.9029 41.4354 44.3526Z" fill="#F48282"/>
<path d="M45.9069 63.502C44.5917 69.9489 39.8326 73.9308 32.3056 75.005C26.3462 75.8554 21.1821 74.5214 17.6213 71.0625C19.1052 70.526 20.7588 70.4042 20.7588 70.4042C20.7588 70.4042 34.0335 73.0266 45.9069 63.502Z" fill="#F48282"/>
<path d="M46.0056 55.9134C46.143 56.8757 46.2294 57.8061 46.2641 58.7009C37.555 62.4502 22.4674 68.1166 14.3609 66.3563L14.3604 66.3527C13.6083 64.6855 13.0662 62.7883 12.7621 60.6572C12.6083 59.5794 12.4955 58.4637 12.4268 57.3308C13.4511 57.1277 14.2389 57.0688 14.2389 57.0688C14.2389 57.0688 29.8905 60.034 43.9882 49.0566C44.9866 51.3243 45.6836 53.6563 46.0056 55.9134Z" fill="#F48282"/>
<path d="M104.701 94.0249C104.701 94.0249 113.891 104.983 128.384 89.0763C128.384 89.0763 135.907 67.6943 144.694 75.911C153.481 84.1276 139.328 97.704 139.328 97.704C139.328 97.704 127.323 118.232 112.831 117.616" fill="#4E9F8A"/>
<path d="M104.877 90.669C104.877 90.669 143.053 162.425 113.714 167.373C84.3757 172.322 71.5803 164.015 71.5803 164.015C71.5803 164.015 53.6787 140.052 62.3111 115.891C70.9436 91.7294 73.1055 89.5215 73.1055 89.5215L104.877 90.669Z" fill="#4E9F8A"/>
<path d="M98.5152 42.5945C98.5152 42.5945 84.4382 36.5854 76.6307 42.5945C76.6307 42.5945 64.4047 42.4178 58.0421 66.1007C58.0421 66.1007 41.0752 83.4211 67.9395 94.0254C94.8037 104.63 108.101 94.0254 108.101 94.0254C108.101 94.0254 123.082 85.1885 115.659 67.8681C115.659 67.8681 115.305 46.6595 98.5152 42.5945Z" fill="#4E9F8A"/>
<path d="M68.9996 48.427C68.9996 48.427 38.9951 29.4625 45.6904 3.3386C46.2796 1.0397 48.5941 -0.3861 50.9186 0.0922978C57.2941 1.40444 70.1704 9.74086 77.483 44.5388L68.9996 48.427Z" fill="#4E9F8A"/>
<path d="M49.9122 6.01074C49.9122 6.01074 45.8056 31.4131 70.3047 45.0459C70.3047 45.0459 65.8186 33.2284 65.8186 29.3402C65.8186 25.452 56.6282 7.07117 49.9122 6.01074Z" fill="#4E4B4B"/>
<path d="M106.115 49.134C106.115 49.134 136.119 30.1695 129.424 4.04563C128.835 1.74673 126.52 0.320931 124.196 0.799329C117.82 2.11147 104.944 10.4479 97.6311 45.2458L106.115 49.134Z" fill="#4E9F8A"/>
<path d="M125.203 6.71777C125.203 6.71777 129.309 32.1202 104.81 45.753C104.81 45.753 109.296 33.9355 109.296 30.0472C109.296 26.159 118.487 7.7782 125.203 6.71777Z" fill="#4E4B4B"/>
<path d="M94.2038 41.5586C92.1296 39.3379 89.7628 37.3909 87.1838 35.7837C86.5917 35.4147 85.9708 35.057 85.2825 34.9431C84.5942 34.8292 83.8174 35.0059 83.3814 35.5504C83.7271 36.0228 84.2533 36.3596 84.8271 36.4758C84.0797 36.1222 83.3047 35.7617 82.4782 35.7408C81.6517 35.7198 80.7542 36.1327 80.4734 36.9104C80.1925 37.688 80.8514 38.7191 81.6669 38.5831C81.0658 38.5031 80.4453 38.4241 79.8605 38.5849C79.2758 38.7456 78.7304 39.21 78.6696 39.8134C78.577 40.7333 79.5613 41.3721 80.4394 41.6618C82.0498 42.193 83.7884 42.3309 85.4624 42.0602" fill="#4E9F8A"/>
<path d="M96.2174 71.7569C97.9744 71.7569 99.3987 69.8578 99.3987 67.5152C99.3987 65.1725 97.9744 63.2734 96.2174 63.2734C94.4604 63.2734 93.0361 65.1725 93.0361 67.5152C93.0361 69.8578 94.4604 71.7569 96.2174 71.7569Z" fill="#4E4B4B"/>
<path d="M95.8641 66.1004C96.4498 66.1004 96.9246 65.6256 96.9246 65.0399C96.9246 64.4543 96.4498 63.9795 95.8641 63.9795C95.2785 63.9795 94.8037 64.4543 94.8037 65.0399C94.8037 65.6256 95.2785 66.1004 95.8641 66.1004Z" fill="white"/>
<path d="M68.9997 69.6368C70.7566 69.6368 72.1809 67.7377 72.1809 65.395C72.1809 63.0524 70.7566 61.1533 68.9997 61.1533C67.2427 61.1533 65.8184 63.0524 65.8184 65.395C65.8184 67.7377 67.2427 69.6368 68.9997 69.6368Z" fill="#4E4B4B"/>
<path d="M68.6461 63.9802C69.2318 63.9802 69.7065 63.5055 69.7065 62.9198C69.7065 62.3341 69.2318 61.8594 68.6461 61.8594C68.0605 61.8594 67.5857 62.3341 67.5857 62.9198C67.5857 63.5055 68.0605 63.9802 68.6461 63.9802Z" fill="white"/>
<path d="M95.8303 53.611C98.0522 53.2942 100.372 54.4855 101.481 56.4148C101.821 57.0063 102.738 56.4728 102.397 55.8796C101.029 53.5003 98.2466 52.2037 95.5484 52.5884C95.2647 52.6289 95.1092 52.9897 95.1781 53.2407C95.2619 53.5456 95.5457 53.6516 95.8303 53.611Z" fill="#4E4B4B"/>
<path d="M73.2466 51.1781C70.4022 50.6016 67.4734 51.9597 66.1589 54.566C65.8523 55.1738 66.7668 55.7113 67.0745 55.1012C68.1675 52.9342 70.5659 51.7145 72.9647 52.2006C73.6309 52.3357 73.916 51.3137 73.2466 51.1781Z" fill="#4E4B4B"/>
<path d="M78.5433 76.7064C78.5433 76.7064 69.0162 69.4056 79.2503 69.9904C91.622 70.6973 78.5433 76.7064 78.5433 76.7064Z" fill="white"/>
<path d="M74.4958 82.7122C73.7372 82.7122 73.0453 82.5534 72.4227 82.2351C69.9263 80.9593 69.5262 77.623 69.5105 77.4818L70.213 77.4028C70.2164 77.4338 70.5901 80.5071 72.7475 81.6072C74.1954 82.3452 76.1391 82.0559 78.5261 80.7491L78.1916 76.7345L78.8961 76.6758L79.2684 81.1433L79.0713 81.2544C77.3534 82.2254 75.8229 82.7122 74.4958 82.7122Z" fill="#4E4B4B"/>
<path d="M84.1903 82.7488C82.5527 82.7488 80.7161 82.3422 78.7273 81.2572L79.0659 80.6366C82.1872 82.3391 85.2621 82.5144 88.2042 81.1561C90.4038 80.1409 91.691 78.6151 91.7038 78.5996L92.2471 79.0525C92.2057 79.1019 89.091 82.7488 84.1903 82.7488Z" fill="#4E4B4B"/>
<path d="M97.8867 76.7838C104.126 73.7128 111.442 72.9851 118.187 74.6368C120.116 75.1091 121.994 75.7728 123.786 76.6289C124.399 76.9216 124.938 76.0076 124.322 75.7132C117.761 72.579 110.141 71.8926 103.108 73.7208C101.121 74.2372 99.1927 74.9619 97.3515 75.8681C96.7392 76.1695 97.276 77.0844 97.8867 76.7838Z" fill="#4E4B4B"/>
<path d="M100.464 79.3025C106.551 78.979 112.696 80.942 117.503 84.6892C118.848 85.738 120.081 86.9269 121.186 88.2259C121.628 88.7464 122.375 87.9933 121.935 87.4761C117.857 82.6823 111.989 79.4648 105.774 78.5144C104.016 78.2457 102.24 78.1477 100.464 78.2421C99.7852 78.2782 99.781 79.3388 100.464 79.3025Z" fill="#4E4B4B"/>
<path d="M62.6865 73.1073C58.6219 69.012 52.9089 66.6922 47.1392 66.8005C46.4576 66.8133 46.4554 67.8738 47.1392 67.8609C52.6378 67.7577 58.062 69.9533 61.9367 73.8571C62.4181 74.3422 63.168 73.5924 62.6865 73.1073Z" fill="#4E4B4B"/>
<path d="M62.4245 76.3395C56.7957 75.1672 50.9929 75.0841 45.3318 76.0862C44.661 76.205 44.9453 77.2271 45.6137 77.1088C51.0776 76.1416 56.711 76.2308 62.1426 77.362C62.8086 77.5007 63.0933 76.4787 62.4245 76.3395Z" fill="#4E4B4B"/>
<path d="M61.047 79.3298C55.7392 78.8817 50.3175 80.3803 45.995 83.4934C45.4462 83.8886 45.975 84.8089 46.5302 84.4091C50.7206 81.3911 55.9011 79.9558 61.047 80.3903C61.727 80.4477 61.7232 79.3869 61.047 79.3298Z" fill="#4E4B4B"/>
<path d="M77.4835 99.6101C77.4835 99.6101 64.7584 88.0182 64.4049 100.39C64.0514 112.762 78.8974 106.028 78.8974 106.028L77.4835 99.6101Z" fill="#4E4B4B"/>
<path d="M81.0178 99.3282C81.0178 99.3282 76.7761 97.5609 76.7761 102.156C76.7761 106.751 79.2505 107.9 81.0178 107.856C82.7852 107.812 84.1991 105.691 84.1991 104.277C84.1991 102.863 84.5526 98.9748 81.0178 99.3282Z" fill="#4E4B4B"/>
<path d="M78.6332 104.83C78.6332 104.83 67.9391 118.416 72.8877 119.83C77.8364 121.244 80.4924 106.373 80.4924 106.373L78.6332 104.83Z" fill="#4E4B4B"/>
<path d="M83.8458 99.6101C83.8458 99.6101 96.571 88.0182 96.9244 100.39C97.2779 112.762 82.4319 106.028 82.4319 106.028L83.8458 99.6101Z" fill="#4E4B4B"/>
<path d="M82.6954 104.83C82.6954 104.83 93.3895 118.416 88.4408 119.83C83.4922 121.244 80.8362 106.373 80.8362 106.373L82.6954 104.83Z" fill="#4E4B4B"/>
<path d="M95.5103 103.216C95.5103 103.216 106.06 102.807 108.562 98.0627C111.063 93.3187 106.918 94.68 106.918 94.68L94.8101 98.7387L95.5103 103.216Z" fill="#4E4B4B"/>
<path d="M110.003 135.029C110.003 135.029 88.6768 125.841 86.6149 150.053C86.6149 150.053 85.7142 163.391 92.3798 168.121C92.3798 168.121 74.9993 174.464 80.8365 180.55C82.9039 182.706 86.5003 183.034 90.2834 182.558C98.4743 181.529 105.607 176.46 109.5 169.18L112.831 162.953L110.003 135.029Z" fill="#4E9F8A"/>
<path d="M66.172 130.787C66.172 130.787 48.1447 138.564 52.0329 151.642C55.9212 164.721 61.5768 164.367 61.5768 164.367C61.5768 164.367 41.4286 165.074 44.6099 174.265C47.7912 183.455 61.8476 174.265 61.8476 174.265L78.8972 168.256L79.6378 159.375L66.172 130.787Z" fill="#4E9F8A"/>
<path d="M73.9302 124.486C74.0675 125.448 74.1539 126.378 74.1886 127.273C74.2534 129.002 74.1356 130.605 73.8315 132.076C72.5163 138.523 67.7572 142.505 60.2302 143.579C54.2709 144.43 49.1067 143.096 45.546 139.637C44.2245 138.358 43.1255 136.787 42.2854 134.928L42.2849 134.925C41.5329 133.258 40.9908 131.36 40.6867 129.229C40.5329 128.152 40.42 127.036 40.3513 125.903C40.251 124.3 40.2383 122.659 40.3225 121.023C40.4649 118.292 40.8742 115.581 41.5949 113.1C43.2355 107.481 46.4774 103.052 51.8384 102.287C55.9571 101.699 60.1164 103.448 63.7067 106.463C65.8324 108.249 67.7607 110.477 69.36 112.926C70.345 114.425 71.2036 116.012 71.9127 117.629C72.9111 119.896 73.6081 122.228 73.9302 124.486Z" fill="#D6D6E3"/>
<path d="M69.3597 112.927C63.458 115.683 48.5358 122.133 40.3223 121.023C40.4646 118.293 40.874 115.581 41.5947 113.101C45.8182 113.373 55.0578 113.04 63.7064 106.464C65.8322 108.249 67.7604 110.477 69.3597 112.927Z" fill="#3B82F6"/>
<path d="M73.8317 132.077C72.5165 138.524 67.7574 142.506 60.2304 143.58C54.271 144.431 49.1069 143.097 45.5461 139.638C47.03 139.101 48.6836 138.979 48.6836 138.979C48.6836 138.979 61.9583 141.602 73.8317 132.077Z" fill="#3B82F6"/>
<path d="M73.93 124.488C74.0673 125.45 74.1537 126.38 74.1884 127.275C65.4793 131.024 50.3917 136.691 42.2852 134.931L42.2847 134.927C41.5327 133.26 40.9905 131.362 40.6865 129.231C40.5326 128.154 40.4198 127.038 40.3511 125.905C41.3754 125.702 42.1632 125.643 42.1632 125.643C42.1632 125.643 57.8148 128.608 71.9125 117.631C72.9109 119.899 73.6079 122.23 73.93 124.488Z" fill="#3B82F6"/>
<path d="M40.351 117.055C40.351 117.055 29.9403 122.482 35.5959 131.319C41.2516 140.156 47.8787 135.261 47.8787 135.261C47.8787 135.261 47.1762 125.292 43.6837 123.003C40.1911 120.715 40.3222 121.025 40.3222 121.025L40.351 117.055Z" fill="#4E9F8A"/>
<path d="M48.8411 162.523C48.9484 163.276 49.0159 164.003 49.0431 164.702C49.0938 166.054 49.0017 167.307 48.7639 168.457C47.7358 173.497 44.0156 176.61 38.1316 177.449C33.4731 178.114 29.4362 177.071 26.6527 174.367C25.6196 173.368 24.7605 172.139 24.1038 170.687L24.1034 170.684C23.5155 169.381 23.0918 167.898 22.8541 166.232C22.7338 165.389 22.6456 164.517 22.5919 163.632C22.5135 162.378 22.5036 161.096 22.5694 159.816C22.6807 157.682 23.0007 155.563 23.5641 153.623C24.8465 149.231 27.3808 145.768 31.5715 145.17C34.7912 144.711 38.0426 146.078 40.8492 148.435C42.5109 149.831 44.0183 151.572 45.2684 153.487C46.0385 154.659 46.7096 155.9 47.264 157.163C48.0444 158.936 48.5893 160.759 48.8411 162.523Z" fill="#4E4B4B"/>
<path d="M32.238 153.763C33.4094 153.763 34.3589 152.655 34.3589 151.289C34.3589 149.922 33.4094 148.814 32.238 148.814C31.0667 148.814 30.1172 149.922 30.1172 151.289C30.1172 152.655 31.0667 153.763 32.238 153.763Z" fill="#E0681D"/>
<path d="M29.4107 171.437C30.582 171.437 31.5315 170.329 31.5315 168.963C31.5315 167.596 30.582 166.488 29.4107 166.488C28.2393 166.488 27.2898 167.596 27.2898 168.963C27.2898 170.329 28.2393 171.437 29.4107 171.437Z" fill="#E0681D"/>
<path d="M36.1265 164.722C37.2978 164.722 38.2473 163.614 38.2473 162.248C38.2473 160.881 37.2978 159.773 36.1265 159.773C34.9552 159.773 34.0056 160.881 34.0056 162.248C34.0056 163.614 34.9552 164.722 36.1265 164.722Z" fill="#E0681D"/>
<path d="M38.2476 174.62C39.4189 174.62 40.3684 173.512 40.3684 172.145C40.3684 170.779 39.4189 169.671 38.2476 169.671C37.0762 169.671 36.1267 170.779 36.1267 172.145C36.1267 173.512 37.0762 174.62 38.2476 174.62Z" fill="#E0681D"/>
<path d="M44.2564 165.074C45.4277 165.074 46.3772 163.966 46.3772 162.599C46.3772 161.233 45.4277 160.125 44.2564 160.125C43.085 160.125 42.1355 161.233 42.1355 162.599C42.1355 163.966 43.085 165.074 44.2564 165.074Z" fill="#E0681D"/>
<path d="M40.3679 155.885C41.5392 155.885 42.4888 154.777 42.4888 153.411C42.4888 152.044 41.5392 150.937 40.3679 150.937C39.1966 150.937 38.2471 152.044 38.2471 153.411C38.2471 154.777 39.1966 155.885 40.3679 155.885Z" fill="#E0681D"/>
<path d="M27.6431 161.539C28.8144 161.539 29.7639 160.432 29.7639 159.065C29.7639 157.699 28.8144 156.591 27.6431 156.591C26.4718 156.591 25.5222 157.699 25.5222 159.065C25.5222 160.432 26.4718 161.539 27.6431 161.539Z" fill="#E0681D"/>
<path d="M154.422 104.729C150.392 112.867 146.766 121.204 143.562 129.701C140.345 138.232 137.556 146.923 135.208 155.733C133.889 160.68 132.712 165.665 131.673 170.678C131.535 171.344 132.557 171.629 132.696 170.96C134.54 162.059 136.826 153.251 139.547 144.578C142.255 135.949 145.388 127.452 148.942 119.136C150.944 114.454 153.077 109.828 155.337 105.264C155.639 104.655 154.725 104.117 154.422 104.729Z" fill="#4E4B4B"/>
<path d="M158.253 97.3846C158.253 97.3846 154.837 96.1072 154.071 106.643C154.071 106.643 161.434 99.152 158.253 97.3846Z" fill="#4E4B4B"/>
<path d="M151.36 102.863C151.36 102.863 149.239 102.156 149.593 104.63C149.946 107.105 150.316 110.313 152.075 110.83C153.834 111.346 160.154 109.362 159.999 106.643L159.844 105.691C159.844 105.691 157.842 104.611 154.071 107.625L153.127 107.458C153.127 107.458 153.481 103.216 151.36 102.863Z" fill="#4E4B4B"/>
<path d="M147.343 121.578C147.343 121.578 141.109 112.053 145.704 110.286C145.704 110.286 148.369 109.816 148.627 118.534C148.627 118.534 155.415 113.091 157.099 115.93C158.783 118.769 153.577 122.62 147.343 121.578Z" fill="#4E4B4B"/>
</g>
<defs>
<clipPath id="clip0_367_34809">
<rect width="160" height="192.712" fill="white"/>
</clipPath>
</defs>
</svg>
