<svg width="200" height="200" viewBox="0 0 200 200" fill="none" xmlns="http://www.w3.org/2000/svg">
<g clip-path="url(#clip0_1462_47189)">
<path d="M101.784 130.557C119.713 130.557 134.246 116.023 134.246 98.0948C134.246 80.1666 119.713 65.6328 101.784 65.6328C83.856 65.6328 69.3223 80.1666 69.3223 98.0948C69.3223 116.023 83.856 130.557 101.784 130.557Z" fill="#A0616A"/>
<path d="M74.916 137.824L81.6829 120.531L116.645 115.268L120.402 153.548L85.0634 154.3L74.916 137.824Z" fill="#A0616A"/>
<path d="M134.564 104.082C134.142 105.77 133.291 109.789 131.961 109.809C130.874 109.825 129.834 92.3898 130.92 89.5059C132.166 86.1929 128.89 82.002 126.422 79.8506C121.984 75.9824 112.133 84.2884 102.117 80.5257C101.851 80.4262 101.904 80.4374 98.7411 79.1755C89.0082 75.2921 88.4965 75.18 87.9389 75.1246C83.2207 74.6578 77.4626 78.5188 75.1113 83.2263C72.6671 88.1197 74.7093 92.3169 72.4107 104.156C72.1429 105.535 71.7223 107.502 71.0605 107.531C69.8506 107.584 68.6693 101.122 68.3599 99.4296C67.0637 92.3387 65.814 85.5022 68.3599 77.8252C68.6377 76.9879 70.3492 73.8799 73.761 67.6981C78.6762 58.7928 81.1483 54.3233 81.8627 53.5202C86.9862 47.7585 96.3122 42.5024 104.142 44.7434C108.1 45.8761 107.39 47.6972 112.244 49.4694C120.894 52.6275 128.411 48.7652 129.797 51.4948C130.532 52.9407 128.477 54.1327 128.447 56.8959C128.396 61.637 134.392 63.0071 137.899 67.6981C139.784 70.22 143.011 70.2471 134.564 104.082Z" fill="#2F2E41"/>
<path d="M174.782 166.396C173.474 167.865 172.117 169.305 170.711 170.711C151.824 189.598 126.711 200.001 100 200.001C76.914 200.001 55.0231 192.23 37.3125 177.926C37.3012 177.918 37.2937 177.91 37.2825 177.899C34.9329 176.005 32.6584 173.99 30.4629 171.862C30.5042 171.531 30.5494 171.204 30.5982 170.88C30.9065 168.7 31.2486 166.621 31.632 164.707C34.7711 149.023 76.0757 132.557 77.1508 132.128C77.1659 132.125 77.1734 132.121 77.1734 132.121C77.1734 132.121 82.4893 151.715 105.267 151.463C120.782 151.294 117.775 132.121 117.775 132.121C117.775 132.121 117.963 132.159 118.316 132.234C122.797 133.185 153.91 140.02 166.185 149.347C169.925 152.189 172.609 158.242 174.538 165.459C174.621 165.768 174.7 166.083 174.782 166.396Z" fill="#4E9F8A"/>
<path d="M170.711 29.2895C151.823 10.4026 126.711 0 100 0C73.2895 0 48.1767 10.4026 29.2894 29.2895C10.4023 48.1768 0 73.2896 0 100C0 124.38 8.66543 147.429 24.5451 165.628C26.0602 167.368 27.6429 169.064 29.2894 170.711C29.6767 171.098 30.0677 171.485 30.4624 171.861C32.6579 173.989 34.9324 176.004 37.282 177.898C37.2932 177.91 37.3007 177.918 37.312 177.925C55.0226 192.229 76.9136 200 100 200C126.711 200 151.823 189.598 170.711 170.711C172.117 169.305 173.474 167.865 174.782 166.395C191.086 148.079 200 124.726 200 100C200 73.2896 189.598 48.1768 170.711 29.2895ZM174.538 165.459C171.579 168.823 168.398 171.989 165.015 174.925C158.598 180.508 151.455 185.274 143.752 189.072C141.049 190.406 138.278 191.62 135.444 192.707C124.432 196.933 112.481 199.248 100 199.248C87.9549 199.248 76.406 197.09 65.7181 193.143C61.3308 191.526 57.0903 189.605 53.0188 187.406C52.421 187.083 51.8271 186.756 51.2369 186.421C48.1316 184.662 45.1278 182.741 42.2444 180.666C38.1128 177.703 34.2181 174.429 30.5977 170.88C28.5677 168.891 26.6279 166.82 24.7745 164.666C9.8083 147.282 0.75188 124.681 0.75188 100C0.75188 45.2747 45.2744 0.75188 100 0.75188C154.726 0.75188 199.248 45.2747 199.248 100C199.248 125.06 189.914 147.977 174.538 165.459Z" fill="#3F3D56"/>
<path d="M159.514 181.421C160.587 180.345 162.328 180.344 163.401 181.418L165.895 183.911C166.958 184.975 166.968 186.698 165.917 187.777L156.686 197.249C155.979 197.973 155.01 198.382 153.999 198.382H151.247C149.969 198.382 148.949 197.317 149.002 196.039L149.12 193.229C149.16 192.29 149.55 191.398 150.215 190.733L159.514 181.421ZM166.515 196.808C166.929 196.808 167.265 197.144 167.265 197.558C167.265 197.973 166.929 198.308 166.515 198.308H160.394C159.98 198.308 159.644 197.973 159.644 197.558C159.644 197.144 159.98 196.808 160.394 196.808H166.515ZM151.275 191.794C150.877 192.193 150.642 192.727 150.618 193.291L150.501 196.1C150.483 196.526 150.823 196.881 151.249 196.881H154.001C154.608 196.881 155.189 196.635 155.612 196.201L162.144 189.5L157.851 185.207L151.275 191.794ZM162.341 182.479C161.853 181.991 161.061 181.991 160.573 182.48L158.91 184.144L163.19 188.424L164.844 186.73C165.322 186.24 165.318 185.456 164.834 184.972L162.341 182.479Z" fill="black"/>
</g>
<defs>
<clipPath id="clip0_1462_47189">
<rect width="200" height="200" fill="white"/>
</clipPath>
</defs>
</svg>
