<svg width="300" height="223" viewBox="0 0 300 223" fill="none" xmlns="http://www.w3.org/2000/svg">
<g clip-path="url(#clip0_1342_49225)">
<path d="M117.38 33.6992H111.943L111.326 39.8325H117.38V33.6992Z" fill="#ED9DA0"/>
<path d="M115.953 24.0903C112.787 23.8683 110.04 26.2547 109.818 29.4206C109.596 32.5865 111.983 35.3329 115.149 35.555C118.314 35.777 121.061 33.3906 121.283 30.2247C121.505 27.0589 119.119 24.3124 115.953 24.0903Z" fill="#ED9DA0"/>
<path d="M113.596 21.2478C113.573 21.1889 113.533 21.1382 113.481 21.1022C113.429 21.0662 113.368 21.0465 113.305 21.0458C115.94 21.0727 118.682 21.5733 120.777 23.173C121.258 23.5937 121.773 23.9736 122.317 24.3085C122.344 24.3227 122.366 24.3435 122.382 24.3688C122.398 24.3942 122.407 24.4233 122.409 24.4533C122.41 24.4834 122.404 24.5132 122.391 24.5401C122.377 24.5669 122.357 24.5898 122.332 24.6066L122.265 24.6519C122.238 24.6697 122.217 24.6946 122.203 24.7238C122.189 24.753 122.184 24.7853 122.188 24.8173C122.192 24.8493 122.204 24.8797 122.224 24.9051C122.244 24.9304 122.27 24.9498 122.3 24.9611C122.331 24.9731 122.358 24.9936 122.378 25.0204C122.398 25.0472 122.41 25.0791 122.412 25.1123C122.414 25.1455 122.407 25.1787 122.391 25.2079C122.375 25.2372 122.351 25.2613 122.322 25.2773L121.814 25.5582C121.788 25.5723 121.767 25.5924 121.751 25.617C121.735 25.6415 121.726 25.6695 121.724 25.6986C121.722 25.7276 121.727 25.7567 121.739 25.7831C121.751 25.8096 121.77 25.8326 121.793 25.8501C121.833 25.8785 121.874 25.9035 121.918 25.925C121.945 25.9375 121.969 25.9568 121.986 25.981C122.004 26.0052 122.015 26.0336 122.018 26.0633C122.022 26.093 122.018 26.1232 122.006 26.1508C121.995 26.1784 121.976 26.2026 121.952 26.221C121.728 26.394 121.55 26.6193 121.433 26.8771C121.262 27.298 121.157 27.7427 121.12 28.1955C120.998 27.5324 120.314 27.099 119.645 27.0126C118.971 26.981 118.295 27.0494 117.641 27.2157C116.193 27.4618 114.71 27.415 113.281 27.0779C113.703 28.0978 113.206 29.2442 112.718 30.2341L111.409 29.5611C109.63 28.3836 110.611 32.9004 111.26 33.5562C109.809 33.9458 106.489 28.2434 107.825 26.2625C108.52 25.2318 108.177 23.816 109.466 22.8812C110.109 22.2946 111.28 22.6576 111.925 22.178C112.179 21.9894 111.852 21.4138 112.19 21.3168C112.656 21.2595 113.126 21.2364 113.596 21.2478Z" fill="#2F2E41"/>
<path d="M118.856 36.7497L120.129 38.8195L128.125 41.7322L127.469 61.5983L126.755 63.7007L127.342 65.442L126.316 66.8298C127.51 67.7661 127.726 68.8183 127.193 69.9599L123.68 71.0282C123.68 71.0282 103.951 74.1857 105.409 70.9931C107.001 67.5045 106.771 57.5471 102.363 52.527C98.6209 48.2643 100.842 42.2375 100.842 42.2375L108.798 39.2388L111.663 37.2542L118.856 36.7497Z" fill="#3F3D56"/>
<path d="M82.7752 54.2956C82.9945 54.6095 83.28 54.8716 83.6115 55.0633C83.943 55.255 84.3125 55.3717 84.694 55.4053C85.0754 55.4388 85.4596 55.3883 85.8195 55.2573C86.1794 55.1264 86.5061 54.9181 86.7768 54.6473L95.1596 58.7032L94.5224 53.9066L86.6597 50.7902C86.1741 50.3658 85.5498 50.1342 84.9049 50.1394C84.26 50.1445 83.6394 50.386 83.1606 50.8181C82.6819 51.2501 82.3782 51.8428 82.3072 52.4838C82.2362 53.1248 82.4027 53.7695 82.7753 54.296L82.7752 54.2956Z" fill="#ED9DA0"/>
<path d="M107.717 39.8671C106.993 44.6107 105.06 55.7034 102.483 58.1756C102.321 58.3517 102.121 58.4891 101.899 58.5779C92.4426 61.5966 88.9405 55.8343 88.9405 55.8343C88.9405 55.8343 91.4305 54.3972 91.3237 51.9365L96.6371 53.1849L100.453 42.667L101.077 41.9984L101.08 41.9944L107.717 39.8671Z" fill="#3F3D56"/>
<path d="M127.319 138.354C129.467 138.629 131.695 138.804 133.751 138.137C134.075 138.037 134.431 137.813 134.399 137.489C134.376 137.372 134.326 137.261 134.253 137.165C133.478 136.003 132.827 134.762 132.31 133.464C132.29 133.396 132.247 133.337 132.19 133.296C132.123 133.271 132.05 133.271 131.983 133.296C131.034 133.545 130.215 134.158 129.272 134.42C128.792 134.552 128.29 134.589 127.796 134.53C127.368 134.482 126.783 134.129 126.396 134.174C126.617 135.589 127.154 136.91 127.319 138.354Z" fill="#4E9F8A"/>
<path d="M167.923 134.768C169.338 133.796 170.805 132.776 171.641 131.277C171.7 131.187 171.735 131.084 171.741 130.977C171.727 130.871 171.686 130.771 171.621 130.685C170.826 129.42 169.801 128.314 168.6 127.424C167.973 127.867 167.407 128.389 166.916 128.978C166.56 129.353 165.575 129.95 165.566 130.523C165.566 130.847 165.941 131.223 166.117 131.495C166.354 131.845 166.577 132.201 166.792 132.564C166.913 132.742 168.036 134.698 167.923 134.768Z" fill="#4E9F8A"/>
<path d="M135.733 142.691C135.758 143.024 135.666 143.356 135.474 143.63C135.322 143.782 135.135 143.893 134.93 143.953C131.928 145.029 128.453 143.688 125.457 144.747C124.842 144.964 124.258 145.278 123.641 145.486C122.903 145.707 122.143 145.842 121.374 145.887C120.315 145.988 119.249 146.052 118.187 146.081C117.38 146.138 116.569 146.067 115.784 145.871C115.392 145.77 115.025 145.588 114.708 145.336C114.39 145.084 114.129 144.768 113.942 144.409C113.779 144.087 113.747 143.714 113.851 143.369C113.898 143.251 113.965 143.141 114.049 143.045C114.252 142.817 114.49 142.624 114.755 142.472L115.859 141.76C116.377 141.394 116.94 141.095 117.533 140.872C117.97 140.73 118.433 140.668 118.877 140.548C120.428 140.095 121.614 138.865 122.715 137.683L124.217 136.08C124.358 135.903 124.536 135.761 124.739 135.662C124.947 135.593 125.169 135.572 125.386 135.601C126.846 135.705 128.256 136.177 129.483 136.974C129.797 137.209 130.137 137.409 130.495 137.57C131.376 137.913 132.506 137.654 133.319 137.22C133.705 137.013 133.619 136.896 133.782 136.527C133.945 136.158 134.339 135.921 134.682 136.258C134.785 136.375 134.859 136.515 134.895 136.666C135.219 137.735 135.096 138.885 135.096 140.005C135.087 140.18 135.109 140.356 135.161 140.523C135.244 140.692 135.343 140.853 135.456 141.003C135.479 141.042 135.5 141.084 135.517 141.126C135.716 141.622 135.79 142.159 135.734 142.69L135.733 142.691Z" fill="#514E7F"/>
<path d="M135.734 142.692C135.759 143.026 135.668 143.358 135.475 143.631C135.324 143.783 135.137 143.894 134.931 143.955C131.929 145.03 128.454 143.689 125.459 144.749C124.844 144.966 124.259 145.28 123.642 145.487C122.905 145.709 122.144 145.843 121.375 145.888C120.316 145.989 119.251 146.054 118.189 146.083C117.382 146.14 116.571 146.069 115.786 145.872C115.393 145.771 115.027 145.589 114.709 145.337C114.392 145.085 114.131 144.769 113.943 144.41C113.78 144.089 113.747 143.717 113.85 143.371C113.897 143.253 113.964 143.143 114.048 143.047C114.222 143.413 114.348 143.899 114.46 144.074C114.609 144.333 114.811 144.557 115.054 144.731C115.296 144.906 115.573 145.027 115.865 145.086C116.304 145.113 116.743 145.057 117.161 144.921C119.881 144.246 122.773 144.237 125.386 143.217C126.283 142.864 127.138 142.395 128.08 142.181C129.022 141.967 130.023 142.025 130.995 141.944C132.53 141.821 134.016 141.358 135.529 141.115C135.724 141.616 135.794 142.156 135.733 142.69L135.734 142.692Z" fill="#464353"/>
<path d="M174.799 134.572C174.656 135.712 173.934 136.693 173.141 137.526C172.347 138.358 171.45 139.106 170.819 140.065C170.042 141.253 169.692 142.726 168.682 143.73C168.294 144.096 167.858 144.406 167.387 144.653C166.858 144.965 166.3 145.222 165.719 145.421C164.21 145.903 162.584 145.793 161.007 145.676C160.495 145.671 159.988 145.574 159.511 145.388C159.294 145.278 159.086 145.15 158.889 145.006C158.494 144.763 158.161 144.43 157.917 144.034C157.798 143.82 157.764 143.567 157.823 143.329C157.913 143.066 158.068 142.83 158.273 142.642C158.628 142.273 159.009 141.93 159.413 141.616C159.968 141.258 160.468 140.822 160.898 140.32C161.161 139.924 161.355 139.486 161.471 139.025C161.7 138.217 161.84 137.386 161.889 136.547C161.887 135.99 161.944 135.434 162.06 134.889C162.3 134.034 162.935 133.27 162.863 132.386C162.834 132.259 162.846 132.127 162.895 132.007C162.971 131.913 163.076 131.848 163.193 131.822C163.688 131.625 164.21 131.504 164.741 131.463C165.008 131.444 165.275 131.485 165.523 131.582C165.772 131.68 165.996 131.831 166.179 132.025C166.399 132.29 166.545 132.673 166.869 132.775C167.03 132.819 167.198 132.825 167.361 132.794C168.158 132.713 169 132.613 169.628 132.098C169.918 131.838 170.152 131.52 170.313 131.165C170.475 130.811 170.561 130.426 170.567 130.036C170.567 129.742 170.434 129.434 170.891 129.389C171.234 129.343 171.506 129.712 171.681 129.939C172.313 130.785 172.96 131.669 173.197 132.698C173.289 132.663 173.387 132.644 173.485 132.643C173.687 132.641 173.887 132.688 174.067 132.78C174.246 132.872 174.401 133.006 174.518 133.171C174.776 133.589 174.876 134.085 174.8 134.57L174.799 134.572Z" fill="#514E7F"/>
<path d="M174.801 134.573C174.659 135.713 173.936 136.694 173.143 137.526C172.35 138.359 171.453 139.107 170.821 140.065C170.044 141.254 169.694 142.727 168.684 143.731C168.297 144.096 167.861 144.407 167.389 144.654C166.861 144.966 166.302 145.223 165.721 145.421C164.212 145.904 162.587 145.794 161.01 145.677C160.498 145.672 159.991 145.574 159.514 145.389C159.296 145.278 159.088 145.151 158.892 145.007C158.496 144.763 158.163 144.43 157.92 144.035C158.224 143.889 158.555 143.81 158.892 143.802C159.591 143.839 160.103 144.501 160.773 144.705C161.728 144.994 162.68 144.32 163.649 144.09C164.28 143.94 164.944 143.98 165.569 143.766C166.09 143.565 166.571 143.273 166.991 142.904C167.566 142.494 168.077 142.001 168.51 141.442C168.869 140.883 169.167 140.287 169.4 139.664C169.911 138.471 170.513 137.319 171.2 136.218C171.301 136.044 171.424 135.883 171.566 135.739C171.723 135.609 171.889 135.489 172.061 135.379C172.709 134.892 172.978 134.084 173.204 133.294C173.266 133.054 173.351 132.82 173.46 132.598C173.662 132.596 173.861 132.643 174.041 132.735C174.221 132.827 174.376 132.961 174.493 133.126C174.772 133.553 174.882 134.069 174.801 134.573Z" fill="#464353"/>
<path d="M122.008 82.7435C122.435 84.3626 121.817 86.066 121.312 87.6694C120.551 90.084 120.033 92.5682 119.764 95.0855C119.731 95.7258 119.602 96.3576 119.382 96.9598C119.143 97.5008 118.734 97.9574 118.456 98.4721C117.691 99.8257 117.711 101.477 117.876 103.025C117.987 104.045 118.151 105.062 118.356 106.066C118.605 107.294 118.913 108.578 118.553 109.774C119.156 109.641 119.565 110.422 119.525 111.034C119.485 111.646 119.288 112.33 119.583 112.857C120.328 113.13 120.333 114.153 120.312 114.946C120.325 116.322 120.498 117.692 120.83 119.027C121.957 124.446 123.153 129.85 124.419 135.238C127.155 136.087 130.351 136.971 132.962 135.796C133.214 135.711 133.443 135.568 133.631 135.38C133.818 135.191 133.96 134.961 134.043 134.708C134.072 134.426 134.036 134.14 133.94 133.873L132.703 129.371C132.403 128.284 132.1 127.16 132.259 126.042C132.379 125.21 132.741 124.313 132.334 123.578C132.195 123.325 131.974 123.128 131.812 122.888C131.164 121.939 131.504 120.669 131.557 119.52C131.577 119.262 131.559 119.002 131.505 118.749C131.416 118.454 131.292 118.17 131.136 117.904C130.113 115.919 129.623 113.703 129.711 111.472C129.75 111.188 129.711 110.898 129.599 110.634C129.52 110.525 129.449 110.41 129.388 110.29C129.34 110.082 129.363 109.864 129.456 109.672C129.085 109.39 128.75 109.064 128.458 108.7C128.638 108.588 128.79 108.437 128.903 108.258C129.015 108.079 129.086 107.877 129.109 107.667C129.132 107.457 129.107 107.244 129.036 107.045C128.964 106.846 128.849 106.665 128.698 106.517C128.83 106.491 128.952 106.428 129.05 106.336C129.149 106.244 129.22 106.127 129.256 105.997C129.292 105.867 129.291 105.73 129.254 105.601C129.216 105.471 129.144 105.355 129.044 105.264C128.886 105.154 128.675 105.105 128.562 104.94C128.387 104.701 128.529 104.367 128.672 104.111L129.426 102.747C129.989 101.735 130.116 100.481 130.722 99.509C131.541 98.0635 132.209 96.5378 132.716 94.9558L134.896 88.9421L136.363 90.2166C136.851 90.5899 137.261 91.0567 137.568 91.5898C137.776 92.1166 137.908 92.6705 137.959 93.2347C138.497 96.4991 140.55 99.3294 141.311 102.545C141.479 103.261 141.593 104.012 142.004 104.624C142.151 104.812 142.284 105.011 142.399 105.22C142.507 105.539 142.562 105.872 142.565 106.208C142.633 106.866 142.841 107.501 143.176 108.071C143.512 108.641 143.966 109.132 144.508 109.511C145.23 110.007 146.127 110.347 146.519 111.13C146.597 111.373 146.706 111.605 146.843 111.82C147.192 112.241 147.947 112.29 148.096 112.818C148.18 113.112 148.025 113.465 148.19 113.725C148.284 113.844 148.408 113.937 148.549 113.993L150.657 115.046C153.015 116.225 154.219 118.932 155.959 120.904C156.559 121.547 157.091 122.251 157.546 123.004C158.295 124.348 158.644 126.035 159.913 126.89C160.254 127.066 160.564 127.296 160.832 127.57C161.231 128.095 161.085 128.83 161.12 129.491C161.156 130.151 161.661 130.938 162.29 130.737C162.07 131.537 162.07 132.382 162.29 133.182C165.047 133.04 167.676 131.974 169.754 130.157C170.369 129.62 170.962 128.933 170.969 128.117C170.978 127.976 170.947 127.836 170.878 127.713C170.754 127.553 170.589 127.429 170.402 127.353C168.43 126.284 167.837 123.807 166.841 121.796C165.969 120.021 164.681 118.493 163.602 116.844C161.258 113.298 159.658 109.007 156.112 106.666C155.331 106.151 154.425 105.694 154.033 104.842C153.816 104.366 153.79 103.822 153.618 103.33C153.446 102.838 153.035 102.358 152.511 102.358C152.802 101.646 152.744 100.778 152.763 100.007C152.783 99.6656 152.744 99.3232 152.647 98.995C152.512 98.6415 152.337 98.3046 152.125 97.9911C151.2 96.4246 150.738 94.6281 150.791 92.8096C150.817 91.8724 150.982 90.9086 150.701 90.0149C150.558 89.5651 150.309 89.1527 150.138 88.7194C149.879 87.9326 149.743 87.1109 149.733 86.2827L149.539 83.1713C149.51 82.1348 149.375 81.104 149.138 80.0947C148.49 77.6786 147.842 67.5586 145.624 66.4186C143.406 65.2786 139.594 73.067 137.097 73.2192C135.993 73.2651 134.901 73.4757 133.859 73.8441C132.197 74.466 130.805 75.6251 129.448 76.7587L124.856 80.6158C123.883 81.4157 123.08 82.1801 122.008 82.7435Z" fill="#464353"/>
<path d="M194.451 91.1881V87.1669C194.451 84.206 193.274 81.3666 191.18 79.2733C189.086 77.1799 186.246 76.0039 183.285 76.0039H24.4433C21.4824 76.0039 18.6428 77.1799 16.5488 79.2733C14.4549 81.3666 13.2781 84.206 13.2773 87.1669V94.583L194.451 91.1881Z" fill="#33323D"/>
<path d="M68.6318 71.2876C68.6318 71.2876 68.1786 99.4165 73.1655 108.672C78.1525 117.928 80.29 158.193 80.29 158.193C80.29 158.193 132.571 163.601 169.004 151.716C205.436 139.831 282.958 134.968 282.958 134.968L269.894 46.9186C269.894 46.9186 205.355 42.78 168.641 60.2899C131.927 77.7998 68.6318 71.2876 68.6318 71.2876Z" fill="#8DD070"/>
<path d="M68.6318 71.2876C68.6318 71.2876 68.1786 99.4165 73.1655 108.672C78.1525 117.928 80.29 158.193 80.29 158.193C80.29 158.193 132.571 163.601 169.004 151.716C205.436 139.831 282.958 134.968 282.958 134.968L269.894 46.9186C269.894 46.9186 205.355 42.78 168.641 60.2899C131.927 77.7998 68.6318 71.2876 68.6318 71.2876Z" fill="#D6D6E3"/>
<path d="M80.2046 81.5625C80.2046 81.5625 78.5691 104.772 82.6724 112.19C86.7758 119.607 86.9666 152.713 86.9666 152.713C86.9666 152.713 134.018 154.896 167.487 143.503C200.956 132.11 271.289 124.722 271.289 124.722L263.296 52.7119C263.296 52.7119 205.101 52.1121 171.136 68.1495C137.172 84.1869 80.2046 81.5625 80.2046 81.5625Z" fill="#E6E6E6"/>
<path opacity="0.1" d="M170.618 130.319C177.312 129.485 181.289 117.169 179.501 102.811C177.712 88.4522 170.836 77.4884 164.141 78.3222C157.447 79.1561 153.469 91.4718 155.258 105.83C157.046 120.189 163.923 131.152 170.618 130.319Z" fill="black"/>
<path d="M49.4922 84.954C49.4922 84.954 57.6888 111.865 65.2664 119.145C72.8441 126.425 87.2359 164.093 87.2359 164.093C87.2359 164.093 138.659 153.195 169.686 130.694C200.714 108.193 273.012 79.7867 273.012 79.7867L233.565 0C233.565 0 170.869 15.8684 141.302 43.7997C111.736 71.7311 49.4922 84.954 49.4922 84.954Z" fill="#8DD070"/>
<path d="M49.4922 84.954C49.4922 84.954 57.6888 111.865 65.2664 119.145C72.8441 126.425 87.2359 164.093 87.2359 164.093C87.2359 164.093 138.659 153.195 169.686 130.694C200.714 108.193 273.012 79.7867 273.012 79.7867L233.565 0C233.565 0 170.869 15.8684 141.302 43.7997C111.736 71.7311 49.4922 84.954 49.4922 84.954Z" fill="#D6D6E3"/>
<path d="M63.6465 91.1838C63.6465 91.1838 69.2133 113.779 75.3954 119.575C81.5774 125.372 91.9119 156.817 91.9119 156.817C91.9119 156.817 137.36 144.453 165.719 123.338C194.078 102.223 258.756 73.6379 258.756 73.6379L229.056 7.53516C229.056 7.53516 173.488 24.8186 146.081 50.506C118.674 76.1934 63.6465 91.1838 63.6465 91.1838Z" fill="#E6E6E6"/>
<path d="M164.672 109.842C170.787 106.994 170.793 94.052 164.685 80.9351C158.577 67.8182 148.668 59.4936 142.552 62.3415C136.436 65.1894 136.43 78.1314 142.538 91.2483C148.646 104.365 158.556 112.69 164.672 109.842Z" fill="#D6D6E3"/>
<path d="M198.74 96.5574V208.284C198.739 210.846 197.721 213.303 195.909 215.115C194.097 216.926 191.639 217.944 189.077 217.944H22.9442C20.3827 217.943 17.9264 216.925 16.1154 215.113C14.3045 213.302 13.2871 210.845 13.2871 208.284V85.291C18.048 87.0559 18.048 87.0559 22.9442 86.9101H189.076C191.636 86.9098 194.092 87.9256 195.904 89.7344C197.716 91.5432 198.736 93.9971 198.74 96.5574Z" fill="#4E9F8A"/>
<path d="M198.738 136.91V172.646H164.086C159.348 172.646 154.804 170.764 151.453 167.414C148.103 164.063 146.221 159.519 146.221 154.781C146.221 150.042 148.103 145.498 151.453 142.148C154.804 138.797 159.348 136.915 164.086 136.915L198.738 136.91Z" fill="#33323D"/>
<path d="M166.222 161.75C170.069 161.75 173.188 158.631 173.188 154.784C173.188 150.937 170.069 147.818 166.222 147.818C162.375 147.818 159.256 150.937 159.256 154.784C159.256 158.631 162.375 161.75 166.222 161.75Z" fill="#4E9F8A"/>
<path d="M131.238 81.5589C131.495 81.2747 131.686 80.9377 131.799 80.5716C131.911 80.2054 131.942 79.819 131.889 79.4397C131.836 79.0603 131.701 78.6971 131.492 78.3757C131.284 78.0543 131.007 77.7826 130.683 77.5795L132.756 68.5016L128.225 70.1992L126.95 78.5598C126.646 79.1281 126.561 79.7882 126.71 80.4152C126.86 81.0422 127.234 81.5926 127.763 81.9622C128.291 82.3317 128.936 82.4948 129.576 82.4206C130.217 82.3463 130.808 82.0399 131.237 81.5593L131.238 81.5589Z" fill="#ED9DA0"/>
<path d="M125.938 41.3867L128.112 41.7339C128.112 41.7339 138.153 58.3051 136.254 61.7299C134.354 65.1547 132.507 76.1827 132.507 76.1827C132.507 76.1827 128.595 75.6863 126.983 73.8245L128.78 60.7732L125.238 50.1582L125.938 41.3867Z" fill="#3F3D56"/>
<path d="M299.049 218.744H0.949926C0.425104 218.744 0 218.565 0 218.344C0 218.123 0.42398 217.943 0.948427 217.943H299.047C299.572 217.943 299.997 218.123 299.997 218.344C299.997 218.565 299.574 218.744 299.049 218.744Z" fill="#E6E6E6"/>
<path d="M264.515 216.927C264.523 216.929 264.53 216.933 264.536 216.937C264.292 216.41 264.065 215.877 263.857 215.335C263.832 215.272 263.81 215.206 263.786 215.143C263.787 215.159 263.787 215.175 263.79 215.194C263.796 215.297 263.804 215.399 263.812 215.504C263.825 215.666 263.835 215.83 263.837 215.994C263.839 216.045 263.839 216.094 263.839 216.143C263.838 216.343 263.818 216.542 263.777 216.738H263.786C263.837 216.742 263.884 216.744 263.933 216.752C264.127 216.778 264.315 216.832 264.493 216.912C264.501 216.916 264.509 216.921 264.515 216.927Z" fill="url(#paint0_linear_1342_49225)"/>
<path d="M260.631 136.381C260.609 137.237 260.319 138.068 260.274 138.921C262.795 139.047 265.283 137.823 267.78 138.198C267.082 137.748 266.709 136.933 266.489 136.131C266.209 135.097 266.126 134.02 266.243 132.955C266.249 132.896 266.26 132.837 266.274 132.779C266.367 132.361 266.607 131.767 266.542 131.438C266.457 131.002 266.047 131.089 265.677 131.114C264.548 131.2 263.425 131.345 262.311 131.548C262.021 131.598 259.195 132.304 259.152 132.23C259.648 133.025 260.058 133.87 260.376 134.751C260.552 135.276 260.638 135.827 260.631 136.381Z" fill="#ED9DA0"/>
<path d="M235.694 133.737C235.911 134.033 236.17 134.294 236.464 134.513C236.655 134.67 236.851 134.83 237.057 134.974C237.423 135.257 237.859 135.434 238.318 135.487C238.917 135.528 240.192 135.175 240.567 134.662C240.724 134.404 240.799 134.103 240.782 133.8C240.775 133.39 240.706 132.984 240.575 132.596C240.341 131.964 240.013 131.371 239.602 130.836C239.2 130.208 238.666 129.675 238.039 129.273C237.824 129.157 236.952 129.843 237.179 130.438C236.989 130.443 236.805 130.509 236.655 130.626C236.504 130.743 236.395 130.904 236.342 131.087C236.333 131.184 236.294 131.276 236.229 131.349C236.126 131.433 235.964 131.387 235.847 131.448C235.638 131.561 235.729 131.87 235.707 132.105C235.656 132.309 235.584 132.507 235.492 132.697C235.448 132.874 235.443 133.06 235.478 133.24C235.513 133.42 235.587 133.59 235.695 133.738L235.694 133.737Z" fill="#ED9DA0"/>
<path d="M270.456 219.591C270.343 219.513 270.214 219.461 270.078 219.441C269.943 219.42 269.804 219.431 269.673 219.473C268.218 219.703 266.748 219.822 265.274 219.829C265.09 218.929 265.625 218.052 265.799 217.15C265.824 216.917 265.883 216.689 265.974 216.472C266.1 216.286 266.264 216.13 266.457 216.013C266.649 215.897 266.865 215.824 267.088 215.799C267.881 215.632 269.12 215.337 269.562 216.137C270.093 217.1 270.263 218.521 270.456 219.591Z" fill="#ED9DA0"/>
<path d="M254.337 216.188C254.964 216.555 255.669 216.77 256.395 216.815C257.119 216.858 257.832 217.021 258.504 217.297C259.066 217.574 259.539 218.029 260.133 218.228C260.686 218.38 261.268 218.389 261.826 218.255C262.494 218.129 263.206 217.886 263.567 217.309C263.888 216.796 263.854 216.147 263.809 215.541C263.758 214.859 263.707 214.176 263.657 213.492C263.66 213.318 263.616 213.147 263.53 212.996C263.047 212.292 261.873 213.291 261.243 213.289C260.203 213.23 259.217 212.805 258.46 212.09C258.397 212.024 258.324 211.969 258.243 211.927C257.96 211.799 257.676 212.035 257.423 212.24C257.395 212.264 257.367 212.288 257.338 212.309C256.757 212.77 255.975 212.864 255.257 213.051C254.539 213.238 253.767 213.613 253.545 214.323C253.53 214.368 253.519 214.413 253.51 214.46C253.471 214.796 253.528 215.137 253.674 215.443C253.82 215.749 254.05 216.007 254.337 216.188Z" fill="#090814"/>
<path d="M270.184 171.739C270.649 174.024 270.208 176.399 268.953 178.364C268.579 178.872 268.245 179.408 267.953 179.968C267.784 180.379 267.654 180.804 267.563 181.239L266.454 185.827C266.154 187.064 265.854 188.328 265.943 189.599C266.006 190.484 266.229 191.48 265.683 192.181C265.552 192.314 265.44 192.467 265.353 192.633C265.299 192.828 265.297 193.034 265.348 193.229C265.91 196.56 266.324 200.043 265.31 203.265C264.392 206.186 264.34 209.422 263.559 212.382C263.496 212.758 263.328 213.109 263.074 213.394C262.866 213.57 262.615 213.689 262.347 213.74C261.197 214.014 259.982 213.693 258.909 213.196C258.155 212.846 257.343 212.233 257.41 211.405C257.488 211.017 257.629 210.644 257.827 210.302C258.077 209.567 258.216 208.799 258.239 208.023C258.447 206.087 259.044 204.218 259.495 202.325C259.946 200.432 260.252 198.452 259.87 196.543C259.089 192.594 257.841 188.752 256.15 185.099C256.076 184.904 255.959 184.729 255.809 184.586C255.639 184.49 255.478 184.38 255.327 184.257C255.21 184.076 255.134 183.871 255.106 183.657C254.938 183.053 254.44 182.608 254.106 182.076C253.262 180.736 253.53 179.019 253.561 177.435C253.591 175.895 253.369 174.342 253.622 172.824C253.874 171.307 254.744 169.752 256.208 169.276C256.949 169.085 257.722 169.049 258.477 169.169C262.502 169.563 266.409 170.293 270.184 171.739Z" fill="#090814"/>
<path d="M253.801 181.393C253.813 181.992 253.88 182.587 254.003 183.173C254.712 187.149 255.468 191.116 256.269 195.075C256.34 195.418 256.409 195.762 256.501 196.099C256.801 197.201 257.324 198.229 258.038 199.12C261.38 203.285 261.669 209.334 263.482 214.358C263.604 214.698 263.727 215.038 263.857 215.374C264.184 216.225 264.558 217.058 264.975 217.869C265.024 217.987 265.103 218.09 265.205 218.167C265.318 218.224 265.444 218.248 265.569 218.238C267.201 218.247 268.812 217.88 270.279 217.167C270.488 217.089 270.665 216.943 270.779 216.751C270.836 216.598 270.854 216.434 270.833 216.272C270.782 215.276 270.72 214.245 270.246 213.369C269.93 212.846 269.539 212.372 269.084 211.963C268.979 208.832 268.598 205.717 267.947 202.653C267.594 201.092 267.16 199.515 266.252 198.196C265.584 197.221 264.625 196.26 264.743 195.084C264.795 194.568 265.011 193.925 264.591 193.622C264.407 193.489 264.136 193.472 264.012 193.282C263.962 193.193 263.934 193.093 263.93 192.99C263.844 192.184 263.895 191.369 264.08 190.58C264.233 190.064 264.353 189.539 264.439 189.008C264.48 188.742 264.466 188.47 264.398 188.208C264.33 187.947 264.21 187.703 264.044 187.49C264.022 186.417 264.052 185.304 264.03 184.233C263.987 183.622 264.038 183.009 264.18 182.414C264.261 182.133 264.385 181.865 264.448 181.578C264.673 180.547 264.11 179.313 264.779 178.496C265.097 178.194 265.457 177.941 265.848 177.743C266.561 177.224 267.078 176.481 267.316 175.632C267.552 174.789 267.691 173.922 267.732 173.047C267.754 172.862 267.756 172.675 267.738 172.489C267.727 172.393 267.702 172.299 267.664 172.21C267.457 171.744 266.9 171.564 266.404 171.444C263.255 170.689 260.026 170.312 256.787 170.32C255.588 169.504 254.913 169.795 254.407 170.66C254.126 171.188 253.899 171.742 253.729 172.315C253.497 173.016 253.483 176.94 253.257 177.644C252.963 178.563 253.813 180.432 253.801 181.393Z" fill="#090814"/>
<path d="M261.765 134.761C264.981 134.761 267.589 132.153 267.589 128.937C267.589 125.721 264.981 123.113 261.765 123.113C258.549 123.113 255.941 125.721 255.941 128.937C255.941 132.153 258.549 134.761 261.765 134.761Z" fill="#ED9DA0"/>
<path d="M258.376 138.471C258.63 138.765 258.971 139.088 259.348 138.994C259.484 138.947 259.611 138.879 259.726 138.791C260.397 138.359 261.221 138.257 262.012 138.138C263.603 137.899 265.175 137.546 266.715 137.082C267.163 136.919 267.632 136.824 268.107 136.799C269.094 136.804 269.969 137.46 270.588 138.229C271.206 138.999 271.645 139.899 272.252 140.677C272.684 141.231 273.199 141.72 273.601 142.296C274.621 143.749 270.49 161.035 270.546 161.326C270.933 164.077 271.136 171.733 270.966 173.144C269.144 172.44 267.235 171.986 265.291 171.794C264.04 171.672 262.765 171.656 261.558 171.305C260.803 171.085 260.088 170.738 259.323 170.563C258.702 170.441 258.071 170.377 257.438 170.371C256.044 170.271 254.644 170.302 253.256 170.465C253.143 170.481 253.008 170.49 252.941 170.399C252.911 170.349 252.896 170.292 252.899 170.234C252.878 169.717 253.001 169.203 253.256 168.752C253.477 168.47 253.619 168.135 253.668 167.78C253.656 167.613 254.016 145.85 254.531 144.921C255.188 143.872 255.678 142.727 255.984 141.527C256.145 140.724 256.14 139.898 256.254 139.088C256.266 138.882 256.338 138.685 256.46 138.519C256.572 138.42 256.705 138.348 256.848 138.305C256.991 138.263 257.141 138.251 257.289 138.272C257.659 138.283 258.026 138.35 258.376 138.471Z" fill="#4E9F8A"/>
<path d="M256.433 147.568C256.108 148.034 255.691 148.428 255.206 148.725C254.603 148.98 253.946 149.081 253.294 149.018C250.611 148.961 247.938 148.667 245.306 148.141C245.006 148.089 241.792 146.093 241.133 145.254C240.349 144.242 238.377 137.733 238.308 137.363C238.187 136.723 237.863 136.14 237.384 135.7C237.282 135.628 237.206 135.526 237.164 135.408C237.151 135.31 237.17 135.211 237.217 135.124C237.369 134.833 237.584 134.58 237.846 134.382C238.109 134.185 238.412 134.05 238.734 133.985C239.378 133.861 240.037 133.835 240.689 133.907C240.906 133.949 241.12 134.005 241.329 134.078C241.846 135.477 245.445 141.959 245.634 141.95C246.149 141.982 247.26 142.17 247.727 141.95C248.256 141.702 249.994 141.692 250.086 141.641C250.296 141.518 252.186 140.7 252.432 140.727C252.276 140.589 255.853 139.689 256.1 139.259C256.187 139.107 256.204 138.9 256.353 138.807C256.454 138.758 256.569 138.745 256.678 138.77C257.02 138.816 257.352 138.917 257.661 139.07C258.165 141.042 257.9 143.091 257.516 145.09C257.376 145.997 257.003 146.852 256.433 147.572L256.433 147.568Z" fill="#4E9F8A"/>
<path d="M259.361 137.01C260.006 136.653 260.713 136.42 261.445 136.324C261.88 136.225 262.327 136.193 262.771 136.229C263.181 136.28 263.575 136.438 263.987 136.461C264.567 136.434 265.139 136.314 265.681 136.106C266.24 135.953 266.886 135.894 267.357 136.232C267.457 136.331 267.584 136.398 267.722 136.426C267.865 136.409 267.998 136.344 268.099 136.241C268.495 135.958 268.976 135.817 269.462 135.843C269.949 135.868 270.412 136.059 270.777 136.382C271.844 137.384 271.724 139.34 272.975 140.099C273.32 140.308 273.762 140.419 273.962 140.769C274.011 140.88 274.068 140.988 274.133 141.091C274.216 141.183 274.318 141.256 274.432 141.305C274.796 141.467 275.141 141.666 275.464 141.898C275.625 142.015 275.761 142.164 275.863 142.335C275.965 142.506 276.031 142.696 276.058 142.893C276.063 143.183 276 143.469 275.876 143.73C275.263 145.232 274.201 146.508 272.835 147.382C271.468 148.255 269.865 148.684 268.244 148.61C267.957 148.625 267.673 148.536 267.445 148.361C267.324 148.225 267.23 148.068 267.165 147.899C266.577 146.666 265.471 145.755 264.77 144.582C264.352 143.883 264.084 143.101 263.648 142.413C262.988 141.37 261.985 140.599 261.003 139.851C260.449 139.429 259.832 138.986 259.136 139.015C258.516 139.042 258.065 139.075 258.292 138.314C258.482 137.766 258.861 137.304 259.361 137.01Z" fill="#4E9F8A"/>
<path opacity="0.05" d="M259.361 137.01C260.006 136.653 260.713 136.42 261.445 136.324C261.88 136.225 262.327 136.193 262.771 136.229C263.181 136.28 263.575 136.438 263.987 136.461C264.567 136.434 265.139 136.314 265.681 136.106C266.24 135.953 266.886 135.894 267.357 136.232C267.457 136.331 267.584 136.398 267.722 136.426C267.865 136.409 267.998 136.344 268.099 136.241C268.495 135.958 268.976 135.817 269.462 135.843C269.949 135.868 270.412 136.059 270.777 136.382C271.844 137.384 271.724 139.34 272.975 140.099C273.32 140.308 273.762 140.419 273.962 140.769C274.011 140.88 274.068 140.988 274.133 141.091C274.216 141.183 274.318 141.256 274.432 141.305C274.796 141.467 275.141 141.666 275.464 141.898C275.625 142.015 275.761 142.164 275.863 142.335C275.965 142.506 276.031 142.696 276.058 142.893C276.063 143.183 276 143.469 275.876 143.73C275.263 145.232 274.201 146.508 272.835 147.382C271.468 148.255 269.865 148.684 268.244 148.61C267.957 148.625 267.673 148.536 267.445 148.361C267.324 148.225 267.23 148.068 267.165 147.899C266.577 146.666 265.471 145.755 264.77 144.582C264.352 143.883 264.084 143.101 263.648 142.413C262.988 141.37 261.985 140.599 261.003 139.851C260.449 139.429 259.832 138.986 259.136 139.015C258.516 139.042 258.065 139.075 258.292 138.314C258.482 137.766 258.861 137.304 259.361 137.01Z" fill="black"/>
<path d="M256.33 221.417C256.781 221.782 257.322 222.02 257.896 222.106C259.181 222.356 260.483 222.517 261.791 222.587C262.215 222.618 262.64 222.651 263.063 222.684C264.305 222.778 265.549 222.874 266.796 222.879C268.335 222.884 269.871 222.751 271.386 222.482C271.447 222.488 271.508 222.479 271.565 222.457C271.621 222.435 271.672 222.4 271.713 222.355C271.754 222.309 271.783 222.255 271.799 222.196C271.815 222.137 271.817 222.076 271.805 222.016C271.778 220.465 270.741 219.259 270.393 217.747C270.248 217.126 269.982 218.18 269.932 218.238C269.817 218.4 269.666 218.534 269.49 218.627C269.314 218.721 269.119 218.772 268.92 218.776C267.639 218.846 266.204 218.067 265.186 217.374C264.968 217.212 264.736 217.069 264.494 216.946C264.316 216.866 264.127 216.812 263.934 216.786C263.275 216.725 262.612 216.859 262.029 217.171C261.263 217.551 260.592 218.097 259.834 218.487C259.219 218.804 258.554 219.014 257.868 219.11C257.175 219.206 256.347 219.251 255.99 219.852C255.99 219.853 255.99 219.853 255.99 219.854C255.99 219.855 255.99 219.856 255.99 219.857C255.869 220.118 255.836 220.412 255.897 220.694C255.959 220.976 256.111 221.23 256.33 221.417Z" fill="#090814"/>
<path opacity="0.1" d="M268.368 129.747C268.245 129.824 268.109 129.875 267.966 129.897C267.786 129.949 267.597 129.962 267.412 129.934C267.226 129.907 267.049 129.839 266.893 129.736L268.368 129.747Z" fill="black"/>
<path d="M256.988 121.645C257.748 121.278 258.605 121.162 259.435 121.313C260.257 121.427 261.111 121.68 261.894 121.424C262.787 121.124 263.473 120.187 264.407 120.263C264.803 120.323 265.175 120.493 265.48 120.753C266.689 121.656 267.601 122.898 268.103 124.321C268.2 124.713 268.372 125.082 268.61 125.409C268.768 125.557 268.919 125.713 269.062 125.877C269.201 126.103 269.282 126.359 269.297 126.624C269.459 128.083 269.084 129.55 268.243 130.753C267.745 131.463 267.096 132.051 266.581 132.762C266.067 133.472 264.473 134.596 264.365 134.133C264.209 133.68 264.117 133.207 264.092 132.728C264.14 131.784 264.686 131.015 264.237 130.184C263.958 129.669 263.304 129.155 262.854 129.524C262.677 129.666 262.599 129.899 262.436 130.054C262.258 130.185 262.037 130.242 261.818 130.211C261.599 130.181 261.401 130.065 261.267 129.89C261.009 129.527 260.897 129.079 260.954 128.637C261.078 126.622 260.579 125.144 258.35 125.215C257.519 125.242 256.594 125.128 256.078 124.375C255.399 123.385 256.058 122.153 256.988 121.645Z" fill="#090814"/>
</g>
<defs>
<linearGradient id="paint0_linear_1342_49225" x1="153.309" y1="216.937" x2="153.309" y2="215.143" gradientUnits="userSpaceOnUse">
<stop stop-color="#808080" stop-opacity="0.251"/>
<stop offset="0.535" stop-color="#808080" stop-opacity="0.122"/>
<stop offset="1" stop-color="#808080" stop-opacity="0.102"/>
</linearGradient>
<clipPath id="clip0_1342_49225">
<rect width="300" height="222.879" fill="white"/>
</clipPath>
</defs>
</svg>
