<svg width="24" height="19" viewBox="0 0 24 19" fill="none" xmlns="http://www.w3.org/2000/svg">
<path d="M6.62877 18.1804C6.33073 18.1804 6.03678 18.1174 5.77022 17.9964C5.50366 17.8753 5.2718 17.6996 5.09304 17.4831L0.384459 11.7834C0.233059 11.6003 0.12288 11.3919 0.0602145 11.1702C-0.00245106 10.9484 -0.0163739 10.7176 0.0192408 10.4909C0.0548556 10.2643 0.13931 10.0462 0.26778 9.8492C0.39625 9.65219 0.566217 9.48008 0.767972 9.34272C0.969727 9.20536 1.19932 9.10542 1.44362 9.04864C1.68793 8.99185 1.94217 8.97932 2.19181 9.01175C2.44145 9.04419 2.68162 9.12097 2.89857 9.23769C3.11552 9.35441 3.30501 9.5088 3.45622 9.69203L6.53674 13.4206L14.4486 2.6465C14.7312 2.26213 15.1703 1.99537 15.6695 1.90486C16.1687 1.81435 16.687 1.9075 17.1105 2.16383C17.534 2.42016 17.8281 2.81869 17.928 3.27181C18.028 3.72492 17.9257 4.19552 17.6435 4.58015L8.22637 17.4042C8.05601 17.6362 7.82689 17.8276 7.55822 17.9626C7.28954 18.0975 6.98914 18.172 6.6822 18.1798C6.66439 18.1801 6.64658 18.1804 6.62877 18.1804Z" fill="#B5ECC9" fill-opacity="0.8"/>
<path d="M12.1171 16.3101C11.819 16.3101 11.5251 16.2471 11.2585 16.126C10.9919 16.005 10.7601 15.8293 10.5813 15.6128L5.87274 9.91307C5.72134 9.72997 5.61116 9.52158 5.5485 9.29981C5.48583 9.07805 5.47191 8.84724 5.50752 8.62059C5.54314 8.39393 5.6276 8.17587 5.75607 7.97886C5.88454 7.78184 6.0545 7.60973 6.25626 7.47237C6.45801 7.33501 6.6876 7.23508 6.9319 7.17829C7.17621 7.1215 7.43045 7.10897 7.6801 7.14141C7.92974 7.17385 8.1699 7.25062 8.38685 7.36734C8.6038 7.48406 8.7933 7.63845 8.94451 7.82168L12.025 11.5503L19.9369 0.776146C20.0768 0.585698 20.2566 0.422121 20.4661 0.294757C20.6756 0.167394 20.9106 0.0787368 21.1579 0.0338476C21.4051 -0.0110415 21.6596 -0.0112838 21.907 0.0331357C22.1543 0.0775551 22.3896 0.165766 22.5993 0.292732C22.8091 0.419697 22.9893 0.582931 23.1296 0.773113C23.2699 0.963296 23.3675 1.1767 23.417 1.40115C23.4664 1.6256 23.4667 1.85668 23.4178 2.08122C23.3688 2.30576 23.2717 2.51935 23.1318 2.7098L13.7147 15.5339C13.5443 15.7658 13.3152 15.9573 13.0465 16.0922C12.7778 16.2272 12.4774 16.3017 12.1705 16.3095C12.1527 16.3098 12.1349 16.3101 12.1171 16.3101Z" fill="#22C55E"/>
</svg>
