<svg width="16" height="16" viewBox="0 0 16 16" fill="none" xmlns="http://www.w3.org/2000/svg">
<path d="M8 2.16602C11.5899 2.16602 14.5 5.07616 14.5 8.66602C14.5 12.2559 11.5899 15.166 8 15.166C4.41015 15.166 1.5 12.2559 1.5 8.66602C1.5 5.07616 4.41015 2.16602 8 2.16602ZM8 5.49902C7.72397 5.49902 7.50018 5.72303 7.5 5.99902V8.4873C7.5 8.76587 7.63935 9.0261 7.87109 9.18066L9.72266 10.415C9.95242 10.5682 10.2628 10.5061 10.416 10.2764C10.569 10.0466 10.507 9.73613 10.2773 9.58301L8.5 8.39746V5.99902C8.49982 5.72303 8.27603 5.49902 8 5.49902Z" fill="#FFFEFE"/>
<path d="M11.333 1.33301L13.9997 3.33301" stroke="#FFFEFE" stroke-linecap="round"/>
<path d="M8 1.33301L8 2.66634" stroke="#FFFEFE" stroke-linecap="round"/>
<path d="M11.333 14L11.9997 15.3333" stroke="#FFFEFE" stroke-linecap="round"/>
<path d="M4.66699 14L4.00033 15.3333" stroke="#FFFEFE" stroke-linecap="round"/>
<path d="M4.66699 1.33301L2.00033 3.33301" stroke="#FFFEFE" stroke-linecap="round"/>
</svg>
