<svg width="44" height="39" viewBox="0 0 44 39" fill="none" xmlns="http://www.w3.org/2000/svg">
<path d="M0.9375 16.4718C0.9375 11.9195 4.62784 8.22917 9.18011 8.22917C10.499 8.22917 11.691 7.44316 12.2106 6.23089L12.8557 4.72551C13.8406 2.42748 16.1002 0.9375 18.6004 0.9375H21.7708H24.9413C27.4415 0.9375 29.7011 2.42748 30.6859 4.7255L31.3311 6.23089C31.8506 7.44316 33.0426 8.22917 34.3616 8.22917C38.9138 8.22917 42.6042 11.9195 42.6042 16.4718V26.9792C42.6042 32.7321 37.9405 37.3958 32.1875 37.3958H11.3542C5.60121 37.3958 0.9375 32.7321 0.9375 26.9792V16.4718Z" stroke="#101010" stroke-width="1.875"/>
<circle cx="6.25" cy="6.25" r="6.25" transform="matrix(-1 0 0 1 28.0208 14.4795)" stroke="#101010" stroke-width="1.875"/>
</svg>
