<svg width="55" height="55" viewBox="0 0 55 55" fill="none" xmlns="http://www.w3.org/2000/svg">
<rect width="55" height="55" rx="27.5" fill="#A7DAD8" fill-opacity="0.3"/>
<path d="M26.6 23H38.6C37.925 21.275 36.8937 19.7937 35.5062 18.5562C34.1187 17.3187 32.525 16.45 30.725 15.95L26.6 23ZM23.15 26L29.15 15.65C28.875 15.6 28.6 15.5625 28.325 15.5375C28.05 15.5125 27.775 15.5 27.5 15.5C25.85 15.5 24.3125 15.8125 22.8875 16.4375C21.4625 17.0625 20.2 17.9 19.1 18.95L23.15 26ZM15.875 30.5H24.05L18.05 20.15C17.25 21.175 16.625 22.3063 16.175 23.5438C15.725 24.7812 15.5 26.1 15.5 27.5C15.5 28.025 15.5312 28.5312 15.5938 29.0187C15.6562 29.5063 15.75 30 15.875 30.5ZM24.275 39.05L28.325 32H16.4C17.075 33.725 18.1062 35.2062 19.4937 36.4437C20.8812 37.6812 22.475 38.55 24.275 39.05ZM27.5 39.5C29.15 39.5 30.6875 39.1875 32.1125 38.5625C33.5375 37.9375 34.8 37.1 35.9 36.05L31.85 29L25.85 39.35C26.125 39.4 26.3938 39.4375 26.6562 39.4625C26.9187 39.4875 27.2 39.5 27.5 39.5ZM36.95 34.85C37.75 33.825 38.375 32.6938 38.825 31.4562C39.275 30.2188 39.5 28.9 39.5 27.5C39.5 26.975 39.4688 26.4688 39.4062 25.9813C39.3438 25.4938 39.25 25 39.125 24.5H30.95L36.95 34.85ZM27.5 42.5C25.45 42.5 23.5125 42.1062 21.6875 41.3187C19.8625 40.5312 18.2688 39.4562 16.9062 38.0938C15.5438 36.7313 14.4688 35.1375 13.6813 33.3125C12.8938 31.4875 12.5 29.55 12.5 27.5C12.5 25.425 12.8938 23.4813 13.6813 21.6688C14.4688 19.8563 15.5438 18.2688 16.9062 16.9062C18.2688 15.5438 19.8625 14.4688 21.6875 13.6813C23.5125 12.8938 25.45 12.5 27.5 12.5C29.575 12.5 31.5187 12.8938 33.3312 13.6813C35.1437 14.4688 36.7313 15.5438 38.0938 16.9062C39.4562 18.2688 40.5312 19.8563 41.3187 21.6688C42.1062 23.4813 42.5 25.425 42.5 27.5C42.5 29.55 42.1062 31.4875 41.3187 33.3125C40.5312 35.1375 39.4562 36.7313 38.0938 38.0938C36.7313 39.4562 35.1437 40.5312 33.3312 41.3187C31.5187 42.1062 29.575 42.5 27.5 42.5Z" fill="#418573"/>
</svg>
