<svg width="32" height="32" viewBox="0 0 32 32" fill="none" xmlns="http://www.w3.org/2000/svg">
<rect width="32" height="32" rx="4" fill="#ECF8F7"/>
<path d="M7.6665 22.6663V20.9997H12.4582C12.1526 19.8191 11.5728 18.8018 10.7186 17.9476C9.86442 17.0934 8.84706 16.5136 7.6665 16.208C7.94428 16.1386 8.21859 16.0865 8.48942 16.0518C8.76025 16.017 9.0415 15.9997 9.33317 15.9997C11.1943 15.9997 12.7707 16.6455 14.0623 17.9372C15.354 19.2288 15.9998 20.8052 15.9998 22.6663H7.6665ZM17.6665 22.6663C17.6665 22.083 17.604 21.5031 17.479 20.9268C17.354 20.3504 17.1734 19.7983 16.9373 19.2705C17.5207 18.2844 18.3158 17.4927 19.3228 16.8955C20.3297 16.2983 21.4443 15.9997 22.6665 15.9997C22.9582 15.9997 23.2394 16.017 23.5103 16.0518C23.7811 16.0865 24.0554 16.1386 24.3332 16.208C23.1526 16.5136 22.1387 17.0934 21.2915 17.9476C20.4443 18.8018 19.8609 19.8191 19.5415 20.9997H24.3332V22.6663H17.6665ZM15.9998 17.6872C15.9998 16.7844 16.1665 15.9372 16.4998 15.1455C16.8332 14.3538 17.2915 13.6559 17.8748 13.0518C18.4582 12.4476 19.1422 11.965 19.9269 11.6038C20.7116 11.2427 21.5484 11.0483 22.4373 11.0205C21.6596 11.5066 20.979 12.1038 20.3957 12.8122C19.8123 13.5205 19.3609 14.3122 19.0415 15.1872C18.4304 15.4788 17.8714 15.8365 17.3644 16.2601C16.8575 16.6837 16.4026 17.1594 15.9998 17.6872ZM14.479 16.1247C14.3123 15.9997 14.1457 15.8816 13.979 15.7705C13.8123 15.6594 13.6387 15.5483 13.4582 15.4372C13.4582 15.3538 13.4651 15.267 13.479 15.1768C13.4929 15.0865 13.4998 14.9997 13.4998 14.9163C13.4998 13.8608 13.3332 12.8608 12.9998 11.9163C12.6665 10.9719 12.1943 10.1108 11.5832 9.33301C12.4998 9.70801 13.295 10.2462 13.9686 10.9476C14.6422 11.649 15.1596 12.458 15.5207 13.3747C15.2707 13.7913 15.0554 14.2323 14.8748 14.6976C14.6943 15.1629 14.5623 15.6386 14.479 16.1247Z" fill="#4E9F8A"/>
</svg>
