<svg width="197" height="118" viewBox="0 0 197 118" fill="none" xmlns="http://www.w3.org/2000/svg">
<g clip-path="url(#clip0_2101_29805)">
<path d="M32.8942 112.024C32.7371 112.031 32.5816 111.99 32.4487 111.906C32.3158 111.822 32.212 111.699 32.1513 111.554C32.0906 111.409 32.076 111.248 32.1095 111.095C32.1429 110.941 32.2228 110.801 32.3383 110.695L32.3908 110.486C32.3839 110.469 32.377 110.452 32.37 110.436C32.2117 110.062 31.9465 109.743 31.6076 109.519C31.2688 109.296 30.8715 109.177 30.4655 109.179C30.0595 109.18 29.6631 109.302 29.3259 109.528C28.9888 109.754 28.7259 110.075 28.5704 110.45C27.949 111.946 27.1578 113.446 26.963 115.028C26.8772 115.728 26.9134 116.437 27.07 117.124C25.6104 113.94 24.8525 110.479 24.8476 106.977C24.8473 106.098 24.8961 105.22 24.9939 104.346C25.0746 103.63 25.1867 102.919 25.3301 102.213C26.1124 98.3836 27.792 94.7939 30.231 91.7391C31.4115 91.095 32.3662 90.1045 32.9664 88.9012C33.1839 88.4686 33.3375 88.0068 33.4227 87.5302C33.2895 87.5477 32.9206 85.5196 33.021 85.3951C32.8354 85.1135 32.5033 84.9735 32.3006 84.6988C31.2926 83.3321 29.9038 83.5707 29.1788 85.4279C27.63 86.2096 27.615 87.5059 28.5654 88.7527C29.17 89.5459 29.253 90.6192 29.7835 91.4684C29.7289 91.5383 29.6722 91.606 29.6176 91.6758C28.6199 92.9587 27.7504 94.3363 27.0214 95.7888C27.1987 94.1615 26.9871 92.5155 26.4041 90.986C25.8132 89.5606 24.7057 88.3601 23.7304 87.1278C22.5589 85.6476 20.1567 86.2936 19.9503 88.1699C19.9483 88.1881 19.9464 88.2062 19.9445 88.2244C20.0893 88.3061 20.2311 88.3929 20.3699 88.4846C20.5442 88.6011 20.6792 88.7675 20.7574 88.962C20.8355 89.1565 20.853 89.3701 20.8077 89.5748C20.7623 89.7794 20.6562 89.9656 20.5033 90.109C20.3503 90.2523 20.1576 90.3461 19.9504 90.378L19.9292 90.3813C19.9808 90.9034 20.072 91.4208 20.2021 91.9291C18.9509 96.7677 21.6521 98.5301 25.5091 98.6093C25.5942 98.6529 25.6772 98.6966 25.7623 98.7381C25.03 100.814 24.5706 102.975 24.3957 105.169C24.2968 106.464 24.3026 107.764 24.4132 109.057L24.4066 109.012C24.1272 107.573 23.36 106.276 22.2345 105.337C20.5629 103.964 18.2013 103.459 16.3979 102.355C16.2062 102.232 15.9834 102.166 15.7557 102.166C15.5279 102.165 15.3047 102.23 15.1125 102.352C14.9202 102.474 14.7669 102.648 14.6706 102.855C14.5743 103.061 14.539 103.291 14.5689 103.517C14.5714 103.533 14.5738 103.549 14.5763 103.565C14.8451 103.674 15.1069 103.8 15.36 103.942C15.5049 104.024 15.6467 104.111 15.7854 104.203C15.9597 104.319 16.0948 104.486 16.1729 104.68C16.251 104.875 16.2686 105.088 16.2232 105.293C16.1779 105.498 16.0718 105.684 15.9188 105.827C15.7658 105.97 15.5731 106.064 15.366 106.096L15.3447 106.099C15.3295 106.102 15.3164 106.104 15.3011 106.106C15.7604 107.203 16.4051 108.212 17.2069 109.09C17.9892 113.314 21.3494 113.715 24.9437 112.485H24.9459C25.3402 114.198 25.9116 115.867 26.6508 117.462H32.7416C32.7634 117.395 32.7831 117.325 32.8027 117.257C32.2389 117.292 31.673 117.259 31.1174 117.157C31.5693 116.602 32.0212 116.043 32.4731 115.489C32.4831 115.478 32.4926 115.467 32.5015 115.456C32.7307 115.172 32.9621 114.891 33.1913 114.607L33.1914 114.606C33.2036 113.736 33.1036 112.868 32.8942 112.024Z" fill="#F2F2F2"/>
<path d="M160.112 112.024C160.269 112.031 160.424 111.99 160.557 111.906C160.69 111.822 160.794 111.699 160.854 111.554C160.915 111.409 160.93 111.248 160.896 111.095C160.863 110.941 160.783 110.801 160.667 110.695L160.615 110.486C160.622 110.469 160.629 110.452 160.636 110.436C160.794 110.062 161.059 109.743 161.398 109.519C161.737 109.296 162.134 109.177 162.54 109.179C162.946 109.18 163.343 109.302 163.68 109.528C164.017 109.754 164.28 110.075 164.435 110.45C165.057 111.946 165.848 113.446 166.043 115.028C166.128 115.728 166.092 116.437 165.936 117.124C167.395 113.94 168.153 110.479 168.158 106.977C168.158 106.098 168.11 105.22 168.012 104.346C167.931 103.63 167.819 102.919 167.676 102.213C166.893 98.3836 165.214 94.7939 162.775 91.7391C161.594 91.095 160.639 90.1045 160.039 88.9012C159.822 88.4686 159.668 88.0068 159.583 87.5302C159.716 87.5477 160.085 85.5196 159.985 85.3951C160.17 85.1135 160.502 84.9735 160.705 84.6988C161.713 83.3321 163.102 83.5707 163.827 85.4279C165.376 86.2096 165.391 87.5059 164.44 88.7527C163.836 89.5459 163.753 90.6192 163.222 91.4684C163.277 91.5383 163.334 91.606 163.388 91.6758C164.386 92.9587 165.255 94.3363 165.984 95.7888C165.807 94.1615 166.019 92.5155 166.602 90.986C167.192 89.5606 168.3 88.3601 169.275 87.1278C170.447 85.6476 172.849 86.2936 173.055 88.1699C173.057 88.1881 173.059 88.2062 173.061 88.2244C172.916 88.3061 172.775 88.3929 172.636 88.4846C172.462 88.6011 172.326 88.7675 172.248 88.962C172.17 89.1565 172.153 89.3701 172.198 89.5748C172.243 89.7794 172.349 89.9656 172.502 90.109C172.655 90.2523 172.848 90.3461 173.055 90.378L173.077 90.3813C173.025 90.9034 172.934 91.4208 172.804 91.9291C174.055 96.7677 171.354 98.5301 167.497 98.6093C167.411 98.6529 167.329 98.6966 167.243 98.7381C167.976 100.814 168.435 102.975 168.61 105.169C168.709 106.464 168.703 107.764 168.592 109.057L168.599 109.012C168.878 107.573 169.646 106.276 170.771 105.337C172.443 103.964 174.804 103.459 176.608 102.355C176.799 102.232 177.022 102.166 177.25 102.166C177.478 102.165 177.701 102.23 177.893 102.352C178.085 102.474 178.239 102.648 178.335 102.855C178.431 103.061 178.467 103.291 178.437 103.517C178.434 103.533 178.432 103.549 178.429 103.565C178.161 103.674 177.899 103.8 177.646 103.942C177.501 104.024 177.359 104.111 177.22 104.203C177.046 104.319 176.911 104.486 176.833 104.68C176.755 104.875 176.737 105.088 176.782 105.293C176.828 105.498 176.934 105.684 177.087 105.827C177.24 105.97 177.433 106.064 177.64 106.096L177.661 106.099C177.676 106.102 177.689 106.104 177.705 106.106C177.245 107.203 176.601 108.212 175.799 109.09C175.016 113.314 171.656 113.715 168.062 112.485H168.06C167.665 114.198 167.094 115.867 166.355 117.462H160.264C160.242 117.395 160.223 117.325 160.203 117.257C160.767 117.292 161.333 117.259 161.888 117.157C161.436 116.602 160.985 116.043 160.533 115.489C160.523 115.478 160.513 115.467 160.504 115.456C160.275 115.172 160.044 114.891 159.814 114.607L159.814 114.606C159.802 113.736 159.902 112.868 160.112 112.024Z" fill="#F2F2F2"/>
<path d="M39.9053 117.325H49.7338C51.4148 111.665 49.7428 98.289 51.9585 92.8216C56.2093 82.3387 61.6399 71.2778 71.7759 66.1593C76.1037 63.9737 80.8224 63.12 85.6415 63.1665C92.2985 63.2296 99.1427 65.0166 105.409 67.3849C107.972 68.3515 110.512 69.4144 113.042 70.5006C122.573 74.5961 132 79.057 142.25 80.2627C155.22 81.7873 170.469 75.9845 174.011 63.4854C176.715 53.9159 171.846 43.981 166.739 35.4346C161.633 26.8882 155.925 17.7438 156.857 7.84884C156.861 7.81563 156.864 7.77908 156.871 7.74587C157.222 4.19177 159.344 1.63754 162.308 0H149.402C149.231 9.23068 154.571 17.3785 159.377 25.4233C164.484 33.9665 169.353 43.9046 166.649 53.4741C163.107 65.9699 133.774 51.3223 120.804 49.7943C117.141 49.3658 122.959 50.8904 119.467 49.7943C113.99 48.077 113.383 63.8275 108.052 61.5157C104.734 60.0741 101.412 58.6425 98.0466 57.3703C96.653 56.8422 95.2294 56.3473 93.789 55.8889C93.7857 55.8889 93.7857 55.8889 93.7823 55.8856C84.1109 52.8231 73.5338 51.6306 64.5975 56.0583C64.5374 56.0882 64.4739 56.1181 64.4137 56.148C54.2777 61.2632 48.8472 72.3241 44.5962 82.807C41.0839 91.4731 41.6364 108.184 39.9053 117.325Z" fill="#FAC1C1"/>
<path d="M94.5829 117.037C119.514 117.037 139.724 96.8264 139.724 71.8954C139.724 46.9644 119.514 26.7539 94.5829 26.7539C69.652 26.7539 49.4414 46.9644 49.4414 71.8954C49.4414 96.8264 69.652 117.037 94.5829 117.037Z" fill="white"/>
<path d="M94.4636 117.327C49.8006 118.353 48.8213 97.1336 48.8213 71.895C48.8213 46.657 69.3542 26.124 94.5925 26.124C119.831 26.124 140.364 46.657 140.364 71.895C140.364 97.1336 119.702 117.327 94.4636 117.327ZM94.5925 27.3835C70.0485 27.3835 50.494 47.3548 50.0807 71.895C49.6963 94.7205 73.9446 123.203 94.5925 116.407C105.665 104.212 136.972 91.0775 139.104 71.895C141.817 47.5016 119.137 27.3835 94.5925 27.3835Z" fill="#3F3D56"/>
<path d="M88.4245 95.3901C87.6449 95.3901 86.8761 95.2086 86.1789 94.8599C85.4817 94.5112 84.8753 94.0049 84.4078 93.3812L72.0925 76.9605C71.6965 76.433 71.4083 75.8326 71.2444 75.1937C71.0805 74.5548 71.0441 73.8899 71.1372 73.2369C71.2304 72.5839 71.4513 71.9557 71.7873 71.3881C72.1233 70.8205 72.5679 70.3246 73.0955 69.9289C73.6232 69.5332 74.2237 69.2453 74.8627 69.0817C75.5017 68.9181 76.1667 68.882 76.8196 68.9754C77.4725 69.0689 78.1007 69.29 78.6681 69.6263C79.2356 69.9626 79.7312 70.4074 80.1267 70.9353L88.1838 81.6772L108.877 50.6372C109.616 49.5299 110.765 48.7614 112.071 48.5006C113.376 48.2398 114.732 48.5082 115.839 49.2467C116.947 49.9852 117.716 51.1333 117.978 52.4387C118.239 53.7442 117.971 55.0999 117.234 56.2081L92.603 93.1539C92.1574 93.8221 91.5582 94.3737 90.8554 94.7625C90.1527 95.1513 89.367 95.366 88.5642 95.3885C88.5176 95.3893 88.471 95.3901 88.4245 95.3901Z" fill="#FAC1C1"/>
<path d="M-0.00195169 117.361C-0.00207902 117.404 0.00624559 117.446 0.0225408 117.486C0.038836 117.525 0.0627818 117.561 0.093 117.591C0.123218 117.622 0.15911 117.646 0.198616 117.662C0.238122 117.678 0.280463 117.687 0.323196 117.686H195.751C195.838 117.686 195.92 117.652 195.981 117.591C196.042 117.53 196.076 117.447 196.076 117.361C196.076 117.275 196.042 117.192 195.981 117.131C195.92 117.07 195.838 117.036 195.751 117.036H0.323196C0.280463 117.036 0.238125 117.044 0.19862 117.061C0.159115 117.077 0.123222 117.101 0.0930041 117.131C0.0627863 117.161 0.0388407 117.197 0.022545 117.237C0.00624924 117.276 -0.00207757 117.319 -0.00195169 117.361Z" fill="#CCCCCC"/>
<path d="M123.415 114.174H120.772L119.515 103.979L123.416 103.979L123.415 114.174Z" fill="#FFB6B6"/>
<path d="M123.507 116.931L115.379 116.931V116.828C115.379 115.989 115.712 115.184 116.306 114.591C116.899 113.998 117.704 113.665 118.543 113.664L120.028 112.538L122.798 113.665L123.507 113.665L123.507 116.931Z" fill="#2F2E41"/>
<path d="M111.916 101.538L109.475 102.55L104.407 93.6143L108.011 92.1201L111.916 101.538Z" fill="#FFB6B6"/>
<path d="M113.06 104.05L105.552 107.163L105.513 107.068C105.191 106.293 105.191 105.422 105.512 104.647C105.833 103.872 106.448 103.255 107.223 102.934L108.163 101.325L111.154 101.304L111.809 101.032L113.06 104.05Z" fill="#2F2E41"/>
<path d="M126.435 56.1768L107.677 58.1366L105.167 66.5879L96.4775 80.5528C96.4775 80.5528 102.541 90.7586 101.972 90.6474C101.403 90.5362 102.541 93.3182 103.338 93.1567C104.135 92.9952 104.964 94.8091 104.412 95.1316C103.861 95.4541 106.072 98.1811 106.072 98.1811L109.451 95.1482C110.17 89.7269 109.302 84.902 106.208 80.9132L115.889 70.462L117.724 69.7003L119.182 108.482L124.571 108.571C126.058 100.921 126.805 94.035 125.643 89.1231C125.643 89.1231 125.81 74.3671 126.447 74.5284C127.085 74.6898 126.544 72.7675 126.544 72.7675C126.544 72.7675 125.986 71.1303 126.672 70.4511C127.358 69.7719 126.93 65.7772 126.93 65.7772C128.063 61.9968 127.722 58.8754 126.435 56.1768Z" fill="#2F2E41"/>
<path d="M112.012 24.9891L117.198 23.6453L119.618 20.3066L125.367 21.0134L126.591 25.5674L130.684 27.943C130.684 27.943 128.422 51.8689 128.96 53.1826C129.498 54.4964 131.427 54.3879 129.779 56.0814C128.132 57.775 127.913 57.0928 128.296 58.9366C128.678 60.7803 131.465 62.7316 128.296 62.7122C125.126 62.6928 106.001 62.4196 106.548 60.2339C107.094 58.0482 107.085 58.6032 107.909 57.2328C108.733 55.8625 109.288 56.6282 109.011 54.6061C108.733 52.5839 109.007 51.2178 109.007 50.1249C109.007 49.0321 109.922 39.1011 109.922 39.1011L112.012 24.9891Z" fill="#E6E6E6"/>
<path d="M122.477 19.688C125.841 19.688 128.569 16.9605 128.569 13.5959C128.569 10.2314 125.841 7.50391 122.477 7.50391C119.112 7.50391 116.385 10.2314 116.385 13.5959C116.385 16.9605 119.112 19.688 122.477 19.688Z" fill="#FFB6B6"/>
<path d="M116.102 9.90941C116.636 10.3417 116.514 12.444 117.11 12.1013C117.706 11.7586 117.83 11.145 118.516 11.1386C119.076 11.1695 119.604 11.4083 119.996 11.8083C120.069 11.8743 120.139 11.9435 120.206 12.012C120.268 11.9903 120.329 11.9707 120.393 11.9546C120.875 11.8371 121.383 11.9086 121.813 12.1545C121.416 12.1829 121.037 12.3354 120.732 12.5905C120.863 12.7374 120.996 12.885 121.135 13.0215C122.302 14.1648 124.694 12.9472 126.303 12.6725C124.963 14.1353 125.227 14.9519 125.56 16.9071L125.562 17.0139C125.63 16.563 127.074 16.5854 126.836 17.1837C126.537 17.7748 126.163 18.3247 125.723 18.8199C127.691 17.4568 129.28 15.5778 129.631 13.3081C129.703 12.8309 129.843 12.344 129.707 11.8787C129.649 11.6434 129.515 11.4339 129.326 11.2829C129.137 11.1319 128.902 11.0479 128.66 11.044C128.879 10.3478 128.906 9.60513 128.737 8.89508C128.568 8.18502 128.209 7.53407 127.7 7.01144C127.19 6.4888 126.548 6.11402 125.843 5.92692C125.137 5.73983 124.394 5.74743 123.693 5.94891C123.053 6.17635 122.429 6.44578 121.824 6.75544C121.214 7.06629 120.523 7.18325 119.845 7.09065C119.422 7.00334 118.994 6.78451 118.58 6.90841C118.1 7.05238 117.894 7.55934 117.701 8.04873C118.062 8.18063 118.376 8.41721 118.602 8.72824C118.229 8.59046 117.821 8.57391 117.438 8.68095C117.431 8.68219 117.424 8.68407 117.417 8.68657C116.983 9.46539 116.958 9.65637 116.102 9.90941Z" fill="#2F2E41"/>
<path d="M118.106 22.0143C114.986 21.7631 112.137 24.1494 110.838 26.9976C109.539 29.8458 109.454 33.0768 109.391 36.2066L109.195 45.9354C109.166 47.375 109.137 48.8149 109.065 50.2531C109.028 51.6525 108.852 53.0447 108.54 54.4093C107.903 56.9133 106.504 59.1446 105.125 61.3293C108.656 62.3965 112.246 63.2541 115.878 63.8974C117.692 58.0311 119.526 51.9962 119.08 45.8721C118.844 42.6315 117.973 39.4675 117.641 36.2353C117.172 31.6575 117.794 27.0459 118.415 22.4862" fill="#3F3D56"/>
<path d="M125.678 22.5605C128.769 23.0575 130.97 26.0522 131.555 29.1273C132.14 32.2025 131.456 35.3613 130.774 38.4166C130.067 41.5822 129.361 44.7479 128.654 47.9136C128.34 49.319 128.026 50.7246 127.755 52.1386C127.491 53.5123 128.597 55.2741 128.609 56.6728C128.633 59.2562 128.131 61.384 128.952 63.8337C125.269 64.0319 121.577 64.0123 117.897 63.7748C117.528 57.6456 117.179 51.3477 119.066 45.5047C120.065 42.4127 121.663 39.5463 122.753 36.4851C124.295 32.1497 124.786 27.5224 125.266 22.9457" fill="#3F3D56"/>
<path d="M127.743 66.7252C127.513 66.3252 127.449 65.8514 127.563 65.4046C127.678 64.9578 127.962 64.5734 128.356 64.333C128.436 64.2854 128.521 64.2446 128.608 64.2109L128.214 50.7918L132.484 49.7051L130.856 65.339C130.967 65.7127 130.952 66.1127 130.812 66.4767C130.672 66.8407 130.415 67.1481 130.083 67.3511C129.892 67.4647 129.681 67.5397 129.461 67.5718C129.242 67.6039 129.018 67.5924 128.803 67.538C128.588 67.4836 128.385 67.3874 128.208 67.2548C128.03 67.1222 127.88 66.9559 127.766 66.7654C127.758 66.7521 127.75 66.7387 127.743 66.7252Z" fill="#FFB6B6"/>
<path d="M127.429 27.9202C127.429 27.9202 130.41 25.4001 132.917 30.4391C135.425 35.4781 134.023 46.9899 133.67 47.6042C133.317 48.2186 133.102 47.3628 133.295 49.0004C133.453 50.3324 132.518 50.1658 132.853 50.45C133.737 51.1995 131.261 51.2848 132.533 51.9452C133.805 52.6056 128.113 52.7292 128.113 52.7292C128.113 52.7292 127.424 52.2376 127.902 50.3835C128.171 49.3422 128.843 48.9612 128.126 48.4793C127.409 47.9975 128.867 46.5078 128.868 46.1809C128.869 45.854 126.595 38.7048 126.595 38.7048L127.429 27.9202Z" fill="#3F3D56"/>
<path d="M102.77 89.9978C101.991 89.9978 101.222 89.8162 100.525 89.4675C99.8274 89.1188 99.221 88.6125 98.7535 87.9888L86.4382 71.5681C86.0422 71.0406 85.754 70.4403 85.5901 69.8014C85.4262 69.1624 85.3898 68.4975 85.4829 67.8445C85.5761 67.1915 85.797 66.5633 86.133 65.9957C86.469 65.4281 86.9136 64.9323 87.4413 64.5365C87.9689 64.1408 88.5694 63.8529 89.2084 63.6893C89.8474 63.5257 90.5124 63.4896 91.1653 63.583C91.8183 63.6765 92.4464 63.8977 93.0138 64.2339C93.5813 64.5702 94.0769 65.015 94.4724 65.5429L102.529 76.2848L123.223 45.2449C123.589 44.6962 124.059 44.2249 124.607 43.858C125.155 43.491 125.77 43.2356 126.416 43.1063C127.063 42.977 127.729 42.9763 128.376 43.1043C129.023 43.2322 129.638 43.4864 130.187 43.8521C130.735 44.2179 131.207 44.6882 131.573 45.2361C131.94 45.784 132.196 46.3988 132.325 47.0455C132.454 47.6921 132.455 48.3579 132.327 49.0047C132.199 49.6516 131.945 50.267 131.579 50.8157L106.949 87.7616C106.503 88.4297 105.904 88.9814 105.201 89.3702C104.498 89.759 103.713 89.9736 102.91 89.9961C102.863 89.9969 102.817 89.9978 102.77 89.9978Z" fill="#EF4444"/>
<path d="M112.155 64.3948C112.407 64.0081 112.497 63.5386 112.408 63.0861C112.318 62.6337 112.055 62.2342 111.676 61.9724C111.598 61.9204 111.515 61.875 111.43 61.8365L112.565 48.4596L108.362 47.1387L109.124 62.8387C108.992 63.2056 108.985 63.6059 109.105 63.9771C109.224 64.3482 109.463 64.6694 109.785 64.8904C109.969 65.0144 110.175 65.101 110.393 65.1451C110.61 65.1893 110.834 65.1902 111.052 65.1478C111.27 65.1053 111.477 65.0205 111.662 64.8979C111.847 64.7754 112.006 64.6176 112.13 64.4336C112.139 64.4208 112.147 64.4078 112.155 64.3948Z" fill="#FFB6B6"/>
<path d="M114.612 25.6949C114.612 25.6949 111.775 23.0139 108.993 27.9066C106.211 32.7994 106.974 44.3709 107.292 45.0039C107.611 45.6369 107.873 44.7942 107.59 46.4187C107.359 47.7399 108.302 47.6252 107.951 47.8905C107.027 48.59 109.494 48.812 108.188 49.4011C106.882 49.9902 112.558 50.4282 112.558 50.4282C112.558 50.4282 113.273 49.9754 112.898 48.0977C112.687 47.0431 112.037 46.6256 112.78 46.1841C113.522 45.7426 112.149 44.1746 112.166 43.8481C112.183 43.5217 114.849 36.5091 114.849 36.5091L114.612 25.6949Z" fill="#3F3D56"/>
</g>
<defs>
<clipPath id="clip0_2101_29805">
<rect width="196.078" height="117.685" fill="white"/>
</clipPath>
</defs>
</svg>
