<svg width="29" height="29" viewBox="0 0 29 29" fill="none" xmlns="http://www.w3.org/2000/svg">
<path d="M17.5215 13.291H24.1673V21.7493C24.1673 24.4187 22.0034 26.5827 19.334 26.5827H9.66732C6.99794 26.5827 4.83398 24.4187 4.83398 21.7493V13.291H11.4798" stroke="white" stroke-width="1.8125"/>
<path d="M19.9375 13.2917H23.5625C24.5635 13.2917 25.375 12.4802 25.375 11.4792V9.0625C25.375 8.06148 24.5635 7.25 23.5625 7.25H5.4375C4.43648 7.25 3.625 8.06148 3.625 9.0625V11.4792C3.625 12.4802 4.43648 13.2917 5.4375 13.2917H9.0625" stroke="white" stroke-width="1.8125"/>
<path d="M14.5 5.43685C14.5 3.76849 15.8525 2.41602 17.5208 2.41602H18.125C19.4597 2.41602 20.5417 3.49799 20.5417 4.83268C20.5417 6.16737 19.4597 7.24935 18.125 7.24935H14.5V5.43685Z" stroke="white" stroke-width="1.8125"/>
<path d="M14.5 5.43685C14.5 3.76849 13.1475 2.41602 11.4792 2.41602H10.875C9.54031 2.41602 8.45833 3.49799 8.45833 4.83268C8.45833 6.16737 9.54031 7.24935 10.875 7.24935H14.5V5.43685Z" stroke="white" stroke-width="1.8125"/>
<path d="M17.5215 7.25L17.5215 26.5833L11.4798 26.5833L11.4798 7.25L17.5215 7.25Z" stroke="white" stroke-width="1.8125"/>
</svg>
