<svg width="22" height="22" viewBox="0 0 22 22" fill="none" xmlns="http://www.w3.org/2000/svg">
<path d="M12.3876 3.48919C13.3716 2.50427 14.9672 2.50359 15.9511 3.48724L18.2362 5.7724C19.2118 6.74805 19.2214 8.32848 18.2577 9.31732L9.79482 17.9999C9.14754 18.6639 8.2595 19.0381 7.33291 19.038H4.80947C3.63773 19.0377 2.70267 18.0613 2.75186 16.8896L2.86025 14.3144C2.89656 13.4534 3.25433 12.6362 3.86318 12.0263L12.3876 3.48919ZM18.8056 17.5956C19.1849 17.5959 19.492 17.9035 19.4921 18.2831C19.4921 18.6628 19.1849 18.9704 18.8056 18.9706H13.1942C12.8147 18.9706 12.5067 18.663 12.5067 18.2831C12.5068 17.9034 12.8147 17.5956 13.1942 17.5956H18.8056ZM4.83486 12.999C4.46974 13.3649 4.25504 13.8545 4.2333 14.371L4.12588 16.9462C4.10945 17.3368 4.42079 17.662 4.81143 17.662L7.33486 17.663C7.8906 17.6629 8.42319 17.4382 8.81143 17.04L14.7987 10.8964L10.8632 6.96087L4.83486 12.999ZM14.9784 4.4599C14.5311 4.01326 13.8064 4.0143 13.3593 4.46185L11.8349 5.98724L15.7587 9.91107L17.2743 8.35638C17.7118 7.90698 17.7075 7.18937 17.2646 6.74603L14.9784 4.4599Z" fill="black"/>
</svg>
