<svg width="30" height="30" viewBox="0 0 30 30" fill="none" xmlns="http://www.w3.org/2000/svg">
<path d="M2.5 13.0706C2.5 10.3392 4.71421 8.125 7.44557 8.125C8.23691 8.125 8.95212 7.6534 9.26384 6.92604L9.65094 6.0228C10.2419 4.64399 11.5976 3.75 13.0977 3.75H15H16.9023C18.4024 3.75 19.7581 4.64399 20.3491 6.0228L20.7362 6.92604C21.0479 7.6534 21.7631 8.125 22.5544 8.125C25.2858 8.125 27.5 10.3392 27.5 13.0706V19.375C27.5 22.8268 24.7018 25.625 21.25 25.625H8.75C5.29822 25.625 2.5 22.8268 2.5 19.375V13.0706Z" stroke="#FFFDFD" stroke-width="1.875"/>
<circle cx="3.75" cy="3.75" r="3.75" transform="matrix(-1 0 0 1 18.75 11.875)" stroke="#FFFDFD" stroke-width="1.875"/>
</svg>
