<svg width="55" height="55" viewBox="0 0 55 55" fill="none" xmlns="http://www.w3.org/2000/svg">
<rect width="55" height="55" rx="27.5" fill="#BED5FC" fill-opacity="0.3"/>
<path d="M23 30.5H38L32.825 23.75L29.375 28.25L27.05 25.25L23 30.5ZM21.5 36.5C20.675 36.5 19.9688 36.2063 19.3813 35.6188C18.7938 35.0312 18.5 34.325 18.5 33.5V15.5C18.5 14.675 18.7938 13.9688 19.3813 13.3812C19.9688 12.7937 20.675 12.5 21.5 12.5H39.5C40.325 12.5 41.0312 12.7937 41.6188 13.3812C42.2063 13.9688 42.5 14.675 42.5 15.5V33.5C42.5 34.325 42.2063 35.0312 41.6188 35.6188C41.0312 36.2063 40.325 36.5 39.5 36.5H21.5ZM21.5 33.5H39.5V15.5H21.5V33.5ZM15.5 42.5C14.675 42.5 13.9688 42.2063 13.3812 41.6188C12.7937 41.0312 12.5 40.325 12.5 39.5V18.5H15.5V39.5H36.5V42.5H15.5Z" fill="#2757A4"/>
</svg>
