<svg width="20" height="20" viewBox="0 0 20 20" fill="none" xmlns="http://www.w3.org/2000/svg">
<path d="M16.25 7.49999C16.25 6.29051 15.8991 5.107 15.2397 4.09302C14.5804 3.07904 13.6411 2.27814 12.5356 1.78745C11.4301 1.29677 10.206 1.13739 9.01174 1.32863C7.81747 1.51988 6.70435 2.05353 5.80737 2.86488C4.91039 3.67623 4.2681 4.73041 3.95838 5.89957C3.64867 7.06873 3.68485 8.30264 4.06253 9.45165C4.4402 10.6007 5.14316 11.6154 6.08613 12.3728C7.0291 13.1302 8.17158 13.5977 9.375 13.7187V15.625H6.875C6.70924 15.625 6.55027 15.6908 6.43306 15.8081C6.31585 15.9253 6.25 16.0842 6.25 16.25C6.25 16.4158 6.31585 16.5747 6.43306 16.6919C6.55027 16.8091 6.70924 16.875 6.875 16.875H9.375V18.75C9.375 18.9158 9.44085 19.0747 9.55806 19.1919C9.67527 19.3091 9.83424 19.375 10 19.375C10.1658 19.375 10.3247 19.3091 10.4419 19.1919C10.5592 19.0747 10.625 18.9158 10.625 18.75V16.875H13.125C13.2908 16.875 13.4497 16.8091 13.5669 16.6919C13.6842 16.5747 13.75 16.4158 13.75 16.25C13.75 16.0842 13.6842 15.9253 13.5669 15.8081C13.4497 15.6908 13.2908 15.625 13.125 15.625H10.625V13.7187C12.1659 13.5619 13.5939 12.8393 14.6329 11.6906C15.6719 10.542 16.2481 9.04884 16.25 7.49999ZM10 12.5C9.01109 12.5 8.04439 12.2067 7.22215 11.6573C6.3999 11.1079 5.75904 10.327 5.3806 9.41341C5.00216 8.49978 4.90315 7.49445 5.09607 6.52454C5.289 5.55464 5.7652 4.66372 6.46447 3.96446C7.16373 3.2652 8.05464 2.78899 9.02455 2.59607C9.99445 2.40314 10.9998 2.50216 11.9134 2.8806C12.827 3.25903 13.6079 3.8999 14.1573 4.72214C14.7068 5.54439 15 6.51109 15 7.49999C14.9985 8.82562 14.4712 10.0965 13.5339 11.0339C12.5965 11.9712 11.3256 12.4985 10 12.5Z" fill="#F48282"/>
</svg>
