<svg width="20" height="20" viewBox="0 0 20 20" fill="none" xmlns="http://www.w3.org/2000/svg">
<path d="M17.497 3.06324C17.4962 3.05435 17.4945 3.04573 17.4932 3.03696C17.4916 3.02555 17.4903 3.01411 17.488 3.00278C17.486 2.99255 17.4832 2.9826 17.4806 2.97253C17.4782 2.96284 17.4761 2.95311 17.4732 2.9435C17.4702 2.93362 17.4665 2.92408 17.463 2.91439C17.4596 2.90482 17.4564 2.89516 17.4525 2.88574C17.4488 2.87674 17.4444 2.86812 17.4402 2.85931C17.4357 2.84962 17.4314 2.83985 17.4263 2.83035C17.4218 2.82192 17.4166 2.81395 17.4118 2.80574C17.4062 2.79644 17.4009 2.78698 17.3948 2.7779C17.3889 2.76905 17.3823 2.76069 17.3759 2.75219C17.3701 2.74437 17.3647 2.73635 17.3584 2.72873C17.3465 2.71427 17.3339 2.70046 17.3208 2.68711C17.3195 2.68577 17.3184 2.68432 17.3171 2.68303C17.3156 2.68154 17.314 2.68032 17.3125 2.67887C17.2993 2.66594 17.2856 2.65342 17.2713 2.64167C17.2642 2.63584 17.2567 2.63073 17.2494 2.62527C17.2403 2.61848 17.2315 2.6115 17.2221 2.6052C17.2137 2.59956 17.2049 2.59471 17.1963 2.58956C17.1874 2.58418 17.1787 2.57861 17.1695 2.57369C17.161 2.56915 17.1522 2.5653 17.1435 2.56118C17.1337 2.55649 17.124 2.55164 17.1139 2.54745C17.1058 2.54413 17.0975 2.54146 17.0894 2.53848C17.0783 2.53444 17.0673 2.53024 17.056 2.52681C17.0483 2.52448 17.0406 2.52288 17.0329 2.52086C17.0208 2.51773 17.0089 2.51441 16.9966 2.51201C16.9885 2.51041 16.9803 2.50953 16.9721 2.50827C16.9602 2.5064 16.9483 2.50427 16.9362 2.50308C16.9238 2.50186 16.9113 2.50167 16.8989 2.50118C16.8909 2.50092 16.8832 2.5 16.8752 2.5H13.1252C12.9594 2.5 12.8004 2.56585 12.6832 2.68306C12.566 2.80027 12.5002 2.95924 12.5002 3.125C12.5002 3.29076 12.566 3.44973 12.6832 3.56694C12.8004 3.68415 12.9594 3.75 13.1252 3.75H15.3662L12.0805 7.03575C10.839 6.02099 9.25495 5.52221 7.65602 5.64254C6.05709 5.76288 4.56556 6.49314 3.48992 7.68229C2.41429 8.87143 1.83682 10.4285 1.87696 12.0315C1.9171 13.6344 2.57177 15.1606 3.70558 16.2944C4.83938 17.4283 6.36559 18.083 7.96854 18.1231C9.57149 18.1633 11.1286 17.5858 12.3177 16.5102C13.5069 15.4346 14.2372 13.9431 14.3575 12.3441C14.4779 10.7452 13.9791 9.16118 12.9644 7.91966L16.2502 4.63391V6.875C16.2502 7.04076 16.316 7.19973 16.4332 7.31694C16.5504 7.43415 16.7094 7.5 16.8752 7.5C17.0409 7.5 17.1999 7.43415 17.3171 7.31694C17.4343 7.19973 17.5002 7.04076 17.5002 6.875V3.12519C17.5002 3.10451 17.4991 3.08384 17.497 3.06324ZM11.6607 15.4105C10.9616 16.109 10.0711 16.5845 9.10175 16.777C8.13244 16.9694 7.12782 16.8702 6.2149 16.4918C5.30198 16.1134 4.52173 15.4728 3.9728 14.651C3.42386 13.8293 3.13087 12.8632 3.13087 11.875C3.13087 10.8868 3.42386 9.92071 3.9728 9.09895C4.52173 8.2772 5.30198 7.63664 6.2149 7.25824C7.12782 6.87984 8.13244 6.7806 9.10175 6.97305C10.0711 7.1655 10.9616 7.641 11.6607 8.33946C12.597 9.27787 13.1228 10.5494 13.1228 11.875C13.1228 13.2006 12.597 14.4721 11.6607 15.4105Z" fill="#67A7A3"/>
</svg>
