<svg width="15" height="15" viewBox="0 0 15 15" fill="none" xmlns="http://www.w3.org/2000/svg">
<path d="M7.5 12.0833C8.4375 12.0833 9.23438 11.7188 9.89062 10.9896C10.5469 10.2604 10.875 9.375 10.875 8.33333C10.875 7.29167 10.5469 6.40625 9.89062 5.67708C9.23438 4.94792 8.4375 4.58333 7.5 4.58333C6.5625 4.58333 5.76562 4.94792 5.10938 5.67708C4.45312 6.40625 4.125 7.29167 4.125 8.33333C4.125 9.375 4.45312 10.2604 5.10938 10.9896C5.76562 11.7188 6.5625 12.0833 7.5 12.0833ZM7.5 10.4167C6.975 10.4167 6.53125 10.2153 6.16875 9.8125C5.80625 9.40972 5.625 8.91667 5.625 8.33333C5.625 7.75 5.80625 7.25695 6.16875 6.85417C6.53125 6.45139 6.975 6.25 7.5 6.25C8.025 6.25 8.46875 6.45139 8.83125 6.85417C9.19375 7.25695 9.375 7.75 9.375 8.33333C9.375 8.91667 9.19375 9.40972 8.83125 9.8125C8.46875 10.2153 8.025 10.4167 7.5 10.4167ZM1.5 15C1.0875 15 0.734375 14.8368 0.440625 14.5104C0.146875 14.184 0 13.7917 0 13.3333V3.33333C0 2.875 0.146875 2.48264 0.440625 2.15625C0.734375 1.82986 1.0875 1.66667 1.5 1.66667H3.8625L5.25 0H9.75L11.1375 1.66667H13.5C13.9125 1.66667 14.2656 1.82986 14.5594 2.15625C14.8531 2.48264 15 2.875 15 3.33333V13.3333C15 13.7917 14.8531 14.184 14.5594 14.5104C14.2656 14.8368 13.9125 15 13.5 15H1.5ZM1.5 13.3333H13.5V3.33333H10.4625L9.09375 1.66667H5.90625L4.5375 3.33333H1.5V13.3333Z" fill="#22C55E"/>
</svg>
