<svg width="30" height="30" viewBox="0 0 30 30" fill="none" xmlns="http://www.w3.org/2000/svg">
<rect width="30" height="30" rx="15" fill="#BED5FC" fill-opacity="0.3"/>
<path d="M15 23.25C12.8917 23.25 11.0545 22.551 9.48854 21.1531C7.92257 19.7552 7.025 18.0097 6.79583 15.9167H8.675C8.88889 17.5056 9.59549 18.8194 10.7948 19.8583C11.9941 20.8972 13.3958 21.4167 15 21.4167C16.7875 21.4167 18.3038 20.7941 19.549 19.549C20.7941 18.3038 21.4167 16.7875 21.4167 15C21.4167 13.2125 20.7941 11.6962 19.549 10.451C18.3038 9.2059 16.7875 8.58333 15 8.58333C13.9458 8.58333 12.9604 8.82778 12.0437 9.31667C11.1271 9.80556 10.3556 10.4778 9.72917 11.3333H12.25V13.1667H6.75V7.66667H8.58333V9.82083C9.3625 8.84306 10.3135 8.08681 11.4365 7.55208C12.5594 7.01736 13.7472 6.75 15 6.75C16.1458 6.75 17.2191 6.96771 18.2198 7.40312C19.2205 7.83854 20.0913 8.42674 20.8323 9.16771C21.5733 9.90868 22.1615 10.7795 22.5969 11.7802C23.0323 12.7809 23.25 13.8542 23.25 15C23.25 16.1458 23.0323 17.2191 22.5969 18.2198C22.1615 19.2205 21.5733 20.0913 20.8323 20.8323C20.0913 21.5733 19.2205 22.1615 18.2198 22.5969C17.2191 23.0323 16.1458 23.25 15 23.25ZM17.5667 18.85L14.0833 15.3667V10.4167H15.9167V14.6333L18.85 17.5667L17.5667 18.85Z" fill="#3B82F6"/>
</svg>
