<svg width="32" height="32" viewBox="0 0 32 32" fill="none" xmlns="http://www.w3.org/2000/svg">
<path d="M26.721 9.09358L19.041 3.72024C16.9476 2.25358 13.7343 2.33358 11.721 3.89358L5.04096 9.10691C3.70763 10.1469 2.6543 12.2802 2.6543 13.9602V23.1602C2.6543 26.5602 5.4143 29.3336 8.8143 29.3336H23.1876C26.5876 29.3336 29.3476 26.5736 29.3476 23.1736V14.1336C29.3476 12.3336 28.1876 10.1202 26.721 9.09358ZM17.001 24.0002C17.001 24.5469 16.5476 25.0002 16.001 25.0002C15.4543 25.0002 15.001 24.5469 15.001 24.0002V20.0002C15.001 19.4536 15.4543 19.0002 16.001 19.0002C16.5476 19.0002 17.001 19.4536 17.001 20.0002V24.0002Z" fill="white"/>
</svg>
