<svg width="32" height="32" viewBox="0 0 32 32" fill="none" xmlns="http://www.w3.org/2000/svg">
<rect width="32" height="32" rx="4" fill="#ECF8F7"/>
<path d="M16.0002 23.9163C14.1529 23.9163 12.58 23.2775 11.2814 21.9997C9.9828 20.7219 9.3335 19.1663 9.3335 17.333C9.3335 16.4302 9.50711 15.5865 9.85433 14.8018C10.2016 14.017 10.6807 13.3191 11.2918 12.708L16.0002 8.08301L20.7085 12.708C21.3196 13.3191 21.7988 14.017 22.146 14.8018C22.4932 15.5865 22.6668 16.4302 22.6668 17.333C22.6668 19.1663 22.0175 20.7219 20.7189 21.9997C19.4203 23.2775 17.8474 23.9163 16.0002 23.9163ZM11.0418 18.083H20.9168C21.0835 17.083 20.9897 16.2288 20.6356 15.5205C20.2814 14.8122 19.9168 14.2775 19.5418 13.9163L16.0002 10.4163L12.4585 13.9163C12.0835 14.2775 11.7154 14.8122 11.3543 15.5205C10.9932 16.2288 10.8891 17.083 11.0418 18.083Z" fill="#4E9F8A"/>
</svg>
