<svg width="17" height="20" viewBox="0 0 17 20" fill="none" xmlns="http://www.w3.org/2000/svg">
<path d="M8.165 13.769C9.90006 12.261 11.0142 11.1996 11.5075 10.5849C12.0008 9.97023 12.2475 9.35964 12.2475 8.75315C12.2475 8.16305 12.0264 7.65491 11.5841 7.22873C11.1418 6.80254 10.6145 6.58945 10.0021 6.58945C9.64491 6.58945 9.30045 6.65911 8.96874 6.79844C8.63704 6.93777 8.36913 7.13038 8.165 7.37625C7.96088 7.13038 7.69721 6.93777 7.37402 6.79844C7.05082 6.65911 6.7021 6.58945 6.32788 6.58945C5.7155 6.58945 5.18818 6.80254 4.74591 7.22873C4.30364 7.65491 4.0825 8.16305 4.0825 8.75315C4.0825 9.06459 4.12503 9.35145 4.21008 9.61371C4.29513 9.87598 4.48224 10.1833 4.77142 10.5357C5.0606 10.8882 5.4731 11.3184 6.00893 11.8266C6.54476 12.3347 7.26345 12.9822 8.165 13.769ZM8.165 19.67C5.80055 19.0963 3.84861 17.7891 2.30916 15.7483C0.769721 13.7075 0 11.4414 0 8.94985V2.9505L8.165 0L16.33 2.9505V8.94985C16.33 11.4414 15.5603 13.7075 14.0208 15.7483C12.4814 17.7891 10.5294 19.0963 8.165 19.67Z" fill="#4E9F8A"/>
</svg>
