<svg width="32" height="32" viewBox="0 0 32 32" fill="none" xmlns="http://www.w3.org/2000/svg">
<rect width="32" height="32" rx="4" fill="#ECF8F7"/>
<path d="M16 24.4252C14.096 24.4252 12.4808 23.8235 11.1545 22.62C9.8282 21.4165 9.16504 19.9509 9.16504 18.2232C9.16504 16.8351 9.61664 15.5911 10.5198 14.4909C11.423 13.3908 12.6069 12.6488 14.0716 12.2649C13.7461 12.191 13.4288 12.084 13.1196 11.9437C12.8104 11.8034 12.5337 11.6225 12.2896 11.401C11.7526 10.9137 11.4068 10.3341 11.2522 9.66226C11.0976 8.99037 11.0609 8.30742 11.1423 7.61338C11.9072 7.53955 12.6598 7.57278 13.4003 7.71306C14.1408 7.85334 14.7795 8.16713 15.3165 8.65443C15.6908 8.99406 15.9634 9.378 16.1343 9.80623C16.3052 10.2345 16.415 10.6848 16.4638 11.1574C16.6754 10.6996 16.9317 10.2677 17.2328 9.8616C17.5338 9.45552 17.8715 9.08266 18.2458 8.74303C18.4248 8.5806 18.6527 8.49938 18.9293 8.49938C19.206 8.49938 19.4338 8.5806 19.6128 8.74303C19.7918 8.90547 19.8813 9.1122 19.8813 9.36323C19.8813 9.61426 19.7918 9.821 19.6128 9.98343C19.2548 10.3083 18.9375 10.6664 18.6608 11.0577C18.3842 11.449 18.1807 11.8662 18.0505 12.3092C19.4826 12.7226 20.6381 13.472 21.5169 14.5574C22.3956 15.6427 22.835 16.8647 22.835 18.2232C22.835 19.9509 22.1719 21.4165 20.8456 22.62C19.5192 23.8235 17.9041 24.4252 16 24.4252ZM16 22.6532C17.3508 22.6532 18.5021 22.2213 19.4542 21.3574C20.4062 20.4936 20.8822 19.4488 20.8822 18.2232C20.8822 16.9976 20.4062 15.9528 19.4542 15.089C18.5021 14.2251 17.3508 13.7932 16 13.7932C14.6493 13.7932 13.4979 14.2251 12.5459 15.089C11.5939 15.9528 11.1179 16.9976 11.1179 18.2232C11.1179 19.4488 11.5939 20.4936 12.5459 21.3574C13.4979 22.2213 14.6493 22.6532 16 22.6532Z" fill="#4E9F8A"/>
</svg>
