<svg width="600" height="466" viewBox="0 0 600 466" fill="none" xmlns="http://www.w3.org/2000/svg">
<path d="M283.215 190.359C283.215 190.359 290.995 249.005 279.026 255.591C267.057 262.177 350.241 262.772 350.241 262.772C350.241 262.772 331.69 211.904 340.067 196.343L283.215 190.359Z" fill="#ED9DA0"/>
<path d="M316.726 222.089C339.532 222.089 358.019 203.602 358.019 180.797C358.019 157.991 339.532 139.504 316.726 139.504C293.921 139.504 275.434 157.991 275.434 180.797C275.434 203.602 293.921 222.089 316.726 222.089Z" fill="#ED9DA0"/>
<path d="M410.983 263.07L404.065 294.574L389.438 361.222L389 364.872L383.952 407.128L380.593 435.199L378.342 454.055C364.652 461.091 354.73 465.949 354.73 465.949C354.73 465.949 353.876 461.673 352.501 456.198C342.893 459.078 325.114 463.857 310.046 464.812C315.532 470.927 230.802 315.376 227.551 294.576C224.934 277.836 222.968 263.691 222.553 260.682C222.497 260.289 222.469 260.087 222.469 260.087L285.602 232.189C290.089 242.595 311.04 245.722 311.04 245.722C328.397 244.526 342.003 235.371 342.003 235.371L410.983 263.07Z" fill="#4E9F8A"/>
<path d="M455.866 407.895C451.66 412.455 441.239 419.322 428.603 426.757C423.903 429.52 418.9 432.367 413.796 435.197C401.616 441.952 388.864 448.646 378.34 454.053C364.65 461.089 354.728 465.947 354.728 465.947C354.728 465.947 353.874 461.671 352.499 456.196C350.656 448.867 347.883 439.394 344.991 435.2C344.89 435.054 344.789 434.92 344.691 434.785C343.849 433.678 343.001 433.032 342.164 433.032L383.95 407.126L402.009 395.929L388.998 364.87L372.68 325.911L382.529 294.572L392.43 263.068H410.983C410.983 263.068 417.126 276.478 424.983 295.177C426.157 297.973 427.37 300.888 428.605 303.898C444.764 343.206 464.914 398.094 455.866 407.895Z" fill="#4E9F8A"/>
<path d="M269.15 434.826C267.626 434.821 266.104 434.945 264.601 435.197C251.691 437.415 247.884 449.1 246.8 456.928C246.453 459.319 246.322 461.735 246.407 464.149L235.006 455.378L230.85 452.183C220.85 448.695 211.938 442.502 204.211 435.196C197.508 428.746 191.495 421.616 186.27 413.919C181.066 406.334 176.426 398.376 172.389 390.11C171.263 387.804 170.657 385.278 170.616 382.711C170.574 380.145 171.097 377.601 172.148 375.259L186.27 343.785L206.912 297.784C207.062 296.688 207.229 295.618 207.412 294.572C211.506 271.099 222.472 260.678 222.472 260.678H230.846L236.45 294.572L243.413 336.682L238.533 352.596L227.257 389.35L238.032 401.051L269.15 434.826Z" fill="#4E9F8A"/>
<path d="M441.909 453.955V457.363C441.911 458.299 441.738 459.226 441.398 460.098C441.248 460.487 441.066 460.863 440.854 461.223C440.185 462.346 439.235 463.277 438.098 463.922C436.961 464.568 435.675 464.907 434.368 464.907H183.616C182.308 464.907 181.023 464.568 179.886 463.922C178.749 463.277 177.799 462.346 177.13 461.223C176.918 460.863 176.736 460.487 176.585 460.098C176.245 459.226 176.072 458.299 176.074 457.363V453.955C176.074 452.964 176.269 451.984 176.648 451.068C177.027 450.153 177.582 449.322 178.282 448.622C178.983 447.921 179.814 447.366 180.729 446.987C181.644 446.608 182.625 446.413 183.616 446.413H198.071V444.824C198.071 444.741 198.104 444.661 198.163 444.602C198.222 444.543 198.302 444.51 198.385 444.51H205.927C205.968 444.51 206.009 444.518 206.047 444.533C206.085 444.549 206.12 444.572 206.149 444.602C206.178 444.631 206.202 444.665 206.217 444.704C206.233 444.742 206.241 444.783 206.241 444.824V446.413H210.952V444.824C210.952 444.741 210.985 444.661 211.044 444.602C211.103 444.543 211.183 444.51 211.267 444.51H218.807C218.848 444.51 218.889 444.518 218.928 444.533C218.966 444.549 219 444.572 219.03 444.602C219.059 444.631 219.082 444.665 219.098 444.704C219.113 444.742 219.122 444.783 219.121 444.824V446.413H223.838V444.824C223.838 444.741 223.871 444.661 223.93 444.602C223.989 444.543 224.069 444.51 224.152 444.51H231.694C231.735 444.51 231.776 444.518 231.814 444.533C231.852 444.549 231.887 444.572 231.916 444.602C231.945 444.631 231.968 444.665 231.984 444.704C232 444.742 232.008 444.783 232.008 444.824V446.413H236.719V444.824C236.719 444.741 236.752 444.661 236.811 444.602C236.87 444.543 236.95 444.51 237.033 444.51H244.575C244.616 444.51 244.657 444.518 244.695 444.533C244.733 444.549 244.768 444.572 244.797 444.602C244.826 444.631 244.85 444.665 244.865 444.704C244.881 444.742 244.889 444.783 244.889 444.824V446.413H249.6V444.824C249.6 444.783 249.608 444.742 249.624 444.704C249.64 444.665 249.663 444.631 249.692 444.602C249.721 444.572 249.756 444.549 249.794 444.533C249.832 444.518 249.873 444.51 249.915 444.51H257.456C257.497 444.51 257.538 444.518 257.576 444.533C257.614 444.549 257.649 444.572 257.678 444.602C257.707 444.631 257.731 444.665 257.746 444.704C257.762 444.742 257.77 444.783 257.77 444.824V446.413H262.487V444.824C262.487 444.783 262.495 444.742 262.511 444.704C262.527 444.665 262.55 444.631 262.579 444.602C262.608 444.572 262.643 444.549 262.681 444.533C262.719 444.518 262.76 444.51 262.802 444.51H270.345C270.387 444.51 270.427 444.518 270.466 444.533C270.504 444.549 270.538 444.572 270.568 444.602C270.597 444.631 270.62 444.665 270.636 444.704C270.652 444.742 270.66 444.783 270.66 444.824V446.413H275.371V444.824C275.371 444.783 275.379 444.742 275.395 444.704C275.41 444.665 275.433 444.631 275.463 444.602C275.492 444.572 275.527 444.549 275.565 444.533C275.603 444.518 275.644 444.51 275.685 444.51H334.758C334.8 444.51 334.841 444.518 334.879 444.533C334.917 444.549 334.952 444.572 334.981 444.602C335.01 444.631 335.033 444.665 335.049 444.704C335.065 444.742 335.073 444.783 335.073 444.824V446.413H339.79V444.824C339.79 444.741 339.823 444.661 339.882 444.602C339.941 444.543 340.021 444.51 340.104 444.51H347.646C347.729 444.511 347.808 444.544 347.867 444.603C347.926 444.662 347.959 444.741 347.96 444.824V446.413H352.671V444.824C352.671 444.783 352.679 444.742 352.695 444.704C352.711 444.665 352.734 444.631 352.763 444.602C352.792 444.572 352.827 444.549 352.865 444.533C352.903 444.518 352.944 444.51 352.985 444.51H360.528C360.569 444.51 360.61 444.518 360.648 444.533C360.686 444.549 360.721 444.572 360.75 444.602C360.779 444.631 360.802 444.665 360.818 444.704C360.834 444.742 360.842 444.783 360.842 444.824V446.413H365.553V444.824C365.553 444.783 365.561 444.742 365.577 444.704C365.593 444.665 365.616 444.631 365.645 444.602C365.674 444.572 365.709 444.549 365.747 444.533C365.785 444.518 365.826 444.51 365.867 444.51H373.409C373.45 444.51 373.491 444.518 373.529 444.533C373.567 444.549 373.602 444.572 373.631 444.602C373.66 444.631 373.684 444.665 373.699 444.704C373.715 444.742 373.723 444.783 373.723 444.824V446.413H378.44V444.824C378.44 444.783 378.448 444.742 378.464 444.704C378.48 444.665 378.503 444.631 378.532 444.602C378.561 444.572 378.596 444.549 378.634 444.533C378.672 444.518 378.713 444.51 378.755 444.51H386.3C386.383 444.511 386.462 444.544 386.52 444.603C386.578 444.662 386.61 444.741 386.609 444.824V446.413H391.326V444.824C391.326 444.783 391.334 444.742 391.35 444.704C391.365 444.665 391.389 444.631 391.418 444.602C391.447 444.572 391.482 444.549 391.52 444.533C391.558 444.518 391.599 444.51 391.64 444.51H399.181C399.265 444.51 399.345 444.543 399.404 444.602C399.463 444.661 399.496 444.741 399.496 444.824V446.413H404.207V444.824C404.207 444.783 404.215 444.742 404.231 444.704C404.247 444.665 404.27 444.631 404.299 444.602C404.328 444.572 404.363 444.549 404.401 444.533C404.439 444.518 404.48 444.51 404.521 444.51H412.063C412.104 444.51 412.145 444.518 412.183 444.533C412.221 444.549 412.256 444.572 412.285 444.602C412.314 444.631 412.337 444.665 412.353 444.704C412.369 444.742 412.377 444.783 412.377 444.824V446.413H434.372C435.363 446.413 436.344 446.608 437.259 446.987C438.174 447.366 439.005 447.921 439.706 448.622C440.406 449.322 440.961 450.153 441.34 451.068C441.719 451.984 441.914 452.964 441.914 453.955H441.909Z" fill="#090814"/>
<path d="M514.824 464.822H103.219V465.945H514.824V464.822Z" fill="#CCCCCC"/>
<path d="M421.722 310.411H328.262V308.484H285.882V310.411H192.029C190.353 310.412 188.745 311.077 187.56 312.262C186.374 313.447 185.708 315.055 185.707 316.731V444.713C185.707 446.39 186.373 447.998 187.559 449.184C188.745 450.37 190.353 451.036 192.029 451.036H421.722C423.399 451.036 425.007 450.37 426.192 449.184C427.378 447.998 428.044 446.39 428.044 444.713V316.731C428.044 315.054 427.378 313.446 426.192 312.26C425.007 311.074 423.399 310.408 421.722 310.408V310.411Z" fill="#090814"/>
<path d="M307.058 369.13C314.811 369.13 321.097 362.845 321.097 355.091C321.097 347.338 314.811 341.053 307.058 341.053C299.305 341.053 293.02 347.338 293.02 355.091C293.02 362.845 299.305 369.13 307.058 369.13Z" stroke="#D0CDE1" stroke-width="1.50016" stroke-miterlimit="10"/>
<path d="M302.566 374.184C310.319 374.184 316.604 367.899 316.604 360.146C316.604 352.393 310.319 346.107 302.566 346.107C294.813 346.107 288.527 352.393 288.527 360.146C288.527 367.899 294.813 374.184 302.566 374.184Z" fill="#F2F2F2"/>
<path d="M278.785 165.036L275.87 194.782C275.87 194.782 245.266 135.408 283.324 124.428C283.324 124.428 279.618 119.41 284.996 117.741C290.374 116.071 341.362 108.065 345.426 133.027C345.426 133.027 372.062 149.536 364.001 167.198L354.502 187.966L345.903 188.444C345.903 188.444 345.661 148.915 332.528 150.228C319.395 151.542 278.785 165.036 278.785 165.036Z" fill="#090814"/>
<path d="M582.555 152.322L434.039 128.8C433.506 128.715 433.03 128.422 432.713 127.986C432.396 127.55 432.265 127.006 432.349 126.474L446.918 34.4883L599.45 58.647L584.881 150.633C584.796 151.165 584.504 151.642 584.068 151.959C583.632 152.275 583.088 152.406 582.555 152.322L582.555 152.322Z" fill="#E6E6E6"/>
<path d="M579.11 145.883L439.303 123.74C438.765 123.654 438.283 123.358 437.963 122.918C437.642 122.477 437.51 121.927 437.594 121.389L449.593 45.6354C449.678 45.0973 449.974 44.6152 450.415 44.2949C450.856 43.9747 451.406 43.8423 451.944 43.927L591.751 66.0703C592.289 66.1561 592.772 66.4519 593.092 66.8927C593.412 67.3336 593.544 67.8834 593.46 68.4217L581.462 144.176C581.376 144.714 581.08 145.196 580.639 145.516C580.198 145.836 579.649 145.968 579.11 145.883Z" fill="white"/>
<path d="M598.935 61.4762L446.403 37.3175L447.147 32.619C447.232 32.0868 447.524 31.61 447.96 31.2933C448.396 30.9765 448.94 30.8456 449.473 30.9293L597.989 54.4519C598.521 54.5368 598.998 54.8294 599.314 55.2654C599.631 55.7014 599.762 56.2452 599.678 56.7776L598.935 61.4762Z" fill="#4E9F8A"/>
<path d="M451.659 36.0166C452.322 36.1215 452.944 35.6695 453.049 35.0071C453.154 34.3447 452.702 33.7226 452.039 33.6177C451.377 33.5128 450.755 33.9647 450.65 34.6272C450.545 35.2896 450.997 35.9116 451.659 36.0166Z" fill="white"/>
<path d="M456.21 36.7373C456.873 36.8422 457.495 36.3902 457.6 35.7278C457.704 35.0654 457.252 34.4433 456.59 34.3384C455.928 34.2335 455.306 34.6854 455.201 35.3479C455.096 36.0103 455.548 36.6324 456.21 36.7373Z" fill="white"/>
<path d="M460.761 37.458C461.423 37.5629 462.045 37.1109 462.15 36.4485C462.255 35.7861 461.803 35.164 461.141 35.0591C460.478 34.9542 459.856 35.4061 459.751 36.0686C459.647 36.731 460.098 37.3531 460.761 37.458Z" fill="white"/>
<path d="M476.542 61.7471L462.133 59.4648L461.123 65.8428L475.532 68.125L476.542 61.7471Z" fill="#E6E6E6"/>
<path d="M503.265 79.54L488.855 77.2578L487.845 83.6358L502.255 85.918L503.265 79.54Z" fill="#E6E6E6"/>
<path d="M471.304 94.8174L456.895 92.5352L455.884 98.9131L470.294 101.195L471.304 94.8174Z" fill="#7BC8C4"/>
<path d="M498.027 112.61L483.617 110.328L482.607 116.706L497.016 118.988L498.027 112.61Z" fill="#7BC8C4"/>
<path d="M568.792 130.599L554.383 128.316L553.373 134.694L567.782 136.977L568.792 130.599Z" fill="#7BC8C4"/>
<path d="M558.57 101.86L544.16 99.5781L543.15 105.956L557.559 108.238L558.57 101.86Z" fill="#E6E6E6"/>
<path d="M529.987 97.332L501.168 92.7676L500.158 99.1455L528.977 103.71L529.987 97.332Z" fill="#7BC8C4"/>
<path d="M535.264 64.0274L506.445 59.4629L505.435 65.8408L534.254 70.4053L535.264 64.0274Z" fill="#7BC8C4"/>
<path d="M449.895 43.4824L437.211 123.561L581.306 146.383L593.989 66.3048L449.895 43.4824ZM592.465 72.8633L578.575 70.6634L579.551 64.5025L593.44 66.7023L592.465 72.8633ZM499.41 105.727L500.386 99.5651L528.637 104.04L527.661 110.201L499.41 105.727ZM527.586 110.674L526.611 116.836L498.359 112.361L499.335 106.199L527.586 110.674ZM531.789 84.1391L530.813 90.3007L502.562 85.8261L503.538 79.6638L531.789 84.1391ZM503.613 79.1918L504.589 73.0295L532.84 77.5041L531.864 83.6657L503.613 79.1918ZM501.511 92.4597L502.487 86.2973L530.739 90.7719L529.763 96.9335L501.511 92.4597ZM529.688 97.4069L528.712 103.569L500.46 99.0939L501.436 92.9316L529.688 97.4069ZM502.089 85.7505L488.203 83.5511L489.179 77.3895L503.065 79.5889L502.089 85.7505ZM502.014 86.2232L501.039 92.3848L487.152 90.1854L488.128 84.023L502.014 86.2232ZM500.964 92.8567L499.988 99.0183L486.101 96.819L487.077 90.6573L500.964 92.8567ZM499.913 99.4903L498.937 105.652L485.051 103.452L486.027 97.2909L499.913 99.4903ZM529.11 104.115L542.998 106.314L542.022 112.476L528.134 110.276L529.11 104.115ZM529.185 103.642L530.161 97.481L544.048 99.6807L543.073 105.842L529.185 103.642ZM530.235 97.0084L531.211 90.8468L545.099 93.0464L544.123 99.208L530.235 97.0084ZM531.286 90.3748L532.262 84.2132L546.15 86.4128L545.174 92.5745L531.286 90.3748ZM532.337 83.7413L533.313 77.5789L547.201 79.7786L546.225 85.9402L532.337 83.7413ZM533.387 77.1077L534.363 70.9454L548.251 73.145L547.275 79.3066L533.387 77.1077ZM532.915 77.0329L504.663 72.5583L505.639 66.3959L533.891 70.8705L532.915 77.0329ZM504.191 72.4834L490.304 70.284L491.28 64.1217L505.167 66.3211L504.191 72.4834ZM504.116 72.9561L503.14 79.1177L489.253 76.9183L490.23 70.7552L504.116 72.9561ZM488.778 76.8423L474.888 74.6424L475.864 68.48L489.754 70.6799L488.778 76.8423ZM488.703 77.3149L487.727 83.4765L473.838 81.2767L474.814 75.1143L488.703 77.3149ZM487.652 83.9485L486.676 90.1101L472.787 87.9102L473.763 81.7478L487.652 83.9485ZM486.602 90.582L485.626 96.7436L471.736 94.5438L472.712 88.3821L486.602 90.582ZM485.551 97.2155L484.575 103.377L470.686 101.177L471.662 95.0157L485.551 97.2155ZM484.5 103.849L483.524 110.011L469.635 107.812L470.611 101.65L484.5 103.849ZM484.973 103.924L498.862 106.124L497.886 112.286L484 110.087L484.973 103.924ZM497.812 112.757L496.836 118.919L482.949 116.72L483.925 110.559L497.812 112.757ZM498.284 112.832L526.536 117.307L525.56 123.468L497.309 118.994L498.284 112.832ZM527.009 117.382L540.896 119.581L539.921 125.743L526.033 123.543L527.009 117.382ZM527.083 116.909L528.059 110.749L541.947 112.948L540.971 119.11L527.083 116.909ZM542.421 113.022L556.311 115.222L555.335 121.384L541.445 119.184L542.421 113.022ZM542.496 112.549L543.472 106.389L557.361 108.589L556.385 114.751L542.496 112.549ZM543.547 105.916L544.523 99.7558L558.412 101.956L557.436 108.117L543.547 105.916ZM544.598 99.2824L545.573 93.1215L559.463 95.3213L558.487 101.483L544.598 99.2824ZM545.648 92.6488L546.624 86.4879L560.513 88.6878L559.537 94.8494L545.648 92.6488ZM546.699 86.0153L547.675 79.8537L561.564 82.0535L560.588 88.2151L546.699 86.0153ZM547.75 79.3817L548.725 73.2201L562.615 75.42L561.639 81.5816L547.75 79.3817ZM548.8 72.7482L549.776 66.5866L563.665 68.7864L562.69 74.9473L548.8 72.7482ZM548.328 72.6733L534.438 70.4735L535.414 64.3118L549.302 66.5115L548.328 72.6733ZM533.965 70.3986L505.714 65.924L506.69 59.7624L534.941 64.237L533.965 70.3986ZM505.241 65.8492L491.355 63.6498L492.331 57.4881L506.217 59.6875L505.241 65.8492ZM490.879 63.5744L476.99 61.3746L477.966 55.2129L491.855 57.4128L490.879 63.5744ZM490.804 64.0471L489.829 70.2087L475.939 68.0088L476.915 61.8465L490.804 64.0471ZM475.467 67.9332L461.577 65.7334L462.553 59.5718L476.442 61.7716L475.467 67.9332ZM475.392 68.4059L474.416 74.5675L460.526 72.3677L461.502 66.2053L475.392 68.4059ZM474.341 75.0394L473.365 81.2011L459.476 79.0012L460.452 72.8396L474.341 75.0394ZM473.29 81.673L472.315 87.8346L458.425 85.6347L459.401 79.4731L473.29 81.673ZM472.24 88.3065L471.264 94.4682L457.374 92.2683L458.35 86.1074L472.24 88.3065ZM471.189 94.9401L470.213 101.102L456.324 98.9018L457.3 92.7409L471.189 94.9401ZM470.138 101.574L469.162 107.737L455.273 105.537L456.249 99.3752L470.138 101.574ZM469.088 108.207L468.112 114.369L454.223 112.169L455.198 106.009L469.088 108.207ZM469.56 108.282L483.45 110.482L482.474 116.644L468.585 114.444L469.56 108.282ZM482.4 117.116L481.424 123.28L467.533 121.08L468.51 114.917L482.4 117.116ZM482.873 117.19L496.761 119.39L495.785 125.555L481.898 123.355L482.873 117.19ZM497.235 119.465L525.486 123.94L524.51 130.104L496.258 125.63L497.235 119.465ZM525.959 124.015L539.846 126.214L538.87 132.379L524.982 130.179L525.959 124.015ZM540.321 126.289L554.21 128.489L553.234 134.654L539.344 132.454L540.321 126.289ZM540.396 125.817L541.371 119.657L555.261 121.857L554.285 128.019L540.396 125.817ZM555.734 121.93L569.623 124.13L568.647 130.291L554.757 128.091L555.734 121.93ZM555.809 121.457L556.784 115.298L570.673 117.498L569.697 123.66L555.809 121.457ZM556.859 114.824L557.835 108.664L571.724 110.864L570.748 117.026L556.859 114.824ZM557.91 108.19L558.885 102.031L572.775 104.23L571.799 110.392L557.91 108.19ZM558.96 101.556L559.936 95.3963L573.826 97.5962L572.85 103.758L558.96 101.556ZM560.011 94.9229L560.987 88.7628L574.876 90.9626L573.9 97.1243L560.011 94.9229ZM561.062 88.2894L562.038 82.1285L575.927 84.3284L574.951 90.49L561.062 88.2894ZM562.112 81.6558L563.088 75.495L576.978 77.6948L576.002 83.8564L562.112 81.6558ZM563.163 75.0223L564.139 68.8614L578.028 71.0613L577.052 77.2222L563.163 75.0223ZM564.214 68.3888L565.19 62.2279L579.079 64.4277L578.103 70.5894L564.214 68.3888ZM563.741 68.3139L549.851 66.1139L550.827 59.953L564.717 62.153L563.741 68.3139ZM549.379 66.0392L535.489 63.8392L536.465 57.6783L550.353 59.8779L549.379 66.0392ZM535.017 63.7644L506.765 59.2897L507.741 53.1288L535.992 57.6034L535.017 63.7644ZM506.293 59.215L492.406 57.0155L493.381 50.8546L507.268 53.054L506.293 59.215ZM491.931 56.9403L478.041 54.7403L479.016 48.5794L492.906 50.7793L491.931 56.9403ZM477.569 54.6655L463.679 52.4656L464.654 46.3047L478.544 48.5045L477.569 54.6655ZM477.494 55.1382L476.518 61.2991L462.628 59.0991L463.604 52.9382L477.494 55.1382ZM462.155 59.0242L448.266 56.8244L449.242 50.6635L463.131 52.8634L462.155 59.0242ZM462.08 59.4969L461.105 65.6585L447.215 63.4587L448.191 57.297L462.08 59.4969ZM461.03 66.1304L460.054 72.2921L446.164 70.0922L447.14 63.9306L461.03 66.1304ZM459.979 72.764L459.003 78.9256L445.114 76.7257L446.09 70.5649L459.979 72.764ZM458.928 79.3975L457.953 85.5591L444.063 83.3593L445.039 77.1984L458.928 79.3975ZM457.878 86.0311L456.902 92.1934L443.012 89.9936L443.988 83.8327L457.878 86.0311ZM456.827 92.6646L455.851 98.8262L441.962 96.6264L442.938 90.4662L456.827 92.6646ZM455.777 99.2981L454.801 105.46L440.911 103.26L441.887 97.1005L455.777 99.2981ZM454.726 105.932L453.75 112.093L439.861 109.893L440.836 103.734L454.726 105.932ZM453.675 112.565L452.699 118.731L438.809 116.531L439.785 110.368L453.675 112.565ZM454.148 112.64L468.037 114.84L467.061 121.005L453.171 118.805L454.148 112.64ZM466.987 121.474L466.011 127.635L452.121 125.435L453.097 119.277L466.987 121.474ZM467.459 121.549L481.349 123.749L480.373 129.91L466.483 127.71L467.459 121.549ZM481.821 123.824L495.711 126.024L494.735 132.185L480.848 129.985L481.821 123.824ZM496.183 126.099L524.435 130.573L523.459 136.734L495.208 132.259L496.183 126.099ZM524.907 130.648L538.795 132.848L537.82 139.009L523.932 136.809L524.907 130.648ZM539.269 132.923L553.159 135.123L552.183 141.283L538.294 139.084L539.269 132.923ZM553.632 135.197L567.521 137.397L566.545 143.558L552.656 141.358L553.632 135.197ZM553.706 134.725L554.682 128.565L568.571 130.765L567.595 136.928L553.706 134.725ZM569.044 130.838L582.934 133.038L581.957 139.203L568.068 137.003L569.044 130.838ZM569.119 130.365L570.095 124.207L583.984 126.406L583.008 132.568L569.119 130.365ZM570.17 123.732L571.145 117.573L585.035 119.773L584.059 125.935L570.17 123.732ZM571.221 117.098L572.196 110.939L586.085 113.139L585.11 119.3L571.221 117.098ZM572.271 110.465L573.247 104.305L587.136 106.505L586.16 112.667L572.271 110.465ZM573.322 103.831L574.297 97.6709L588.187 99.8708L587.211 106.032L573.322 103.831ZM574.372 97.1975L575.348 91.0374L589.238 93.2373L588.262 99.3989L574.372 97.1975ZM575.423 90.564L576.399 84.4031L590.288 86.603L589.312 92.7646L575.423 90.564ZM576.474 83.9304L577.45 77.7696L591.339 79.9694L590.363 86.1311L576.474 83.9304ZM577.524 77.2969L578.5 71.136L592.39 73.3359L591.414 79.4968L577.524 77.2969ZM464.182 46.2298L463.206 52.3914L449.316 50.1916L450.292 44.0299L464.182 46.2298ZM438.735 117.002L452.624 119.202L451.648 125.363L437.759 123.163L438.735 117.002ZM567.017 143.635L567.993 137.474L581.883 139.674L580.907 145.835L567.017 143.635Z" fill="#E6E6E6"/>
<path d="M103.662 121.422C94.6542 111.858 82.2533 106.21 69.125 105.691V155.96L103.662 121.422Z" fill="#090814"/>
<path d="M103.662 127.682L69.125 162.219H117.392C117.409 149.373 112.495 137.01 103.662 127.682Z" fill="#E4E4E4"/>
<path d="M117.445 165.832C117.447 168.965 117.158 172.092 116.58 175.171C116.535 175.415 116.487 175.657 116.438 175.898C115.348 181.27 113.381 186.425 110.615 191.157C110.465 191.411 110.315 191.665 110.165 191.914C107.439 196.399 104.031 200.431 100.062 203.865C99.8656 204.037 99.6691 204.206 99.4696 204.373C90.9414 211.55 80.2631 215.677 69.125 216.103V165.832H117.445Z" fill="#F0F0F0"/>
<path d="M64.2435 216.143C64.9118 216.143 65.5756 216.126 66.2379 216.101V165.83L29.6797 202.388C39.011 211.236 51.3844 216.16 64.2435 216.143Z" fill="#CACACA"/>
<path d="M64.3093 111.906C57.702 111.906 51.1595 113.208 45.0551 115.736C38.9508 118.265 33.4043 121.971 28.7322 126.643C24.0602 131.315 20.3542 136.862 17.8257 142.966C15.2973 149.07 13.996 155.613 13.9961 162.22H66.3563V111.951C65.6767 111.927 64.9957 111.906 64.3093 111.906Z" fill="#4E9F8A"/>
<path d="M52.3076 165.831L41.7314 176.407L41.3856 176.753L41.3781 176.76L32.1521 185.982L31.8011 186.333L21.8347 196.299L21.4837 196.65L15.7478 202.384C10.7669 197.687 6.79991 192.021 4.09097 185.734C1.38203 179.447 -0.0115051 172.672 -0.00387509 165.826L52.3076 165.831Z" fill="#4E9F8A"/>
<path d="M21.4872 196.654C13.2317 188.478 8.40771 177.459 8 165.848L8.9946 165.812C9.39364 177.171 14.1127 187.95 22.1885 195.948L21.4872 196.654Z" fill="#3F3D56"/>
<path d="M32.1592 185.995L31.4377 186.676C25.938 180.869 22.0564 173.722 20.1797 165.947L20.6628 165.83H21.1751C23.0208 173.387 26.8028 180.333 32.1488 185.984L32.1592 185.995Z" fill="#3F3D56"/>
<path d="M41.7578 176.445L41.3827 176.756L41.3752 176.764L40.9919 177.082C38.2003 173.742 35.8999 170.021 34.1602 166.031L34.6155 165.832H35.1608C36.8462 169.647 39.0574 173.207 41.73 176.408C41.7384 176.42 41.7477 176.432 41.7578 176.443V176.445Z" fill="#3F3D56"/>
<path d="M255.285 92.4878L192.318 114.169C191.525 114.441 190.656 114.387 189.902 114.02C189.149 113.652 188.572 113.001 188.298 112.209L158.865 26.7303C158.593 25.9372 158.647 25.0687 159.015 24.3151C159.382 23.5616 160.034 22.9846 160.826 22.7107L223.793 1.02939C224.586 0.757367 225.455 0.811009 226.208 1.17854C226.962 1.54607 227.539 2.19748 227.813 2.98988L257.245 88.4681C257.517 89.2612 257.464 90.1297 257.096 90.8833C256.728 91.6369 256.077 92.2139 255.285 92.4878Z" fill="#F2F2F2"/>
<path d="M255.285 92.4878L192.318 114.169C191.525 114.441 190.656 114.387 189.902 114.02C189.149 113.652 188.572 113.001 188.298 112.209L158.865 26.7303C158.593 25.9372 158.647 25.0687 159.015 24.3151C159.382 23.5616 160.034 22.9846 160.826 22.7107L223.793 1.02939C224.586 0.757367 225.455 0.811009 226.208 1.17854C226.962 1.54607 227.539 2.19748 227.813 2.98988L257.245 88.4681C257.517 89.2612 257.464 90.1297 257.096 90.8833C256.728 91.6369 256.077 92.2139 255.285 92.4878ZM160.948 23.0653C160.25 23.3073 159.676 23.816 159.353 24.4799C159.029 25.1439 158.981 25.9092 159.22 26.6082L188.653 112.086C188.894 112.786 189.403 113.361 190.068 113.685C190.733 114.009 191.5 114.056 192.199 113.816L255.164 92.136C255.863 91.8944 256.438 91.3853 256.762 90.7203C257.086 90.0554 257.134 89.289 256.893 88.5893L227.461 3.11101C227.219 2.41253 226.709 1.83854 226.045 1.51482C225.38 1.19111 224.614 1.14406 223.915 1.38399L160.948 23.0653Z" fill="#D6D6E3"/>
<path d="M219.245 27.4272L201.427 33.5623C201.053 33.691 200.644 33.666 200.288 33.4926C199.933 33.3193 199.661 33.0119 199.532 32.6381C199.404 32.2642 199.429 31.8546 199.602 31.4992C199.775 31.1438 200.083 30.8719 200.456 30.7432L218.274 24.6081C218.648 24.4793 219.058 24.5044 219.413 24.6777C219.768 24.851 220.04 25.1584 220.169 25.5323C220.298 25.9061 220.273 26.3158 220.099 26.6711C219.926 27.0265 219.619 27.2985 219.245 27.4272Z" fill="#4E9F8A"/>
<path d="M226.7 30.183L203.068 38.3201C202.694 38.4488 202.284 38.4238 201.929 38.2505C201.574 38.0771 201.302 37.7697 201.173 37.3959C201.044 37.0221 201.069 36.6124 201.243 36.257C201.416 35.9017 201.723 35.6297 202.097 35.501L225.728 27.3641C226.102 27.2354 226.512 27.2605 226.867 27.4338C227.222 27.6071 227.494 27.9145 227.623 28.2884C227.752 28.6622 227.727 29.0719 227.553 29.4272C227.38 29.7826 227.073 30.0543 226.7 30.183Z" fill="#4E9F8A"/>
<path d="M227.139 50.4388L182.763 65.7185C182.389 65.8473 181.98 65.8222 181.624 65.6489C181.269 65.4756 180.997 65.1682 180.868 64.7943C180.739 64.4205 180.764 64.0108 180.938 63.6555C181.111 63.3001 181.419 63.0281 181.792 62.8994L226.168 47.6197C226.542 47.4909 226.952 47.516 227.307 47.6893C227.662 47.8626 227.934 48.17 228.063 48.5439C228.192 48.9177 228.167 49.3274 227.993 49.6827C227.82 50.0381 227.513 50.3101 227.139 50.4388Z" fill="#D6D6E3"/>
<path d="M234.594 53.1946L184.404 70.4764C184.03 70.6051 183.62 70.58 183.265 70.4067C182.909 70.2334 182.638 69.926 182.509 69.5521C182.38 69.1783 182.405 68.7686 182.578 68.4133C182.752 68.0579 183.059 67.7859 183.433 67.6572L233.623 50.3755C233.997 50.2468 234.406 50.2718 234.762 50.4451C235.117 50.6185 235.389 50.9259 235.518 51.2997C235.646 51.6735 235.621 52.0832 235.448 52.4386C235.275 52.7939 234.967 53.0659 234.594 53.1946Z" fill="#D6D6E3"/>
<path d="M232.545 66.1302L188.169 81.41C187.795 81.5387 187.386 81.5136 187.03 81.3403C186.675 81.167 186.403 80.8596 186.274 80.4857C186.146 80.1119 186.171 79.7022 186.344 79.3469C186.517 78.9915 186.825 78.7195 187.199 78.5908L231.574 63.3111C231.948 63.1823 232.358 63.2074 232.713 63.3807C233.069 63.554 233.34 63.8614 233.469 64.2353C233.598 64.6091 233.573 65.0188 233.4 65.3741C233.226 65.7295 232.919 66.0015 232.545 66.1302Z" fill="#D6D6E3"/>
<path d="M239.996 68.886L189.806 86.1678C189.432 86.2965 189.023 86.2714 188.667 86.0981C188.312 85.9248 188.04 85.6174 187.911 85.2436C187.782 84.8697 187.807 84.46 187.981 84.1047C188.154 83.7493 188.462 83.4774 188.835 83.3486L239.025 66.0669C239.399 65.9382 239.809 65.9632 240.164 66.1366C240.519 66.3099 240.791 66.6173 240.92 66.9911C241.049 67.365 241.024 67.7746 240.85 68.13C240.677 68.4853 240.37 68.7573 239.996 68.886Z" fill="#D6D6E3"/>
<path d="M237.947 81.8216L193.572 97.1014C193.198 97.2301 192.788 97.205 192.433 97.0317C192.077 96.8584 191.805 96.551 191.677 96.1771C191.548 95.8033 191.573 95.3936 191.746 95.0383C191.92 94.6829 192.227 94.4109 192.601 94.2822L236.977 79.0025C237.35 78.8737 237.76 78.8988 238.115 79.0721C238.471 79.2454 238.743 79.5528 238.872 79.9267C239 80.3005 238.975 80.7102 238.802 81.0655C238.629 81.4209 238.321 81.6929 237.947 81.8216Z" fill="#D6D6E3"/>
<path d="M245.398 84.5774L195.208 101.859C194.835 101.988 194.425 101.963 194.07 101.79C193.714 101.616 193.442 101.309 193.313 100.935C193.185 100.561 193.21 100.151 193.383 99.7961C193.556 99.4407 193.864 99.1688 194.238 99.04L244.427 81.7583C244.801 81.6296 245.211 81.6546 245.566 81.828C245.922 82.0013 246.194 82.3087 246.322 82.6825C246.451 83.0564 246.426 83.466 246.253 83.8214C246.079 84.1768 245.772 84.4487 245.398 84.5774Z" fill="#D6D6E3"/>
<path d="M172.395 34.5179L192.389 27.6333C192.882 27.4635 193.423 27.4966 193.891 27.7252C194.36 27.9539 194.719 28.3594 194.889 28.8526L199.211 41.4057C199.295 41.6499 199.33 41.9083 199.315 42.1661C199.299 42.4239 199.233 42.676 199.119 42.9082C199.006 43.1403 198.848 43.3479 198.655 43.519C198.461 43.6901 198.236 43.8215 197.992 43.9056L177.998 50.7902C177.505 50.9599 176.965 50.927 176.496 50.6986C176.027 50.4702 175.668 50.0651 175.498 49.5723L171.175 37.0178C171.006 36.5246 171.039 35.9841 171.267 35.5153C171.496 35.0465 171.902 34.6877 172.395 34.5179Z" fill="#4E9F8A"/>
</svg>
