<svg width="30" height="30" viewBox="0 0 30 30" fill="none" xmlns="http://www.w3.org/2000/svg">
<path d="M15 19.0625C12.7625 19.0625 10.9375 17.2375 10.9375 15C10.9375 12.7625 12.7625 10.9375 15 10.9375C17.2375 10.9375 19.0625 12.7625 19.0625 15C19.0625 17.2375 17.2375 19.0625 15 19.0625ZM15 12.8125C13.8 12.8125 12.8125 13.8 12.8125 15C12.8125 16.2 13.8 17.1875 15 17.1875C16.2 17.1875 17.1875 16.2 17.1875 15C17.1875 13.8 16.2 12.8125 15 12.8125Z" fill="white"/>
<path d="M23.125 19.0625C22.6125 19.0625 22.1875 18.6375 22.1875 18.125V11.875C22.1875 11.3625 22.6125 10.9375 23.125 10.9375C23.6375 10.9375 24.0625 11.3625 24.0625 11.875V18.125C24.0625 18.6375 23.6375 19.0625 23.125 19.0625Z" fill="white"/>
<path d="M6.25 28.4375C4.175 28.4375 2.225 27.3375 1.175 25.55C0.612503 24.65 0.3125 23.5875 0.3125 22.5C0.3125 19.225 2.975 16.5625 6.25 16.5625C9.525 16.5625 12.1875 19.225 12.1875 22.5C12.1875 23.5875 11.8875 24.65 11.325 25.5625C10.275 27.3375 8.325 28.4375 6.25 28.4375ZM6.25 18.4375C4.0125 18.4375 2.1875 20.2625 2.1875 22.5C2.1875 23.2375 2.3875 23.9625 2.775 24.5875C3.5 25.8125 4.8375 26.5625 6.25 26.5625C7.6625 26.5625 9 25.8125 9.725 24.6C10.1125 23.9625 10.3125 23.25 10.3125 22.5C10.3125 20.2625 8.4875 18.4375 6.25 18.4375Z" fill="white"/>
<path d="M8.12421 23.4126H4.38672C3.87422 23.4126 3.44922 22.9876 3.44922 22.4751C3.44922 21.9626 3.87422 21.5376 4.38672 21.5376H8.12421C8.63671 21.5376 9.06171 21.9626 9.06171 22.4751C9.06171 22.9876 8.63671 23.4126 8.12421 23.4126Z" fill="white"/>
<path d="M6.25 25.3249C5.7375 25.3249 5.3125 24.8999 5.3125 24.3874V20.6499C5.3125 20.1374 5.7375 19.7124 6.25 19.7124C6.7625 19.7124 7.1875 20.1374 7.1875 20.6499V24.3874C7.1875 24.9124 6.7625 25.3249 6.25 25.3249Z" fill="white"/>
<path d="M21.25 25.9375H10.625C10.1125 25.9375 9.6875 25.5125 9.6875 25C9.6875 24.4875 10.1125 24.0625 10.625 24.0625H21.25C24.825 24.0625 26.5625 22.325 26.5625 18.75V11.25C26.5625 7.675 24.825 5.9375 21.25 5.9375H8.75C5.175 5.9375 3.4375 7.675 3.4375 11.25V19.125C3.4375 19.6375 3.0125 20.0625 2.5 20.0625C1.9875 20.0625 1.5625 19.6375 1.5625 19.125V11.25C1.5625 6.6875 4.1875 4.0625 8.75 4.0625H21.25C25.8125 4.0625 28.4375 6.6875 28.4375 11.25V18.75C28.4375 23.3125 25.8125 25.9375 21.25 25.9375Z" fill="white"/>
</svg>
