<svg width="200" height="196" viewBox="0 0 200 196" fill="none" xmlns="http://www.w3.org/2000/svg">
<g clip-path="url(#clip0_1342_50118)">
<path d="M126.968 43.9057H73.0766C71.8485 43.9072 70.6711 44.3958 69.8027 45.2641C68.9343 46.1325 68.4458 47.3099 68.4443 48.538V168.312L67.8267 168.5L54.6063 172.549C53.9797 172.74 53.303 172.675 52.7246 172.367C52.1462 172.06 51.7135 171.535 51.5213 170.909L12.1967 42.4574C12.0053 41.8308 12.0705 41.1539 12.378 40.5754C12.6855 39.9969 13.2101 39.5642 13.8365 39.3723L34.2091 33.1343L93.27 15.0562L113.643 8.81814C113.953 8.72272 114.278 8.68938 114.601 8.72002C114.924 8.75066 115.238 8.84468 115.524 8.9967C115.811 9.14873 116.065 9.35577 116.271 9.60597C116.478 9.85618 116.633 10.1446 116.728 10.4549L126.78 43.2881L126.968 43.9057Z" fill="#F2F2F2"/>
<path d="M138.728 43.2873L126.613 3.71567C126.411 3.05633 126.082 2.44318 125.643 1.91123C125.204 1.37929 124.665 0.938994 124.056 0.615496C123.448 0.291999 122.781 0.0916414 122.095 0.0258795C121.408 -0.0398823 120.716 0.0302406 120.057 0.232234L91.414 8.9995L32.3562 27.0806L3.71362 35.851C2.38304 36.2596 1.26892 37.1794 0.615817 38.4086C-0.0372842 39.6377 -0.176012 41.0758 0.23009 42.4072L41.6361 177.647C41.966 178.721 42.6316 179.662 43.5354 180.331C44.4391 180.999 45.5333 181.361 46.6575 181.362C47.1778 181.362 47.6952 181.284 48.1922 181.13L67.8267 175.121L68.4444 174.929V174.284L67.8267 174.472L48.0101 180.54C46.8356 180.898 45.567 180.776 44.4827 180.2C43.3984 179.624 42.5868 178.641 42.226 177.468L0.823142 42.225C0.644366 41.6434 0.582058 41.0323 0.639783 40.4267C0.697509 39.8211 0.874129 39.2328 1.15954 38.6955C1.44496 38.1582 1.83356 37.6825 2.30308 37.2956C2.7726 36.9087 3.31382 36.6183 3.89576 36.4408L32.5384 27.6705L91.5963 9.59243L120.239 0.822077C120.68 0.687372 121.139 0.618688 121.601 0.618258C122.591 0.620482 123.555 0.939783 124.351 1.52939C125.146 2.119 125.732 2.94794 126.023 3.89479L138.082 43.2873L138.274 43.9049H138.916L138.728 43.2873Z" fill="#3F3D56"/>
<path d="M37.8855 39.4739C37.2903 39.4734 36.7109 39.2823 36.2323 38.9284C35.7537 38.5746 35.4011 38.0767 35.2262 37.5077L31.2485 24.5153C31.1417 24.1663 31.1046 23.7997 31.1394 23.4363C31.1742 23.073 31.2803 22.7201 31.4515 22.3978C31.6227 22.0754 31.8558 21.79 32.1374 21.5577C32.419 21.3255 32.7435 21.151 33.0925 21.0442L87.4252 4.4102C88.13 4.19512 88.8914 4.26847 89.5422 4.61416C90.193 4.95984 90.6801 5.54962 90.8965 6.25404L94.8742 19.2466C95.0891 19.9514 95.0157 20.7127 94.67 21.3635C94.3244 22.0143 93.7347 22.5014 93.0303 22.7179L38.6975 39.3519C38.4344 39.4326 38.1607 39.4737 37.8855 39.4739Z" fill="#4E9F8A"/>
<path d="M58.7222 13.8819C62.1333 13.8819 64.8985 11.1167 64.8985 7.7056C64.8985 4.29452 62.1333 1.5293 58.7222 1.5293C55.3111 1.5293 52.5459 4.29452 52.5459 7.7056C52.5459 11.1167 55.3111 13.8819 58.7222 13.8819Z" fill="#4E9F8A"/>
<path d="M58.7218 11.617C60.8818 11.617 62.6328 9.86595 62.6328 7.70595C62.6328 5.54595 60.8818 3.79492 58.7218 3.79492C56.5618 3.79492 54.8108 5.54595 54.8108 7.70595C54.8108 9.86595 56.5618 11.617 58.7218 11.617Z" fill="white"/>
<path d="M186.103 179.785H81.7236C81.0276 179.784 80.3604 179.507 79.8683 179.015C79.3762 178.523 79.0994 177.856 79.0986 177.16V52.0898C79.0994 51.3938 79.3762 50.7266 79.8683 50.2345C80.3604 49.7424 81.0276 49.4656 81.7236 49.4648H186.103C186.799 49.4656 187.466 49.7425 187.958 50.2346C188.45 50.7267 188.727 51.3938 188.728 52.0898V177.16C188.727 177.856 188.45 178.523 187.958 179.015C187.466 179.507 186.799 179.784 186.103 179.785Z" fill="#E6E6E6"/>
<path d="M95.996 119V110.06H99.152C99.744 110.06 100.264 110.172 100.712 110.396C101.16 110.62 101.508 110.94 101.756 111.356C102.012 111.772 102.14 112.26 102.14 112.82C102.14 113.38 102.012 113.868 101.756 114.284C101.508 114.692 101.16 115.012 100.712 115.244C100.272 115.468 99.752 115.58 99.152 115.58H97.172V119H95.996ZM97.172 114.5H99.188C99.548 114.5 99.86 114.432 100.124 114.296C100.388 114.16 100.592 113.964 100.736 113.708C100.88 113.452 100.952 113.156 100.952 112.82C100.952 112.476 100.88 112.18 100.736 111.932C100.592 111.676 100.388 111.48 100.124 111.344C99.86 111.208 99.548 111.14 99.188 111.14H97.172V114.5ZM105.049 119.144C104.625 119.144 104.249 119.068 103.921 118.916C103.601 118.756 103.349 118.54 103.165 118.268C102.981 117.988 102.889 117.668 102.889 117.308C102.889 116.964 102.961 116.656 103.105 116.384C103.257 116.104 103.489 115.868 103.801 115.676C104.121 115.484 104.521 115.348 105.001 115.268L107.401 114.872V115.808L105.253 116.168C104.837 116.24 104.533 116.372 104.341 116.564C104.157 116.756 104.065 116.992 104.065 117.272C104.065 117.536 104.169 117.756 104.377 117.932C104.593 118.108 104.861 118.196 105.181 118.196C105.589 118.196 105.941 118.112 106.237 117.944C106.541 117.768 106.777 117.532 106.945 117.236C107.121 116.94 107.209 116.612 107.209 116.252V114.608C107.209 114.256 107.077 113.972 106.813 113.756C106.557 113.532 106.217 113.42 105.793 113.42C105.425 113.42 105.097 113.516 104.809 113.708C104.529 113.892 104.321 114.14 104.185 114.452L103.213 113.948C103.333 113.652 103.525 113.388 103.789 113.156C104.053 112.916 104.361 112.728 104.713 112.592C105.065 112.456 105.433 112.388 105.817 112.388C106.313 112.388 106.749 112.484 107.125 112.676C107.501 112.86 107.793 113.12 108.001 113.456C108.217 113.784 108.325 114.168 108.325 114.608V119H107.233V117.776L107.437 117.848C107.301 118.104 107.117 118.328 106.885 118.52C106.653 118.712 106.381 118.864 106.069 118.976C105.757 119.088 105.417 119.144 105.049 119.144ZM112.371 119.144C111.723 119.144 111.159 118.984 110.679 118.664C110.199 118.344 109.859 117.912 109.659 117.368L110.547 116.936C110.731 117.32 110.983 117.624 111.303 117.848C111.623 118.072 111.979 118.184 112.371 118.184C112.723 118.184 113.015 118.1 113.247 117.932C113.479 117.764 113.595 117.544 113.595 117.272C113.595 117.08 113.539 116.928 113.427 116.816C113.323 116.696 113.195 116.604 113.043 116.54C112.891 116.468 112.751 116.416 112.623 116.384L111.651 116.108C111.067 115.94 110.639 115.7 110.367 115.388C110.103 115.076 109.971 114.712 109.971 114.296C109.971 113.912 110.067 113.58 110.259 113.3C110.459 113.012 110.727 112.788 111.063 112.628C111.407 112.468 111.791 112.388 112.215 112.388C112.783 112.388 113.291 112.532 113.739 112.82C114.195 113.108 114.519 113.512 114.711 114.032L113.799 114.452C113.655 114.116 113.439 113.852 113.151 113.66C112.863 113.46 112.539 113.36 112.179 113.36C111.851 113.36 111.591 113.444 111.399 113.612C111.207 113.772 111.111 113.976 111.111 114.224C111.111 114.408 111.159 114.56 111.255 114.68C111.351 114.792 111.467 114.88 111.603 114.944C111.739 115 111.871 115.048 111.999 115.088L113.055 115.4C113.583 115.552 113.991 115.788 114.279 116.108C114.575 116.428 114.723 116.812 114.723 117.26C114.723 117.62 114.623 117.944 114.423 118.232C114.223 118.52 113.947 118.744 113.595 118.904C113.243 119.064 112.835 119.144 112.371 119.144ZM121.199 119.144C120.591 119.144 120.043 118.996 119.555 118.7C119.075 118.404 118.695 118 118.415 117.488C118.135 116.976 117.995 116.404 117.995 115.772C117.995 115.124 118.135 114.548 118.415 114.044C118.695 113.532 119.075 113.128 119.555 112.832C120.043 112.536 120.591 112.388 121.199 112.388C121.735 112.388 122.211 112.504 122.627 112.736C123.043 112.96 123.371 113.264 123.611 113.648L123.431 113.924V109.916H124.559V119H123.467V117.62L123.611 117.812C123.387 118.236 123.059 118.564 122.627 118.796C122.203 119.028 121.727 119.144 121.199 119.144ZM121.295 118.064C121.703 118.064 122.067 117.964 122.387 117.764C122.707 117.564 122.959 117.292 123.143 116.948C123.335 116.596 123.431 116.204 123.431 115.772C123.431 115.332 123.335 114.94 123.143 114.596C122.959 114.244 122.707 113.968 122.387 113.768C122.067 113.568 121.703 113.468 121.295 113.468C120.895 113.468 120.531 113.572 120.203 113.78C119.883 113.98 119.631 114.252 119.447 114.596C119.263 114.932 119.171 115.324 119.171 115.772C119.171 116.204 119.263 116.596 119.447 116.948C119.631 117.292 119.883 117.564 120.203 117.764C120.523 117.964 120.887 118.064 121.295 118.064ZM129.262 119.144C128.638 119.144 128.082 118.996 127.594 118.7C127.106 118.404 126.722 118 126.442 117.488C126.162 116.968 126.022 116.388 126.022 115.748C126.022 115.1 126.158 114.524 126.43 114.02C126.71 113.516 127.086 113.12 127.558 112.832C128.038 112.536 128.574 112.388 129.166 112.388C129.646 112.388 130.07 112.476 130.438 112.652C130.814 112.82 131.13 113.052 131.386 113.348C131.65 113.636 131.85 113.968 131.986 114.344C132.13 114.712 132.202 115.096 132.202 115.496C132.202 115.584 132.194 115.684 132.178 115.796C132.17 115.9 132.158 116 132.142 116.096H126.838V115.136H131.494L130.966 115.568C131.038 115.152 130.998 114.78 130.846 114.452C130.694 114.124 130.47 113.864 130.174 113.672C129.878 113.48 129.542 113.384 129.166 113.384C128.79 113.384 128.446 113.48 128.134 113.672C127.822 113.864 127.578 114.14 127.402 114.5C127.234 114.852 127.166 115.272 127.198 115.76C127.166 116.232 127.238 116.648 127.414 117.008C127.598 117.36 127.854 117.636 128.182 117.836C128.518 118.028 128.882 118.124 129.274 118.124C129.706 118.124 130.07 118.024 130.366 117.824C130.662 117.624 130.902 117.368 131.086 117.056L132.022 117.536C131.894 117.832 131.694 118.104 131.422 118.352C131.158 118.592 130.842 118.784 130.474 118.928C130.114 119.072 129.71 119.144 129.262 119.144ZM135.731 119V112.532H136.823V113.72L136.703 113.552C136.855 113.184 137.087 112.912 137.399 112.736C137.711 112.552 138.091 112.46 138.539 112.46H138.935V113.516H138.371C137.915 113.516 137.547 113.66 137.267 113.948C136.987 114.228 136.847 114.628 136.847 115.148V119H135.731ZM142.903 119.144C142.279 119.144 141.723 118.996 141.235 118.7C140.747 118.404 140.363 118 140.083 117.488C139.803 116.968 139.663 116.388 139.663 115.748C139.663 115.1 139.799 114.524 140.071 114.02C140.351 113.516 140.727 113.12 141.199 112.832C141.679 112.536 142.215 112.388 142.807 112.388C143.287 112.388 143.711 112.476 144.079 112.652C144.455 112.82 144.771 113.052 145.027 113.348C145.291 113.636 145.491 113.968 145.627 114.344C145.771 114.712 145.842 115.096 145.842 115.496C145.842 115.584 145.835 115.684 145.819 115.796C145.811 115.9 145.799 116 145.783 116.096H140.479V115.136H145.135L144.607 115.568C144.679 115.152 144.639 114.78 144.487 114.452C144.335 114.124 144.111 113.864 143.815 113.672C143.519 113.48 143.183 113.384 142.807 113.384C142.431 113.384 142.087 113.48 141.775 113.672C141.463 113.864 141.219 114.14 141.043 114.5C140.875 114.852 140.807 115.272 140.839 115.76C140.807 116.232 140.879 116.648 141.055 117.008C141.239 117.36 141.495 117.636 141.823 117.836C142.159 118.028 142.523 118.124 142.915 118.124C143.347 118.124 143.711 118.024 144.007 117.824C144.303 117.624 144.543 117.368 144.727 117.056L145.663 117.536C145.535 117.832 145.335 118.104 145.062 118.352C144.799 118.592 144.483 118.784 144.115 118.928C143.755 119.072 143.351 119.144 142.903 119.144ZM149.614 119.144C148.966 119.144 148.402 118.984 147.922 118.664C147.442 118.344 147.102 117.912 146.902 117.368L147.79 116.936C147.974 117.32 148.226 117.624 148.546 117.848C148.866 118.072 149.222 118.184 149.614 118.184C149.966 118.184 150.258 118.1 150.49 117.932C150.722 117.764 150.838 117.544 150.838 117.272C150.838 117.08 150.782 116.928 150.67 116.816C150.566 116.696 150.438 116.604 150.286 116.54C150.134 116.468 149.994 116.416 149.866 116.384L148.894 116.108C148.31 115.94 147.882 115.7 147.61 115.388C147.346 115.076 147.214 114.712 147.214 114.296C147.214 113.912 147.31 113.58 147.502 113.3C147.702 113.012 147.97 112.788 148.306 112.628C148.65 112.468 149.034 112.388 149.458 112.388C150.026 112.388 150.534 112.532 150.982 112.82C151.438 113.108 151.762 113.512 151.954 114.032L151.042 114.452C150.898 114.116 150.682 113.852 150.394 113.66C150.106 113.46 149.782 113.36 149.422 113.36C149.094 113.36 148.834 113.444 148.642 113.612C148.45 113.772 148.354 113.976 148.354 114.224C148.354 114.408 148.402 114.56 148.498 114.68C148.594 114.792 148.71 114.88 148.846 114.944C148.982 115 149.114 115.048 149.242 115.088L150.298 115.4C150.826 115.552 151.234 115.788 151.522 116.108C151.818 116.428 151.966 116.812 151.966 117.26C151.966 117.62 151.866 117.944 151.666 118.232C151.466 118.52 151.19 118.744 150.838 118.904C150.486 119.064 150.078 119.144 149.614 119.144ZM155.719 119.144C155.255 119.144 154.835 119.036 154.459 118.82C154.091 118.604 153.803 118.304 153.595 117.92C153.395 117.528 153.295 117.08 153.295 116.576V112.532H154.411V116.456C154.411 116.776 154.475 117.056 154.603 117.296C154.739 117.536 154.923 117.724 155.155 117.86C155.395 117.996 155.667 118.064 155.971 118.064C156.275 118.064 156.543 117.996 156.775 117.86C157.015 117.724 157.199 117.528 157.327 117.272C157.463 117.016 157.531 116.712 157.531 116.36V112.532H158.659V119H157.567V117.74L157.747 117.848C157.595 118.256 157.335 118.576 156.967 118.808C156.607 119.032 156.191 119.144 155.719 119.144ZM160.387 119V109.916H161.503V119H160.387ZM165.863 119.072C165.231 119.072 164.743 118.892 164.399 118.532C164.063 118.172 163.895 117.664 163.895 117.008V113.6H162.719V112.532H162.959C163.247 112.532 163.475 112.444 163.643 112.268C163.811 112.092 163.895 111.86 163.895 111.572V111.044H165.011V112.532H166.463V113.6H165.011V116.972C165.011 117.188 165.043 117.376 165.107 117.536C165.179 117.696 165.295 117.824 165.455 117.92C165.615 118.008 165.827 118.052 166.091 118.052C166.147 118.052 166.215 118.048 166.295 118.04C166.383 118.032 166.463 118.024 166.535 118.016V119C166.431 119.024 166.315 119.04 166.187 119.048C166.059 119.064 165.951 119.072 165.863 119.072ZM169.807 119.144C169.383 119.144 169.007 119.068 168.679 118.916C168.359 118.756 168.107 118.54 167.923 118.268C167.739 117.988 167.647 117.668 167.647 117.308C167.647 116.964 167.719 116.656 167.863 116.384C168.015 116.104 168.247 115.868 168.559 115.676C168.879 115.484 169.279 115.348 169.759 115.268L172.159 114.872V115.808L170.011 116.168C169.595 116.24 169.291 116.372 169.099 116.564C168.915 116.756 168.823 116.992 168.823 117.272C168.823 117.536 168.927 117.756 169.135 117.932C169.351 118.108 169.619 118.196 169.939 118.196C170.347 118.196 170.699 118.112 170.995 117.944C171.299 117.768 171.535 117.532 171.703 117.236C171.879 116.94 171.967 116.612 171.967 116.252V114.608C171.967 114.256 171.835 113.972 171.571 113.756C171.315 113.532 170.975 113.42 170.551 113.42C170.183 113.42 169.855 113.516 169.567 113.708C169.287 113.892 169.079 114.14 168.943 114.452L167.971 113.948C168.091 113.652 168.283 113.388 168.547 113.156C168.811 112.916 169.119 112.728 169.471 112.592C169.823 112.456 170.191 112.388 170.575 112.388C171.071 112.388 171.507 112.484 171.883 112.676C172.259 112.86 172.551 113.12 172.759 113.456C172.975 113.784 173.083 114.168 173.083 114.608V119H171.991V117.776L172.195 117.848C172.059 118.104 171.875 118.328 171.643 118.52C171.411 118.712 171.139 118.864 170.827 118.976C170.515 119.088 170.175 119.144 169.807 119.144ZM177.324 119.072C176.692 119.072 176.204 118.892 175.86 118.532C175.524 118.172 175.356 117.664 175.356 117.008V113.6H174.18V112.532H174.42C174.708 112.532 174.936 112.444 175.104 112.268C175.272 112.092 175.356 111.86 175.356 111.572V111.044H176.472V112.532H177.924V113.6H176.472V116.972C176.472 117.188 176.504 117.376 176.568 117.536C176.64 117.696 176.756 117.824 176.916 117.92C177.076 118.008 177.288 118.052 177.552 118.052C177.608 118.052 177.676 118.048 177.756 118.04C177.844 118.032 177.924 118.024 177.996 118.016V119C177.892 119.024 177.776 119.04 177.648 119.048C177.52 119.064 177.412 119.072 177.324 119.072Z" fill="black"/>
<path d="M138.082 43.2871H73.0768C71.685 43.2891 70.3508 43.8428 69.3667 44.8269C68.3826 45.811 67.8289 47.1452 67.8269 48.537V174.472L68.4445 174.283V48.537C68.446 47.3089 68.9345 46.1315 69.8029 45.2631C70.6713 44.3948 71.8487 43.9062 73.0768 43.9047H138.274L138.082 43.2871ZM194.75 43.2871H73.0768C71.685 43.2891 70.3508 43.8428 69.3667 44.8269C68.3826 45.811 67.8289 47.1452 67.8269 48.537V189.974C67.8289 191.366 68.3826 192.7 69.3667 193.684C70.3508 194.669 71.685 195.222 73.0768 195.224H194.75C196.142 195.222 197.476 194.669 198.46 193.684C199.444 192.7 199.998 191.366 200 189.974V48.537C199.998 47.1452 199.444 45.811 198.46 44.8269C197.476 43.8428 196.142 43.2891 194.75 43.2871ZM199.382 189.974C199.381 191.202 198.892 192.38 198.024 193.248C197.155 194.117 195.978 194.605 194.75 194.607H73.0768C71.8487 194.605 70.6713 194.117 69.8029 193.248C68.9345 192.38 68.446 191.202 68.4445 189.974V48.537C68.446 47.3089 68.9345 46.1315 69.8029 45.2631C70.6713 44.3948 71.8487 43.9062 73.0768 43.9047H194.75C195.978 43.9062 197.155 44.3948 198.024 45.2631C198.892 46.1315 199.381 47.3089 199.382 48.537V189.974Z" fill="#3F3D56"/>
<path d="M162.325 56.8751H105.502C104.766 56.8742 104.059 56.5811 103.538 56.0601C103.017 55.5391 102.724 54.8326 102.723 54.0957V40.5079C102.724 39.771 103.017 39.0645 103.538 38.5435C104.059 38.0224 104.766 37.7293 105.502 37.7285H162.325C163.061 37.7293 163.768 38.0224 164.289 38.5435C164.81 39.0645 165.103 39.771 165.104 40.5079V54.0957C165.103 54.8326 164.81 55.5391 164.289 56.0601C163.768 56.5811 163.061 56.8742 162.325 56.8751Z" fill="#4E9F8A"/>
<path d="M133.913 38.6553C137.324 38.6553 140.09 35.8901 140.09 32.479C140.09 29.068 137.324 26.3027 133.913 26.3027C130.502 26.3027 127.737 29.068 127.737 32.479C127.737 35.8901 130.502 38.6553 133.913 38.6553Z" fill="#4E9F8A"/>
<path d="M133.914 36.2407C135.991 36.2407 137.676 34.5564 137.676 32.4787C137.676 30.4011 135.991 28.7168 133.914 28.7168C131.836 28.7168 130.152 30.4011 130.152 32.4787C130.152 34.5564 131.836 36.2407 133.914 36.2407Z" fill="white"/>
</g>
<defs>
<clipPath id="clip0_1342_50118">
<rect width="200" height="195.225" fill="white"/>
</clipPath>
</defs>
</svg>
