<svg width="29" height="36" viewBox="0 0 29 36" fill="none" xmlns="http://www.w3.org/2000/svg">
<path d="M14.1514 1.23828L14.1514 0.000781178H14.1514V1.23828ZM27.0645 22.499L28.302 22.4991V22.499H27.0645ZM22.5547 27.7764L22.7247 29.0021L22.7247 29.0021L22.5547 27.7764ZM14.1514 28.499V29.7365H14.1514L14.1514 28.499ZM5.74805 27.7764L5.57808 29.0021L5.57808 29.0021L5.74805 27.7764ZM1.23828 22.499H0.000781178V22.4991L1.23828 22.499ZM14.1514 1.23828L14.1514 2.47578C19.0146 2.47581 22.9568 6.41869 22.9568 11.2822H24.1943H25.4318C25.4318 5.05208 20.3818 0.000813603 14.1514 0.000781178L14.1514 1.23828ZM24.1943 11.2822H22.9568V14.7341H24.1943H25.4318V11.2822H24.1943ZM26.2946 19.6972L25.2318 20.3311C25.6096 20.9645 25.827 21.7045 25.827 22.499H27.0645H28.302C28.302 21.2459 27.9575 20.0694 27.3574 19.0633L26.2946 19.6972ZM27.0645 22.499L25.827 22.499C25.8269 24.555 24.3641 26.2761 22.3847 26.5506L22.5547 27.7764L22.7247 29.0021C25.9846 28.5501 28.3018 25.7324 28.302 22.4991L27.0645 22.499ZM22.5547 27.7764L22.3847 26.5506C19.7936 26.9099 16.6132 27.2615 14.1514 27.2615L14.1514 28.499L14.1514 29.7365C16.7922 29.7365 20.1128 29.3643 22.7247 29.0021L22.5547 27.7764ZM14.1514 28.499V27.2615C11.6896 27.2615 8.50909 26.9099 5.91801 26.5506L5.74805 27.7764L5.57808 29.0021C8.18989 29.3643 11.5105 29.7365 14.1514 29.7365V28.499ZM5.74805 27.7764L5.91802 26.5506C3.93865 26.2761 2.47588 24.555 2.47578 22.499L1.23828 22.499L0.000781178 22.4991C0.000938535 25.7324 2.31818 28.5501 5.57808 29.0021L5.74805 27.7764ZM1.23828 22.499H2.47578C2.47578 21.7045 2.69309 20.9645 3.0708 20.331L2.00789 19.6972L0.944974 19.0635C0.34508 20.0696 0.000781178 21.2461 0.000781178 22.499H1.23828ZM4.10742 14.7346H5.34492V11.2822H4.10742H2.86992V14.7346H4.10742ZM4.10742 11.2822H5.34492C5.34492 6.41882 9.28796 2.47578 14.1514 2.47578V1.23828V0.000781178C7.92106 0.000781178 2.86992 5.05191 2.86992 11.2822H4.10742ZM2.00789 19.6972L3.0708 20.331C3.49093 19.6263 4.07788 18.7375 4.51355 17.8646C4.96545 16.9591 5.34492 15.9107 5.34492 14.7346H4.10742H2.86992C2.86992 15.3739 2.66449 16.0271 2.29904 16.7593C1.91737 17.524 1.45456 18.2088 0.944974 19.0635L2.00789 19.6972ZM24.1943 14.7341H22.9568C22.9568 15.9104 23.3364 16.959 23.7885 17.8645C24.2243 18.7375 24.8114 19.6263 25.2318 20.3311L26.2946 19.6972L27.3574 19.0633C26.8476 18.2086 26.3846 17.5238 26.0029 16.759C25.6373 16.0268 25.4318 15.3735 25.4318 14.7341H24.1943Z" fill="white"/>
<path d="M17.7383 32.3145C16.9671 33.4743 15.6485 34.2386 14.1513 34.2386C12.6542 34.2386 11.3355 33.4743 10.5644 32.3145" stroke="white" stroke-width="2.475" stroke-linecap="round"/>
</svg>
