<svg width="50" height="50" viewBox="0 0 50 50" fill="none" xmlns="http://www.w3.org/2000/svg">
<rect width="50" height="50" rx="25" fill="#F59E0B" fill-opacity="0.15"/>
<path d="M27.5833 28.75L28.75 27.5833L25.6667 24.5V20.6667H24V25.1667L27.5833 28.75ZM24.8333 33.1667C23.6806 33.1667 22.5972 32.9479 21.5833 32.5104C20.5694 32.0729 19.6875 31.4792 18.9375 30.7292C18.1875 29.9792 17.5938 29.0972 17.1562 28.0833C16.7188 27.0694 16.5 25.9861 16.5 24.8333C16.5 23.6806 16.7188 22.5972 17.1562 21.5833C17.5938 20.5694 18.1875 19.6875 18.9375 18.9375C19.6875 18.1875 20.5694 17.5938 21.5833 17.1562C22.5972 16.7188 23.6806 16.5 24.8333 16.5C25.9861 16.5 27.0694 16.7188 28.0833 17.1562C29.0972 17.5938 29.9792 18.1875 30.7292 18.9375C31.4792 19.6875 32.0729 20.5694 32.5104 21.5833C32.9479 22.5972 33.1667 23.6806 33.1667 24.8333C33.1667 25.9861 32.9479 27.0694 32.5104 28.0833C32.0729 29.0972 31.4792 29.9792 30.7292 30.7292C29.9792 31.4792 29.0972 32.0729 28.0833 32.5104C27.0694 32.9479 25.9861 33.1667 24.8333 33.1667ZM24.8333 31.5C26.6806 31.5 28.2535 30.8507 29.5521 29.5521C30.8507 28.2535 31.5 26.6806 31.5 24.8333C31.5 22.9861 30.8507 21.4132 29.5521 20.1146C28.2535 18.816 26.6806 18.1667 24.8333 18.1667C22.9861 18.1667 21.4132 18.816 20.1146 20.1146C18.816 21.4132 18.1667 22.9861 18.1667 24.8333C18.1667 26.6806 18.816 28.2535 20.1146 29.5521C21.4132 30.8507 22.9861 31.5 24.8333 31.5Z" fill="#F59E0B"/>
</svg>
