<svg width="50" height="50" viewBox="0 0 50 50" fill="none" xmlns="http://www.w3.org/2000/svg">
<rect width="50" height="50" rx="25" fill="#EF4444" fill-opacity="0.1"/>
<path d="M24.8333 29C25.0694 29 25.2674 28.9201 25.4271 28.7604C25.5868 28.6007 25.6667 28.4028 25.6667 28.1667C25.6667 27.9306 25.5868 27.7326 25.4271 27.5729C25.2674 27.4132 25.0694 27.3333 24.8333 27.3333C24.5972 27.3333 24.3993 27.4132 24.2396 27.5729C24.0799 27.7326 24 27.9306 24 28.1667C24 28.4028 24.0799 28.6007 24.2396 28.7604C24.3993 28.9201 24.5972 29 24.8333 29ZM24 25.6667H25.6667V20.6667H24V25.6667ZM24.8333 33.1667C23.6806 33.1667 22.5972 32.9479 21.5833 32.5104C20.5694 32.0729 19.6875 31.4792 18.9375 30.7292C18.1875 29.9792 17.5938 29.0972 17.1562 28.0833C16.7188 27.0694 16.5 25.9861 16.5 24.8333C16.5 23.6806 16.7188 22.5972 17.1562 21.5833C17.5938 20.5694 18.1875 19.6875 18.9375 18.9375C19.6875 18.1875 20.5694 17.5938 21.5833 17.1562C22.5972 16.7188 23.6806 16.5 24.8333 16.5C25.9861 16.5 27.0694 16.7188 28.0833 17.1562C29.0972 17.5938 29.9792 18.1875 30.7292 18.9375C31.4792 19.6875 32.0729 20.5694 32.5104 21.5833C32.9479 22.5972 33.1667 23.6806 33.1667 24.8333C33.1667 25.9861 32.9479 27.0694 32.5104 28.0833C32.0729 29.0972 31.4792 29.9792 30.7292 30.7292C29.9792 31.4792 29.0972 32.0729 28.0833 32.5104C27.0694 32.9479 25.9861 33.1667 24.8333 33.1667ZM24.8333 31.5C26.6944 31.5 28.2708 30.8542 29.5625 29.5625C30.8542 28.2708 31.5 26.6944 31.5 24.8333C31.5 22.9722 30.8542 21.3958 29.5625 20.1042C28.2708 18.8125 26.6944 18.1667 24.8333 18.1667C22.9722 18.1667 21.3958 18.8125 20.1042 20.1042C18.8125 21.3958 18.1667 22.9722 18.1667 24.8333C18.1667 26.6944 18.8125 28.2708 20.1042 29.5625C21.3958 30.8542 22.9722 31.5 24.8333 31.5Z" fill="#EF4444"/>
</svg>
