<svg width="32" height="32" viewBox="0 0 32 32" fill="none" xmlns="http://www.w3.org/2000/svg">
<path d="M23.9991 10.5469C23.9591 10.5469 23.9324 10.5469 23.8924 10.5469H23.8258C21.3058 10.4669 19.4258 8.52018 19.4258 6.12018C19.4258 3.66684 21.4258 1.68018 23.8658 1.68018C26.3058 1.68018 28.3058 3.68018 28.3058 6.12018C28.2925 8.53351 26.4124 10.4802 24.0124 10.5602C24.0124 10.5468 24.0124 10.5469 23.9991 10.5469ZM23.8658 3.66685C22.5191 3.66685 21.4258 4.76019 21.4258 6.10685C21.4258 7.42685 22.4525 8.49352 23.7725 8.54685C23.7858 8.53352 23.8924 8.53352 24.0124 8.54685C25.3058 8.48019 26.3058 7.41352 26.3191 6.10685C26.3191 4.76019 25.2258 3.66685 23.8658 3.66685Z" fill="white"/>
<path d="M24.014 20.3732C23.494 20.3732 22.974 20.3332 22.454 20.2399C21.9073 20.1465 21.5473 19.6265 21.6407 19.0799C21.734 18.5332 22.254 18.1732 22.8007 18.2665C24.4407 18.5465 26.174 18.2399 27.334 17.4665C27.9607 17.0532 28.294 16.5332 28.294 16.0132C28.294 15.4932 27.9473 14.9865 27.334 14.5732C26.174 13.7999 24.414 13.4932 22.7607 13.7865C22.214 13.8932 21.694 13.5199 21.6007 12.9732C21.5073 12.4265 21.8673 11.9065 22.414 11.8132C24.5873 11.4265 26.8407 11.8399 28.4407 12.9065C29.614 13.6932 30.294 14.8132 30.294 16.0132C30.294 17.1999 29.6273 18.3332 28.4407 19.1332C27.2273 19.9332 25.654 20.3732 24.014 20.3732Z" fill="white"/>
<path d="M7.96063 10.5465C7.94729 10.5465 7.93396 10.5465 7.93396 10.5465C5.53396 10.4665 3.65396 8.51983 3.64062 6.11983C3.64062 3.6665 5.64063 1.6665 8.08063 1.6665C10.5206 1.6665 12.5206 3.66651 12.5206 6.10651C12.5206 8.51984 10.6406 10.4665 8.24063 10.5465L7.96063 9.54651L8.05396 10.5465C8.02729 10.5465 7.98729 10.5465 7.96063 10.5465ZM8.09396 8.54651C8.17396 8.54651 8.24063 8.5465 8.32063 8.55983C9.50729 8.5065 10.5473 7.43983 10.5473 6.11983C10.5473 4.77317 9.45396 3.67983 8.1073 3.67983C6.76063 3.67983 5.66729 4.77317 5.66729 6.11983C5.66729 7.4265 6.68062 8.47984 7.97396 8.55983C7.98729 8.5465 8.04063 8.54651 8.09396 8.54651Z" fill="white"/>
<path d="M7.94601 20.3732C6.30601 20.3732 4.73268 19.9332 3.51935 19.1332C2.34601 18.3465 1.66602 17.2132 1.66602 16.0132C1.66602 14.8265 2.34601 13.6932 3.51935 12.9065C5.11935 11.8399 7.37268 11.4265 9.54602 11.8132C10.0927 11.9065 10.4527 12.4265 10.3594 12.9732C10.266 13.5199 9.74602 13.8932 9.19935 13.7865C7.54602 13.4932 5.79935 13.7999 4.62602 14.5732C3.99935 14.9865 3.66602 15.4932 3.66602 16.0132C3.66602 16.5332 4.01268 17.0532 4.62602 17.4665C5.78602 18.2399 7.51935 18.5465 9.15935 18.2665C9.70601 18.1732 10.226 18.5465 10.3194 19.0799C10.4127 19.6265 10.0527 20.1465 9.50602 20.2399C8.98602 20.3332 8.46601 20.3732 7.94601 20.3732Z" fill="white"/>
<path d="M15.9991 20.5068C15.9591 20.5068 15.9324 20.5068 15.8924 20.5068H15.8258C13.3058 20.4268 11.4258 18.4801 11.4258 16.0801C11.4258 13.6268 13.4258 11.6401 15.8658 11.6401C18.3058 11.6401 20.3058 13.6401 20.3058 16.0801C20.2924 18.4935 18.4124 20.4401 16.0124 20.5201C16.0124 20.5068 16.0124 20.5068 15.9991 20.5068ZM15.8658 13.6268C14.5191 13.6268 13.4258 14.7201 13.4258 16.0668C13.4258 17.3868 14.4525 18.4535 15.7725 18.5068C15.7858 18.4935 15.8924 18.4935 16.0124 18.5068C17.3058 18.4401 18.3058 17.3735 18.3191 16.0668C18.3191 14.7335 17.2258 13.6268 15.8658 13.6268Z" fill="white"/>
<path d="M16.0004 30.3465C14.4004 30.3465 12.8004 29.9331 11.5604 29.0931C10.387 28.3065 9.70703 27.1865 9.70703 25.9865C9.70703 24.7998 10.3737 23.6531 11.5604 22.8665C14.0537 21.2131 17.9604 21.2131 20.4404 22.8665C21.6137 23.6531 22.2937 24.7731 22.2937 25.9731C22.2937 27.1598 21.627 28.3065 20.4404 29.0931C19.2004 29.9198 17.6004 30.3465 16.0004 30.3465ZM12.667 24.5465C12.0404 24.9598 11.707 25.4798 11.707 25.9998C11.707 26.5198 12.0537 27.0265 12.667 27.4398C14.467 28.6531 17.5204 28.6531 19.3204 27.4398C19.947 27.0265 20.2804 26.5065 20.2804 25.9865C20.2804 25.4665 19.9337 24.9598 19.3204 24.5465C17.5337 23.3331 14.4804 23.3465 12.667 24.5465Z" fill="white"/>
</svg>
