<svg width="32" height="32" viewBox="0 0 32 32" fill="none" xmlns="http://www.w3.org/2000/svg">
<rect width="32" height="32" rx="4" fill="#ECF8F7"/>
<path d="M9.79742 24C9.04425 24 8.50891 23.663 8.1914 22.9889C7.87389 22.3148 7.95142 21.6889 8.42399 21.1111L13.3418 15.1111V9.77778H12.4557C12.2046 9.77778 11.9942 9.69259 11.8243 9.52222C11.6545 9.35185 11.5696 9.14074 11.5696 8.88889C11.5696 8.63704 11.6545 8.42593 11.8243 8.25556C11.9942 8.08519 12.2046 8 12.4557 8H19.5443C19.7954 8 20.0058 8.08519 20.1757 8.25556C20.3455 8.42593 20.4304 8.63704 20.4304 8.88889C20.4304 9.14074 20.3455 9.35185 20.1757 9.52222C20.0058 9.69259 19.7954 9.77778 19.5443 9.77778H18.6582V15.1111L23.576 21.1111C24.0486 21.6889 24.1261 22.3148 23.8086 22.9889C23.4911 23.663 22.9557 24 22.2026 24H9.79742ZM9.79742 22.2222H22.2026L16.8861 15.7333V9.77778H15.1139V15.7333L9.79742 22.2222Z" fill="#4E9F8A"/>
</svg>
