<svg width="31" height="33" viewBox="0 0 31 33" fill="none" xmlns="http://www.w3.org/2000/svg">
<circle cx="4.47429" cy="4.47429" r="4.47429" transform="matrix(-1 0 0 1 19.7383 11.5586)" stroke="white" stroke-width="2.23714"/>
<path d="M15.2646 1.11914V0.000569105H15.2646L15.2646 1.11914ZM21.9766 5.5L21.4173 6.46871L21.4173 6.46872L21.9766 5.5ZM26.2988 15.1367H25.1803V15.1368L26.2988 15.1367ZM21.9766 26.5664L21.4173 25.5977L21.4173 25.5977L21.9766 26.5664ZM15.2646 30.9473L15.2646 32.0658H15.2646V30.9473ZM8.55371 26.5664L9.11308 25.5977L9.113 25.5977L8.55371 26.5664ZM3.33301 16.0332H4.45158V16.0331L3.33301 16.0332ZM8.55371 5.5L9.113 6.46871L9.11307 6.46867L8.55371 5.5ZM10.6742 2.63366L9.58435 2.38166L10.6742 2.63366ZM11.5929 1.57492L11.3182 0.490585L11.5929 1.57492ZM1.70287 12.58L0.991477 13.4432L1.70287 12.58ZM5.29081 26.0859L5.03428 24.9971L5.29081 26.0859ZM3.93559 25.732L3.08617 26.4598L3.93559 25.732ZM11.5929 30.4915L11.8675 29.4072L11.5929 30.4915ZM19.8552 29.4327L20.945 29.6849L19.8552 29.4327ZM18.9364 30.4915L18.6618 29.4072L18.9364 30.4915ZM26.5937 25.7321L25.7443 25.0043L26.5937 25.7321ZM25.2386 26.086L24.9821 27.1747L25.2386 26.086ZM28.2108 11.4681L28.8522 12.3846L28.2108 11.4681ZM1.18085 20.9485L2.23699 20.58L1.18085 20.9485ZM25.2378 5.97945L25.4945 7.06816L25.2378 5.97945ZM28.65 19.0734L28.1187 20.0577L28.65 19.0734ZM29.4477 20.6547L30.5113 21.001L29.4477 20.6547ZM18.9364 1.57492L18.6618 2.65926L18.9364 1.57492ZM19.8552 2.63367L18.7654 2.88584L19.8552 2.63367ZM15.2646 1.11914V2.23771C16.4382 2.23771 17.5761 2.38429 18.6618 2.65926L18.9364 1.57492L19.211 0.490588C17.9475 0.170595 16.6252 0.000569105 15.2646 0.000569105V1.11914ZM19.8552 2.63367L18.7654 2.88584C19.1021 4.34083 20.0196 5.66174 21.4173 6.46871L21.9766 5.5L22.5358 4.53129C21.6974 4.04723 21.1478 3.25799 20.945 2.38151L19.8552 2.63367ZM21.9766 5.5L21.4173 6.46872C22.7012 7.20998 24.1587 7.38319 25.4945 7.06816L25.2378 5.97945L24.9811 4.89074C24.1772 5.08032 23.3063 4.97612 22.5358 4.53128L21.9766 5.5ZM26.5926 6.33305L25.7434 7.06106C26.5705 8.02583 27.2663 9.10541 27.8036 10.2723L28.8196 9.80456L29.8357 9.33678C29.2108 7.9794 28.402 6.72503 27.4419 5.60503L26.5926 6.33305ZM28.2108 11.4681L27.5694 10.5517C26.1273 11.5611 25.1803 13.2383 25.1803 15.1367H26.2988H27.4174C27.4174 13.9993 27.9825 12.9933 28.8522 12.3846L28.2108 11.4681ZM26.2988 15.1367L25.1803 15.1368C25.1805 17.2668 26.3721 19.115 28.1187 20.0577L28.65 19.0734L29.1814 18.0891C28.1285 17.5208 27.4175 16.4112 27.4174 15.1366L26.2988 15.1367ZM29.4477 20.6547L28.3841 20.3084C27.8167 22.0511 26.9114 23.6422 25.7443 25.0043L26.5937 25.7321L27.4431 26.46C28.7982 24.8784 29.8511 23.0291 30.5113 21.001L29.4477 20.6547ZM25.2386 26.086L25.4951 24.9972C24.1587 24.6823 22.7009 24.8566 21.4173 25.5977L21.9766 26.5664L22.5358 27.5351C23.3068 27.09 24.1783 26.9854 24.9821 27.1747L25.2386 26.086ZM21.9766 26.5664L21.4173 25.5977C20.0196 26.4047 19.1021 27.7256 18.7654 29.1806L19.8552 29.4327L20.945 29.6849C21.1478 28.8084 21.6974 28.0192 22.5358 27.5351L21.9766 26.5664ZM18.9364 30.4915L18.6618 29.4072C17.5761 29.6821 16.4382 29.8287 15.2646 29.8287V30.9473V32.0658C16.6252 32.0658 17.9475 31.8958 19.211 31.5758L18.9364 30.4915ZM15.2646 30.9473L15.2647 29.8287C14.091 29.8287 12.9532 29.6821 11.8675 29.4072L11.5929 30.4915L11.3182 31.5758C12.5818 31.8959 13.904 32.0658 15.2646 32.0658L15.2646 30.9473ZM10.6742 29.4327L11.764 29.1807C11.4276 27.726 10.5108 26.4049 9.11308 25.5977L8.55371 26.5664L7.99434 27.5351C8.83241 28.019 9.38166 28.8081 9.58435 29.6847L10.6742 29.4327ZM8.55371 26.5664L9.113 25.5977C7.8292 24.8565 6.37095 24.6822 5.03428 24.9971L5.29081 26.0859L5.54734 27.1746C6.3514 26.9852 7.22332 27.0899 7.99443 27.5351L8.55371 26.5664ZM3.93559 25.732L4.785 25.0042C3.67886 23.7133 2.80797 22.2166 2.23699 20.58L1.18085 20.9485L0.124714 21.317C0.789109 23.2213 1.8018 24.9609 3.08617 26.4598L3.93559 25.732ZM1.70281 19.4864L2.41419 20.3496C3.65634 19.326 4.45158 17.7723 4.45158 16.0332H3.33301H2.21444C2.21444 17.0757 1.74024 18.0061 0.991422 18.6232L1.70281 19.4864ZM3.33301 16.0332L4.45158 16.0331C4.45149 14.2941 3.65641 12.7405 2.41427 11.7168L1.70287 12.58L0.991477 13.4432C1.74022 14.0603 2.21438 14.9907 2.21444 16.0333L3.33301 16.0332ZM1.18084 11.1178L2.23701 11.4862C2.80809 9.84889 3.67875 8.35128 4.78495 7.06021L3.93552 6.33242L3.0861 5.60463C1.80127 7.10418 0.78898 8.84483 0.124669 10.7495L1.18084 11.1178ZM5.29076 5.97889L5.03361 7.0675C6.36995 7.38316 7.82836 7.2104 9.113 6.46871L8.55371 5.5L7.99443 4.53129C7.22372 4.97625 6.3523 5.08029 5.5479 4.89028L5.29076 5.97889ZM8.55371 5.5L9.11307 6.46867C10.5108 5.66154 11.4276 4.34042 11.764 2.88566L10.6742 2.63366L9.58435 2.38166C9.38165 3.25827 8.8324 4.0474 7.99435 4.53133L8.55371 5.5ZM11.5929 1.57492L11.8675 2.65925C12.9532 2.38428 14.0911 2.23772 15.2647 2.23771L15.2646 1.11914L15.2646 0.000569105C13.9041 0.00058341 12.5818 0.17057 11.3182 0.490585L11.5929 1.57492ZM10.6742 2.63366L11.764 2.88566C11.7872 2.78519 11.8266 2.71432 11.8572 2.67715C11.8834 2.64522 11.8881 2.65403 11.8675 2.65925L11.5929 1.57492L11.3182 0.490585C10.2878 0.751565 9.75551 1.64145 9.58435 2.38166L10.6742 2.63366ZM1.70287 12.58L2.41427 11.7168C2.32355 11.642 2.27082 11.5612 2.24966 11.5071C2.23186 11.4615 2.24494 11.4635 2.23701 11.4862L1.18084 11.1178L0.124669 10.7495C-0.271551 11.8855 0.342572 12.9084 0.991477 13.4432L1.70287 12.58ZM5.29081 26.0859L5.03428 24.9971C4.93401 25.0208 4.85308 25.0169 4.80616 25.0059C4.76581 24.9965 4.77137 24.9883 4.785 25.0042L3.93559 25.732L3.08617 26.4598C3.77665 27.2657 4.8084 27.3488 5.54734 27.1746L5.29081 26.0859ZM11.5929 30.4915L11.8675 29.4072C11.8881 29.4124 11.8834 29.4212 11.8572 29.3893C11.8266 29.3521 11.7872 29.2812 11.764 29.1807L10.6742 29.4327L9.58435 29.6847C9.75551 30.4249 10.2878 31.3148 11.3182 31.5758L11.5929 30.4915ZM19.8552 29.4327L18.7654 29.1806C18.7421 29.2811 18.7027 29.352 18.6721 29.3892C18.6459 29.4212 18.6412 29.4124 18.6618 29.4072L18.9364 30.4915L19.211 31.5758C20.2415 31.3148 20.7737 30.4249 20.945 29.6849L19.8552 29.4327ZM26.5937 25.7321L25.7443 25.0043C25.7579 24.9884 25.7635 24.9966 25.7231 25.006C25.6762 25.0169 25.5953 25.0208 25.4951 24.9972L25.2386 26.086L24.9821 27.1747C25.721 27.3488 26.7526 27.2657 27.4431 26.46L26.5937 25.7321ZM28.8196 9.80456L27.8036 10.2723C27.801 10.2669 27.7994 10.258 27.7994 10.2536C27.7995 10.2521 27.7996 10.2671 27.7866 10.299C27.7576 10.3705 27.6846 10.4711 27.5694 10.5517L28.2108 11.4681L28.8522 12.3846C29.6323 11.8386 30.4304 10.6286 29.8357 9.33678L28.8196 9.80456ZM1.18085 20.9485L2.23699 20.58C2.24493 20.6028 2.23185 20.6048 2.24963 20.5593C2.27077 20.5052 2.32349 20.4244 2.41419 20.3496L1.70281 19.4864L0.991422 18.6232C0.34254 19.158 -0.271633 20.1809 0.124714 21.317L1.18085 20.9485ZM25.2378 5.97945L25.4945 7.06816C25.5946 7.04456 25.6754 7.04844 25.7222 7.05935C25.7625 7.06873 25.757 7.07692 25.7434 7.06106L26.5926 6.33305L27.4419 5.60503C26.7515 4.79968 25.7201 4.71645 24.9811 4.89074L25.2378 5.97945ZM3.93552 6.33242L4.78495 7.06021C4.77129 7.07615 4.76568 7.06799 4.80591 7.05863C4.85272 7.04773 4.93351 7.04386 5.03361 7.0675L5.29076 5.97889L5.5479 4.89028C4.80867 4.71566 3.77667 4.79864 3.0861 5.60463L3.93552 6.33242ZM28.65 19.0734L28.1187 20.0577C28.2427 20.1247 28.327 20.2163 28.3641 20.284C28.3807 20.3142 28.3824 20.3292 28.3822 20.3277C28.3816 20.3233 28.3822 20.3142 28.3841 20.3084L29.4477 20.6547L30.5113 21.001C30.9515 19.649 30.0182 18.5408 29.1814 18.0891L28.65 19.0734ZM18.9364 1.57492L18.6618 2.65926C18.6412 2.65404 18.6459 2.64523 18.6722 2.67719C18.7027 2.71438 18.7422 2.7853 18.7654 2.88584L19.8552 2.63367L20.945 2.38151C20.7737 1.64145 20.2415 0.751563 19.211 0.490588L18.9364 1.57492Z" fill="white"/>
</svg>
