<svg width="202" height="181" viewBox="0 0 202 181" fill="none" xmlns="http://www.w3.org/2000/svg">
<path opacity="0.1" d="M220.932 87.9789L220.239 87.8444L202.158 180.866C194.549 178.373 187.032 175.532 179.607 172.344C146.176 157.993 115.009 136.677 86.9993 109.006C78.9138 101.009 71.1277 92.4817 63.641 83.4242C51.1304 68.3196 39.5547 51.7378 29.0069 33.8119C26.3598 29.2977 23.7738 24.7031 21.2489 20.0282C19.5017 16.7845 17.7823 13.4718 16.0193 10.2357C14.793 8.00808 5.24526 -10.6167 3.9624 -12.7383L-0.00045501 -27.7429L33.625 -106.206L205.665 -72.765C205.675 -73.4439 205.685 -74.1227 205.686 -74.7927C205.692 -74.1214 205.689 -73.4412 205.679 -72.7623L249.792 -64.1877L220.251 87.7829C220.485 87.8389 220.707 87.914 220.932 87.9789Z" fill="#418573"/>
</svg>
