<svg width="316" height="181" viewBox="0 0 316 181" fill="none" xmlns="http://www.w3.org/2000/svg">
<path opacity="0.1" d="M332.31 99.5377L331.294 99.3402L315.459 180.803C304.18 177.722 292.995 174.34 281.904 170.656C231.969 154.073 184.538 131.491 140.966 103.557C128.388 95.4854 116.183 86.9709 104.353 78.0137C84.5874 63.0736 66.01 46.9117 48.77 29.6576C44.4417 25.3136 40.1928 20.9042 36.0234 16.4296C33.1373 13.3254 30.2837 10.1623 27.3756 7.06315C25.3553 4.92839 9.48394 -12.8419 7.39365 -14.8878L-0.000262968 -28.7906L39.9259 -95.4672L292.414 -46.3885C292.353 -46.9966 292.292 -47.6047 292.219 -48.2057C292.302 -47.6027 292.373 -46.9926 292.434 -46.3846L357.174 -33.8005L331.304 99.2863C331.648 99.3625 331.978 99.4545 332.31 99.5377Z" fill="#418573"/>
</svg>
