<svg width="383" height="181" viewBox="0 0 383 181" fill="none" xmlns="http://www.w3.org/2000/svg">
<path opacity="0.1" d="M384 72.1663H382.867V181C370.1 179.857 357.371 178.302 344.68 176.335C287.542 167.482 231.842 150.28 179.172 125.222C163.965 117.978 149.068 110.071 134.48 101.5C110.114 87.2133 86.7687 71.0558 64.6331 53.1578C59.0732 48.6485 53.5849 44.0354 48.1685 39.3183C44.4178 36.0443 40.6897 32.6863 36.9163 29.4243C34.2987 27.1816 13.5264 8.2765 10.8522 6.16579L0 -9.88179L28.9843 -105.709H310.629C310.436 -106.477 310.243 -107.244 310.039 -108C310.255 -107.244 310.459 -106.477 310.651 -105.709H382.867V72.0943C383.252 72.1063 383.626 72.1423 384 72.1663Z" fill="#418573"/>
</svg>
