<svg width="20" height="18" viewBox="0 0 20 18" fill="none" xmlns="http://www.w3.org/2000/svg">
<path d="M0 17.2727L10 0L20 17.2727H0ZM3.13636 15.4545H16.8636L10 3.63636L3.13636 15.4545ZM10 14.5455C10.2576 14.5455 10.4735 14.4583 10.6477 14.2841C10.822 14.1098 10.9091 13.8939 10.9091 13.6364C10.9091 13.3788 10.822 13.1629 10.6477 12.9886C10.4735 12.8144 10.2576 12.7273 10 12.7273C9.74242 12.7273 9.52652 12.8144 9.35227 12.9886C9.17803 13.1629 9.09091 13.3788 9.09091 13.6364C9.09091 13.8939 9.17803 14.1098 9.35227 14.2841C9.52652 14.4583 9.74242 14.5455 10 14.5455ZM9.09091 11.8182H10.9091V7.27273H9.09091V11.8182Z" fill="#CC8409"/>
</svg>
